<?xml version="1.0" encoding="utf-8" standalone="no"?>
<!DOCTYPE svg PUBLIC "-//W3C//DTD SVG 1.1//EN"
  "http://www.w3.org/Graphics/SVG/1.1/DTD/svg11.dtd">
<!-- Created with matplotlib (https://matplotlib.org/) -->
<svg height="648pt" version="1.1" viewBox="0 0 864 648" width="864pt" xmlns="http://www.w3.org/2000/svg" xmlns:xlink="http://www.w3.org/1999/xlink">
 <metadata>
  <rdf:RDF xmlns:cc="http://creativecommons.org/ns#" xmlns:dc="http://purl.org/dc/elements/1.1/" xmlns:rdf="http://www.w3.org/1999/02/22-rdf-syntax-ns#">
   <cc:Work>
    <dc:type rdf:resource="http://purl.org/dc/dcmitype/StillImage"/>
    <dc:date>2021-08-21T17:45:08.295678</dc:date>
    <dc:format>image/svg+xml</dc:format>
    <dc:creator>
     <cc:Agent>
      <dc:title>Matplotlib v3.3.2, https://matplotlib.org/</dc:title>
     </cc:Agent>
    </dc:creator>
   </cc:Work>
  </rdf:RDF>
 </metadata>
 <defs>
  <style type="text/css">*{stroke-linecap:butt;stroke-linejoin:round;}</style>
 </defs>
 <g id="figure_1">
  <g id="patch_1">
   <path d="M 0 648 
L 864 648 
L 864 0 
L 0 0 
z
" style="fill:none;"/>
  </g>
  <g id="axes_1">
   <g id="patch_2">
    <path d="M 108 567 
L 777.6 567 
L 777.6 77.76 
L 108 77.76 
z
" style="fill:#ffffff;"/>
   </g>
   <g id="patch_3">
    <path clip-path="url(#p97ec016315)" d="M 491.498182 144.156857 
L 500.629091 140.662286 
L 500.629091 144.121911 
L 528.021818 144.121911 
L 528.021818 144.191803 
L 500.629091 144.191803 
L 500.629091 147.651429 
z
" style="stroke:#000000;stroke-linejoin:miter;"/>
   </g>
   <g id="matplotlib.axis_1">
    <g id="xtick_1">
     <g id="line2d_1">
      <defs>
       <path d="M 0 0 
L 0 3.5 
" id="m89cc18d128" style="stroke:#000000;stroke-width:0.8;"/>
      </defs>
      <g>
       <use style="stroke:#000000;stroke-width:0.8;" x="108" xlink:href="#m89cc18d128" y="567"/>
      </g>
     </g>
     <g id="line2d_2">
      <defs>
       <path d="M 0 0 
L 0 -3.5 
" id="m3637bfba24" style="stroke:#000000;stroke-width:0.8;"/>
      </defs>
      <g>
       <use style="stroke:#000000;stroke-width:0.8;" x="108" xlink:href="#m3637bfba24" y="77.76"/>
      </g>
     </g>
    </g>
    <g id="xtick_2">
     <g id="line2d_3">
      <g>
       <use style="stroke:#000000;stroke-width:0.8;" x="229.745455" xlink:href="#m89cc18d128" y="567"/>
      </g>
     </g>
     <g id="line2d_4">
      <g>
       <use style="stroke:#000000;stroke-width:0.8;" x="229.745455" xlink:href="#m3637bfba24" y="77.76"/>
      </g>
     </g>
    </g>
    <g id="xtick_3">
     <g id="line2d_5">
      <g>
       <use style="stroke:#000000;stroke-width:0.8;" x="351.490909" xlink:href="#m89cc18d128" y="567"/>
      </g>
     </g>
     <g id="line2d_6">
      <g>
       <use style="stroke:#000000;stroke-width:0.8;" x="351.490909" xlink:href="#m3637bfba24" y="77.76"/>
      </g>
     </g>
    </g>
    <g id="xtick_4">
     <g id="line2d_7">
      <g>
       <use style="stroke:#000000;stroke-width:0.8;" x="473.236364" xlink:href="#m89cc18d128" y="567"/>
      </g>
     </g>
     <g id="line2d_8">
      <g>
       <use style="stroke:#000000;stroke-width:0.8;" x="473.236364" xlink:href="#m3637bfba24" y="77.76"/>
      </g>
     </g>
    </g>
    <g id="xtick_5">
     <g id="line2d_9">
      <g>
       <use style="stroke:#000000;stroke-width:0.8;" x="594.981818" xlink:href="#m89cc18d128" y="567"/>
      </g>
     </g>
     <g id="line2d_10">
      <g>
       <use style="stroke:#000000;stroke-width:0.8;" x="594.981818" xlink:href="#m3637bfba24" y="77.76"/>
      </g>
     </g>
    </g>
    <g id="xtick_6">
     <g id="line2d_11">
      <g>
       <use style="stroke:#000000;stroke-width:0.8;" x="716.727273" xlink:href="#m89cc18d128" y="567"/>
      </g>
     </g>
     <g id="line2d_12">
      <g>
       <use style="stroke:#000000;stroke-width:0.8;" x="716.727273" xlink:href="#m3637bfba24" y="77.76"/>
      </g>
     </g>
    </g>
   </g>
   <g id="matplotlib.axis_2">
    <g id="ytick_1">
     <g id="line2d_13">
      <defs>
       <path d="M 0 0 
L -3.5 0 
" id="m63f9d8ea1d" style="stroke:#000000;stroke-width:0.8;"/>
      </defs>
      <g>
       <use style="stroke:#000000;stroke-width:0.8;" x="108" xlink:href="#m63f9d8ea1d" y="567"/>
      </g>
     </g>
     <g id="line2d_14">
      <defs>
       <path d="M 0 0 
L 3.5 0 
" id="mcea90375f4" style="stroke:#000000;stroke-width:0.8;"/>
      </defs>
      <g>
       <use style="stroke:#000000;stroke-width:0.8;" x="777.6" xlink:href="#mcea90375f4" y="567"/>
      </g>
     </g>
    </g>
    <g id="ytick_2">
     <g id="line2d_15">
      <g>
       <use style="stroke:#000000;stroke-width:0.8;" x="108" xlink:href="#m63f9d8ea1d" y="497.108571"/>
      </g>
     </g>
     <g id="line2d_16">
      <g>
       <use style="stroke:#000000;stroke-width:0.8;" x="777.6" xlink:href="#mcea90375f4" y="497.108571"/>
      </g>
     </g>
    </g>
    <g id="ytick_3">
     <g id="line2d_17">
      <g>
       <use style="stroke:#000000;stroke-width:0.8;" x="108" xlink:href="#m63f9d8ea1d" y="427.217143"/>
      </g>
     </g>
     <g id="line2d_18">
      <g>
       <use style="stroke:#000000;stroke-width:0.8;" x="777.6" xlink:href="#mcea90375f4" y="427.217143"/>
      </g>
     </g>
    </g>
    <g id="ytick_4">
     <g id="line2d_19">
      <g>
       <use style="stroke:#000000;stroke-width:0.8;" x="108" xlink:href="#m63f9d8ea1d" y="357.325714"/>
      </g>
     </g>
     <g id="line2d_20">
      <g>
       <use style="stroke:#000000;stroke-width:0.8;" x="777.6" xlink:href="#mcea90375f4" y="357.325714"/>
      </g>
     </g>
    </g>
    <g id="ytick_5">
     <g id="line2d_21">
      <g>
       <use style="stroke:#000000;stroke-width:0.8;" x="108" xlink:href="#m63f9d8ea1d" y="287.434286"/>
      </g>
     </g>
     <g id="line2d_22">
      <g>
       <use style="stroke:#000000;stroke-width:0.8;" x="777.6" xlink:href="#mcea90375f4" y="287.434286"/>
      </g>
     </g>
    </g>
    <g id="ytick_6">
     <g id="line2d_23">
      <g>
       <use style="stroke:#000000;stroke-width:0.8;" x="108" xlink:href="#m63f9d8ea1d" y="217.542857"/>
      </g>
     </g>
     <g id="line2d_24">
      <g>
       <use style="stroke:#000000;stroke-width:0.8;" x="777.6" xlink:href="#mcea90375f4" y="217.542857"/>
      </g>
     </g>
    </g>
    <g id="ytick_7">
     <g id="line2d_25">
      <g>
       <use style="stroke:#000000;stroke-width:0.8;" x="108" xlink:href="#m63f9d8ea1d" y="147.651429"/>
      </g>
     </g>
     <g id="line2d_26">
      <g>
       <use style="stroke:#000000;stroke-width:0.8;" x="777.6" xlink:href="#mcea90375f4" y="147.651429"/>
      </g>
     </g>
    </g>
    <g id="ytick_8">
     <g id="line2d_27">
      <g>
       <use style="stroke:#000000;stroke-width:0.8;" x="108" xlink:href="#m63f9d8ea1d" y="77.76"/>
      </g>
     </g>
     <g id="line2d_28">
      <g>
       <use style="stroke:#000000;stroke-width:0.8;" x="777.6" xlink:href="#mcea90375f4" y="77.76"/>
      </g>
     </g>
    </g>
   </g>
   <g id="line2d_29">
    <path clip-path="url(#p97ec016315)" d="M 108 567 
L 128.839312 544.850449 
L 142.153317 531.071263 
L 151.415233 521.940605 
L 158.361671 515.593454 
L 163.571499 511.287017 
L 168.202457 507.909489 
L 172.254545 505.332842 
L 176.306634 503.101857 
L 179.779853 501.431034 
L 183.253071 499.949731 
L 187.30516 498.413659 
L 191.357248 497.043103 
L 197.145946 495.321193 
L 203.513514 493.638692 
L 212.77543 491.512183 
L 223.773956 489.321898 
L 235.930221 487.199547 
L 249.823096 485.05303 
L 267.189189 482.665696 
L 288.028501 480.09381 
L 313.498771 477.24453 
L 345.336609 473.993032 
L 385.278624 470.245709 
L 436.798034 465.782788 
L 503.946929 460.395072 
L 544.467813 457.314097 
L 591.935135 453.82666 
L 646.927764 449.920692 
L 686.290909 447.194466 
L 686.290909 447.194466 
" style="fill:none;stroke:#000000;stroke-linecap:square;stroke-width:1.5;"/>
   </g>
   <g id="line2d_30">
    <path clip-path="url(#p97ec016315)" d="M 108 567 
L 132.312531 541.020703 
L 146.784275 525.888611 
L 157.203931 515.365159 
L 165.886978 507.032702 
L 172.833415 500.78523 
L 179.200983 495.464709 
L 184.989681 490.967742 
L 190.778378 486.753974 
L 196.567076 482.760866 
L 202.934644 478.553513 
L 216.248649 470.146321 
L 231.878133 460.590115 
L 255.032924 446.704783 
L 291.50172 425.080603 
L 361.544963 383.816005 
L 514.945455 293.768901 
L 686.290909 193.330035 
L 686.290909 193.330035 
" style="fill:none;stroke:#000000;stroke-linecap:square;stroke-width:1.5;"/>
   </g>
   <g id="line2d_31">
    <path clip-path="url(#p97ec016315)" d="M 108 567 
L 129.418182 544.241767 
L 142.732187 530.472778 
L 151.415233 521.888194 
L 158.361671 515.479141 
L 164.150369 510.640503 
L 168.781327 507.193667 
L 173.412285 504.173422 
L 177.464373 501.852195 
L 180.937592 500.074468 
L 184.989681 498.20221 
L 189.041769 496.503989 
L 193.672727 494.724962 
L 202.355774 491.739764 
L 212.19656 488.708725 
L 223.195086 485.601081 
L 236.509091 482.095396 
L 251.559705 478.35434 
L 270.662408 473.81846 
L 294.396069 468.378897 
L 324.497297 461.655874 
L 387.015233 447.99625 
L 483.107617 427.314452 
L 633.613759 395.186406 
L 686.290909 383.977736 
L 686.290909 383.977736 
" style="fill:none;stroke:#000000;stroke-linecap:square;stroke-width:1.5;"/>
   </g>
   <g id="line2d_32">
    <path clip-path="url(#p97ec016315)" d="M 108 567 
L 128.839312 544.849943 
L 142.732187 530.488744 
L 151.415233 521.932631 
L 158.361671 515.575903 
L 163.571499 511.255462 
L 168.202457 507.859085 
L 172.254545 505.260191 
L 176.306634 503.002056 
L 179.779853 501.303076 
L 183.831941 499.551854 
L 187.884029 497.999758 
L 191.936118 496.605083 
L 200.040295 494.175156 
L 208.723342 491.927362 
L 219.142998 489.554952 
L 230.720393 487.198209 
L 244.613268 484.63797 
L 261.400491 481.802509 
L 282.239803 478.525959 
L 308.867813 474.570145 
L 341.863391 469.874887 
L 384.699754 463.969583 
L 440.850123 456.407585 
L 515.524324 446.520036 
L 617.405405 433.194926 
L 686.290909 424.247855 
L 686.290909 424.247855 
" style="fill:none;stroke:#000000;stroke-linecap:square;stroke-width:1.5;"/>
   </g>
   <g id="line2d_33">
    <path clip-path="url(#p97ec016315)" d="M 108 567 
L 503.672727 112.705714 
L 503.672727 112.705714 
" style="fill:none;stroke:#000000;stroke-linecap:square;stroke-width:1.5;"/>
   </g>
   <g id="patch_4">
    <path d="M 108 567 
L 108 77.76 
" style="fill:none;stroke:#000000;stroke-linecap:square;stroke-linejoin:miter;stroke-width:0.8;"/>
   </g>
   <g id="patch_5">
    <path d="M 777.6 567 
L 777.6 77.76 
" style="fill:none;stroke:#000000;stroke-linecap:square;stroke-linejoin:miter;stroke-width:0.8;"/>
   </g>
   <g id="patch_6">
    <path d="M 108 567 
L 777.6 567 
" style="fill:none;stroke:#000000;stroke-linecap:square;stroke-linejoin:miter;stroke-width:0.8;"/>
   </g>
   <g id="patch_7">
    <path d="M 108 77.76 
L 777.6 77.76 
" style="fill:none;stroke:#000000;stroke-linecap:square;stroke-linejoin:miter;stroke-width:0.8;"/>
   </g>
   <g id="text_1">
    <!-- $c_{T   }(m) = 45$ degree line -->
    <g transform="translate(534.109091 147.651429)scale(0.22 -0.22)">
     <defs>
      <path d="M 39.09375 37.984375 
C 37.203125 37.984375 36.296875 37.984375 34.90625 36.796875 
C 34.296875 36.296875 33.203125 34.796875 33.203125 33.203125 
C 33.203125 31.203125 34.703125 30 36.59375 30 
C 39 30 41.703125 31.9375 41.703125 35.8125 
C 41.703125 40.4375 37.09375 44 30.203125 44 
C 17.09375 44 4 29.734375 4 15.5625 
C 4 6.890625 9.40625 -1 19.59375 -1 
C 33.203125 -1 41.796875 9.71875 41.796875 11.03125 
C 41.796875 11.625 41.203125 12.125 40.796875 12.125 
C 40.5 12.125 40.40625 12.03125 39.5 11.140625 
C 33.09375 2.53125 23.59375 1 19.796875 1 
C 12.90625 1 10.703125 6.96875 10.703125 11.9375 
C 10.703125 15.4375 12.40625 25.078125 16 31.859375 
C 18.59375 36.53125 24 41.90625 30.296875 41.90625 
C 31.59375 41.90625 37.09375 41.90625 39.09375 37.984375 
z
" id="CMMI12-99"/>
      <path d="M 41.703125 61.09375 
C 42.296875 63.5 42.5 64.390625 44 64.796875 
C 44.796875 65 48.09375 65 50.203125 65 
C 60.203125 65 64.90625 64.59375 64.90625 56.78125 
C 64.90625 55.265625 64.5 51.484375 63.90625 47.765625 
L 63.796875 46.5625 
C 63.796875 46.15625 64.203125 45.5625 64.796875 45.5625 
C 65.796875 45.5625 65.796875 46.0625 66.09375 47.65625 
L 69 65.375 
C 69.203125 66.296875 69.203125 66.5 69.203125 66.796875 
C 69.203125 67.890625 68.59375 67.890625 66.59375 67.890625 
L 11.90625 67.890625 
C 9.59375 67.890625 9.5 67.796875 8.90625 66 
L 2.796875 47.96875 
C 2.703125 47.75 2.40625 46.65625 2.40625 46.5625 
C 2.40625 46.0625 2.796875 45.5625 3.40625 45.5625 
C 4.203125 45.5625 4.40625 45.953125 4.796875 47.25 
C 9 59.390625 11.09375 65 24.40625 65 
L 31.09375 65 
C 33.5 65 34.5 65 34.5 63.890625 
C 34.5 63.578125 34.5 63.390625 34 61.578125 
L 20.59375 7.796875 
C 19.59375 3.890625 19.40625 2.890625 8.796875 2.890625 
C 6.296875 2.890625 5.59375 2.890625 5.59375 1 
C 5.59375 0 6.703125 0 7.203125 0 
C 9.703125 0 12.296875 0 14.796875 0 
L 30.40625 0 
C 32.90625 0 35.59375 0 38.09375 0 
C 39.203125 0 40.203125 0 40.203125 1.890625 
C 40.203125 2.890625 39.5 2.890625 36.90625 2.890625 
C 27.90625 2.890625 27.90625 3.796875 27.90625 5.296875 
C 27.90625 5.40625 27.90625 6.109375 28.296875 7.71875 
z
" id="CMMI12-84"/>
      <path d="M 30.59375 -24.390625 
C 30.59375 -24.296875 30.59375 -24.09375 30.296875 -23.796875 
C 25.703125 -19.125 13.40625 -6.359375 13.40625 24.703125 
C 13.40625 55.765625 25.5 68.421875 30.40625 73.390625 
C 30.40625 73.5 30.59375 73.703125 30.59375 74 
C 30.59375 74.296875 30.296875 74.5 29.90625 74.5 
C 28.796875 74.5 20.296875 67.125 15.40625 56.15625 
C 10.40625 45.109375 9 34.359375 9 24.8125 
C 9 17.625 9.703125 5.484375 15.703125 -7.359375 
C 20.5 -17.734375 28.703125 -25 29.90625 -25 
C 30.40625 -25 30.59375 -24.796875 30.59375 -24.390625 
z
" id="CMR17-40"/>
      <path d="M 20.59375 29.234375 
C 20.796875 29.84375 23.296875 34.828125 27 38.015625 
C 29.59375 40.40625 33 42.015625 36.90625 42.015625 
C 40.90625 42.015625 42.296875 39.015625 42.296875 35.03125 
C 42.296875 34.421875 42.296875 32.4375 41.09375 27.734375 
L 38.59375 17.46875 
C 37.796875 14.46875 35.90625 7.078125 35.703125 5.984375 
C 35.296875 4.484375 34.703125 1.890625 34.703125 1.5 
C 34.703125 0.09375 35.796875 -1 37.296875 -1 
C 40.296875 -1 40.796875 1.296875 41.703125 4.890625 
L 47.703125 28.734375 
C 47.90625 29.53125 53.09375 42.015625 64.09375 42.015625 
C 68.09375 42.015625 69.5 39.015625 69.5 35.03125 
C 69.5 29.4375 65.59375 18.5625 63.40625 12.578125 
C 62.5 10.171875 62 8.875 62 7.078125 
C 62 2.59375 65.09375 -1 69.90625 -1 
C 79.203125 -1 82.703125 13.671875 82.703125 14.265625 
C 82.703125 14.765625 82.296875 15.171875 81.703125 15.171875 
C 80.796875 15.171875 80.703125 14.875 80.203125 13.171875 
C 77.90625 5.1875 74.203125 1 70.203125 1 
C 69.203125 1 67.59375 1 67.59375 4.203125 
C 67.59375 6.8125 68.796875 10 69.203125 11.09375 
C 71 15.90625 75.5 27.703125 75.5 33.515625 
C 75.5 39.5 72 44 64.40625 44 
C 57.703125 44 52.296875 40.21875 48.296875 34.328125 
C 48 39.71875 44.703125 44 37.203125 44 
C 28.296875 44 23.59375 37.734375 21.796875 35.234375 
C 21.5 40.90625 17.40625 44 13 44 
C 10.09375 44 7.796875 42.609375 5.90625 38.8125 
C 4.09375 35.21875 2.703125 29.140625 2.703125 28.734375 
C 2.703125 28.34375 3.09375 27.84375 3.796875 27.84375 
C 4.59375 27.84375 4.703125 27.9375 5.296875 30.234375 
C 6.796875 36.125 8.703125 42.015625 12.703125 42.015625 
C 15 42.015625 15.796875 40.40625 15.796875 37.421875 
C 15.796875 35.21875 14.796875 31.328125 14.09375 28.234375 
L 11.296875 17.46875 
C 10.90625 15.5625 9.796875 11.078125 9.296875 9.28125 
C 8.59375 6.6875 7.5 2 7.5 1.5 
C 7.5 0.09375 8.59375 -1 10.09375 -1 
C 11.296875 -1 12.703125 -0.40625 13.5 1.09375 
C 13.703125 1.59375 14.59375 5.09375 15.09375 7.078125 
L 17.296875 16.0625 
z
" id="CMMI12-109"/>
      <path d="M 26.296875 24.703125 
C 26.296875 31.875 25.59375 44.015625 19.59375 56.859375 
C 14.796875 67.234375 6.59375 74.5 5.40625 74.5 
C 5.09375 74.5 4.703125 74.390625 4.703125 73.890625 
C 4.703125 73.703125 4.796875 73.59375 4.90625 73.390625 
C 9.703125 68.40625 21.90625 55.75 21.90625 24.75 
C 21.90625 -6.359375 9.796875 -19.015625 4.90625 -24.015625 
C 4.796875 -24.203125 4.703125 -24.3125 4.703125 -24.5 
C 4.703125 -25 5.09375 -25 5.40625 -25 
C 6.5 -25 15 -17.625 19.90625 -6.65625 
C 24.90625 4.390625 26.296875 15.140625 26.296875 24.703125 
z
" id="CMR17-41"/>
      <path d="M 64.296875 31.515625 
C 65.796875 31.515625 67.296875 31.515625 67.296875 33.203125 
C 67.296875 35 65.59375 35 63.90625 35 
L 8 35 
C 6.296875 35 4.59375 35 4.59375 33.203125 
C 4.59375 31.515625 6.09375 31.515625 7.59375 31.515625 
z
M 63.90625 14 
C 65.59375 14 67.296875 14 67.296875 15.796875 
C 67.296875 17.484375 65.796875 17.484375 64.296875 17.484375 
L 7.59375 17.484375 
C 6.09375 17.484375 4.59375 17.484375 4.59375 15.796875 
C 4.59375 14 6.296875 14 8 14 
z
" id="CMR17-61"/>
      <path d="M 33.59375 64.40625 
C 33.59375 66.5 33.5 66.5 31.703125 66.5 
L 2 19.59375 
L 2 17 
L 27.796875 17 
L 27.796875 7.140625 
C 27.796875 3.5 27.59375 2.5 20.59375 2.5 
L 18.703125 2.5 
L 18.703125 0 
C 21.90625 0 27.296875 0 30.703125 0 
C 34.09375 0 39.5 0 42.703125 0 
L 42.703125 2.5 
L 40.796875 2.5 
C 33.796875 2.5 33.59375 3.5 33.59375 7.140625 
L 33.59375 17 
L 43.796875 17 
L 43.796875 19.59375 
L 33.59375 19.59375 
z
M 28.09375 57.859375 
L 28.09375 19.59375 
L 4 19.59375 
z
" id="CMR17-52"/>
      <path d="M 11.40625 57.6875 
C 12.40625 57.28125 16.5 56 20.703125 56 
C 30 56 35.09375 61.109375 38 64.0625 
C 38 64.953125 38 65.5 37.40625 65.5 
C 37.296875 65.5 37.09375 65.5 36.296875 65.046875 
C 32.796875 63.40625 28.703125 62.078125 23.703125 62.078125 
C 20.703125 62.078125 16.203125 62.484375 11.296875 64.671875 
C 10.203125 65.171875 10 65.171875 9.90625 65.171875 
C 9.40625 65.171875 9.296875 65.0625 9.296875 63.078125 
L 9.296875 34.421875 
C 9.296875 32.640625 9.296875 32.140625 10.296875 32.140625 
C 10.796875 32.140625 11 32.34375 11.5 33.03125 
C 14.703125 37.515625 19.09375 39.40625 24.09375 39.40625 
C 27.59375 39.40625 35.09375 37.21875 35.09375 20.140625 
C 35.09375 16.953125 35.09375 11.171875 32.09375 6.578125 
C 29.59375 2.484375 25.703125 0.390625 21.40625 0.390625 
C 14.796875 0.390625 8.09375 5 6.296875 12.71875 
C 6.703125 12.609375 7.5 12.421875 7.90625 12.421875 
C 9.203125 12.421875 11.703125 13.125 11.703125 16.21875 
C 11.703125 18.90625 9.796875 20 7.90625 20 
C 5.59375 20 4.09375 18.59375 4.09375 15.796875 
C 4.09375 7.09375 11 -2 21.59375 -2 
C 31.90625 -2 41.703125 6.875 41.703125 19.75 
C 41.703125 31.71875 33.90625 41 24.203125 41 
C 19.09375 41 14.796875 39.109375 11.40625 35.53125 
z
" id="CMR17-53"/>
      <path d="M 29.40625 68.703125 
L 29.40625 66.5 
L 30.5 66.5 
C 33.59375 66.5 35.296875 65.59375 35.296875 61.796875 
L 35.203125 36.296875 
C 33.296875 40.890625 27.59375 44 22.796875 44 
C 11.09375 44 4.203125 32.0625 4.203125 21.453125 
C 4.203125 11.421875 10.203125 0 20.90625 0 
L 21.796875 0 
C 27.203125 0 33.09375 3.1875 35.09375 7.921875 
L 35.203125 0 
L 45.203125 0 
L 45.203125 2.5 
L 44 2.5 
C 40.703125 2.5 39.296875 3.703125 39.296875 7.203125 
L 39.296875 69.796875 
z
M 9.296875 19.453125 
L 9.296875 20.953125 
C 9.296875 27.859375 10.296875 36.09375 16.5 40.515625 
C 18.59375 42.015625 21 42.8125 23.40625 42.8125 
C 29.09375 42.8125 35.296875 37.390625 35.296875 31.578125 
C 35.296875 30.484375 35.203125 29.28125 35.203125 28.1875 
L 35.203125 12.03125 
C 35.203125 6.625 28.296875 0.90625 22.5 0.90625 
C 14.796875 0.90625 10.59375 8.71875 9.703125 15.328125 
C 9.5 16.75 9.5 18.046875 9.296875 19.453125 
z
" id="Computer_Modern_Roman-100"/>
      <path d="M 8.796875 23.8125 
L 35.09375 23.8125 
C 35.296875 23.8125 35.703125 23.703125 36.09375 23.703125 
C 36.796875 23.703125 37.09375 24.109375 37.09375 24.703125 
C 37.09375 33.65625 32.796875 44 21.59375 44 
C 9.59375 44 3.703125 31.734375 3.703125 21.953125 
C 3.703125 12.15625 9.203125 1.09375 21.09375 -0.40625 
C 21.5 -0.40625 21.90625 -0.5 22.296875 -0.5 
C 29.203125 -0.5 34.5 4.265625 36.796875 10.71875 
C 36.90625 11.015625 37 11.40625 37 11.703125 
C 37 12 36.90625 12.296875 36.5 12.296875 
C 35.5 12.296875 35.40625 10.71875 35.09375 9.8125 
C 33.09375 5.0625 28.796875 0.890625 23.203125 0.890625 
C 19 0.890625 15 3.28125 12.703125 6.640625 
C 9 11.59375 8.796875 17.953125 8.796875 23.8125 
z
M 8.90625 25 
C 9.09375 32.859375 13 42.8125 21.40625 42.8125 
C 28.40625 42.8125 31.40625 35.375 32.203125 29.53125 
C 32.296875 28.015625 32.296875 26.515625 32.5 25 
z
" id="Computer_Modern_Roman-101"/>
      <path d="M 10.296875 19.5625 
L 10.296875 19.46875 
C 8.296875 17.484375 7.40625 14.203125 7.40625 11.421875 
C 7.40625 7.859375 8.90625 5.59375 11.703125 3.40625 
C 7 2.609375 2.40625 -2.03125 2.40625 -7.140625 
C 2.40625 -15.6875 14 -19.5 22.203125 -19.5 
C 30.203125 -19.5 42.203125 -16.484375 42.203125 -6.546875 
C 42.203125 -1.03125 38.5 3.1875 33.40625 4.796875 
C 29.796875 6 25.90625 6 22.09375 6 
L 19.09375 6 
C 18.203125 6 17.296875 6 16.40625 6 
C 11.59375 6 9.09375 9.0625 9.09375 13.25 
C 9.09375 15.078125 10.09375 18.75 11.09375 18.75 
L 11.203125 18.75 
C 11.796875 18.75 13.59375 17.28125 14.796875 16.796875 
C 16.40625 16.109375 18.09375 15.8125 19.90625 15.8125 
C 28.203125 15.8125 33.5 22.84375 33.5 29.96875 
C 33.5 33.203125 32.296875 37.109375 29.90625 39.453125 
L 29.90625 39.5625 
C 32.59375 41.859375 35.40625 43.8125 38.90625 43.8125 
C 39.59375 43.8125 40.296875 43.65625 41 43.296875 
C 40.40625 42.875 39.90625 42.25 39.90625 41.421875 
C 39.90625 40.375 40.796875 39.640625 41.703125 39.640625 
C 42.90625 39.640625 43.5 40.5 43.5 41.46875 
C 43.5 44.03125 41.09375 45 39.09375 45 
C 35.796875 45 32.59375 43.453125 30 41.15625 
C 29.796875 40.9375 29.40625 40.609375 29.09375 40.609375 
C 28.5 40.609375 26.5 42.28125 25.203125 42.953125 
C 23.5 43.640625 21.703125 44.046875 19.90625 44.046875 
C 11.59375 44.046875 6.203125 36.8125 6.203125 29.671875 
C 6.203125 26.296875 7.5 21.84375 10.296875 19.5625 
z
M 5.59375 -7.953125 
L 5.59375 -7.15625 
C 5.59375 -3.421875 7.90625 0.28125 11.203125 1.796875 
C 12.90625 2.609375 14.703125 2.609375 16.59375 2.609375 
L 24.90625 2.609375 
C 30.59375 2.609375 39.09375 0.609375 39.09375 -7.1875 
C 39.09375 -15 28.90625 -18.3125 22.40625 -18.3125 
C 15.703125 -18.3125 6.59375 -15.1875 5.59375 -7.953125 
z
M 11.09375 27.921875 
L 11.09375 29.1875 
C 11.09375 34.5625 12.296875 42.765625 19.796875 42.765625 
C 26.296875 42.765625 28.59375 36.3125 28.59375 30.265625 
C 28.59375 26.078125 28.203125 20.609375 23.796875 18.171875 
C 22.59375 17.390625 21.203125 17 19.90625 17 
C 14 17 11.703125 22.65625 11.09375 27.921875 
z
" id="Computer_Modern_Roman-103"/>
      <path d="M 4.5 42.90625 
L 4.5 40.703125 
L 5.5 40.703125 
C 8.703125 40.703125 10.40625 40 10.40625 35.546875 
L 10.40625 5.640625 
C 10.40625 2.40625 8 2.203125 4.5 2.203125 
L 4.5 0 
L 21.703125 0 
L 21.703125 2.203125 
L 19.703125 2.203125 
C 16.796875 2.203125 14.40625 2.5 14.40625 6.359375 
L 14.40625 21.09375 
C 14.40625 29.6875 16.203125 42.8125 25.90625 42.8125 
C 27 42.8125 28.09375 42.515625 29.09375 42.109375 
C 27.90625 41.609375 26.90625 40.796875 26.90625 39.375 
C 26.90625 37.96875 28 36.546875 29.703125 36.546875 
C 31.203125 36.546875 32.40625 37.859375 32.40625 39.359375 
C 32.40625 42.6875 28.703125 44 26 44 
C 19.90625 44 15.296875 38.046875 14.40625 32.5 
L 14.296875 44 
z
" id="Computer_Modern_Roman-114"/>
      <path d="M 4.796875 68.203125 
L 4.796875 66 
L 6 66 
C 9.5 66 10.59375 64.390625 10.59375 61.109375 
L 10.59375 5.8125 
C 10.59375 2.8125 9.296875 2.203125 4.796875 2.203125 
L 4.796875 0 
L 20.40625 0 
L 20.40625 2.203125 
L 18.796875 2.203125 
C 16.59375 2.203125 14.59375 2.5 14.59375 5.703125 
L 14.59375 69.296875 
z
" id="Computer_Modern_Roman-108"/>
      <path d="M 5.09375 42.734375 
L 5.09375 40.515625 
L 5.59375 40.515625 
C 8.796875 40.515625 10.59375 40.015625 10.59375 35.171875 
L 10.59375 5.625 
C 10.59375 2.40625 8.296875 2.203125 4.796875 2.203125 
L 4.796875 0 
L 19.90625 0 
L 19.90625 2.203125 
L 18.59375 2.203125 
C 16.5 2.203125 14.59375 2.40625 14.59375 5.828125 
L 14.59375 43.828125 
z
M 10.90625 65 
C 9.296875 65 8.296875 63.203125 8.296875 61.90625 
C 8.296875 60.40625 9.5 58.609375 11.40625 58.609375 
C 13.40625 58.609375 14.59375 60.265625 14.59375 61.75 
C 14.59375 63.21875 13.40625 65 11.5 65 
C 11.296875 65 11.09375 65 10.90625 65 
z
" id="Computer_Modern_Roman-105"/>
      <path d="M 4.703125 42.90625 
L 4.703125 40.703125 
L 5.703125 40.703125 
C 8.90625 40.703125 10.59375 40 10.59375 35.546875 
L 10.59375 5.640625 
C 10.59375 2.40625 8.203125 2.203125 4.703125 2.203125 
L 4.703125 0 
L 20.59375 0 
L 20.59375 2.203125 
L 19.203125 2.203125 
C 16.90625 2.203125 14.703125 2.5 14.703125 5.640625 
L 14.703125 27.765625 
C 15.296875 34.640625 18.796875 42.8125 26.703125 42.8125 
C 33 42.8125 35.40625 37.765625 35.40625 30.484375 
L 35.40625 5.640625 
C 35.40625 2.40625 33 2.203125 29.5 2.203125 
L 29.5 0 
L 45.40625 0 
L 45.40625 2.203125 
L 43.796875 2.203125 
C 41.5 2.203125 39.5 2.5 39.5 6.03125 
L 39.5 29.453125 
C 39.5 35.921875 38.296875 44 27.5 44 
C 22.09375 44 18.40625 41.078125 16 36.75 
C 15.40625 35.640625 14.796875 34.4375 14.59375 33.21875 
L 14.5 44 
z
" id="Computer_Modern_Roman-110"/>
     </defs>
     <use transform="scale(0.996264)" xlink:href="#CMMI12-99"/>
     <use transform="translate(41.983234 -14.943915)scale(0.697382)" xlink:href="#CMMI12-84"/>
     <use transform="translate(91.987688 0)scale(0.996264)" xlink:href="#CMR17-40"/>
     <use transform="translate(127.268456 0)scale(0.996264)" xlink:href="#CMMI12-109"/>
     <use transform="translate(212.59568 0)scale(0.996264)" xlink:href="#CMR17-41"/>
     <use transform="translate(275.550457 0)scale(0.996264)" xlink:href="#CMR17-61"/>
     <use transform="translate(374.939254 0)scale(0.996264)" xlink:href="#CMR17-52"/>
     <use transform="translate(420.629731 0)scale(0.996264)" xlink:href="#CMR17-53"/>
     <use transform="translate(496.018501 0)scale(0.996264)" xlink:href="#Computer_Modern_Roman-100"/>
     <use transform="translate(545.556929 0)scale(0.996264)" xlink:href="#Computer_Modern_Roman-101"/>
     <use transform="translate(585.175328 0)scale(0.996264)" xlink:href="#Computer_Modern_Roman-103"/>
     <use transform="translate(629.753795 0)scale(0.996264)" xlink:href="#Computer_Modern_Roman-114"/>
     <use transform="translate(664.412141 0)scale(0.996264)" xlink:href="#Computer_Modern_Roman-101"/>
     <use transform="translate(704.03054 0)scale(0.996264)" xlink:href="#Computer_Modern_Roman-101"/>
     <use transform="translate(773.347232 0)scale(0.996264)" xlink:href="#Computer_Modern_Roman-108"/>
     <use transform="translate(798.085564 0)scale(0.996264)" xlink:href="#Computer_Modern_Roman-105"/>
     <use transform="translate(822.823895 0)scale(0.996264)" xlink:href="#Computer_Modern_Roman-110"/>
     <use transform="translate(872.362324 0)scale(0.996264)" xlink:href="#Computer_Modern_Roman-101"/>
    </g>
   </g>
   <g id="text_2">
    <!-- $c_{T-1 }(m)$ -->
    <g transform="translate(692.378182 196.575429)scale(0.22 -0.22)">
     <defs>
      <path d="M 65.90625 23 
C 67.59375 23 69.40625 23 69.40625 25 
C 69.40625 27 67.59375 27 65.90625 27 
L 11.796875 27 
C 10.09375 27 8.296875 27 8.296875 25 
C 8.296875 23 10.09375 23 11.796875 23 
z
" id="CMSY10-0"/>
      <path d="M 26.59375 63.40625 
C 26.59375 65.5 26.5 65.5 25.09375 65.5 
C 21.203125 61.1875 15.296875 59.796875 9.703125 59.796875 
C 9.40625 59.796875 8.90625 59.796875 8.796875 59.5 
C 8.703125 59.296875 8.703125 59.09375 8.703125 57 
C 11.796875 57 17 57.59375 21 59.984375 
L 21 7.203125 
C 21 3.6875 20.796875 2.5 12.203125 2.5 
L 9.203125 2.5 
L 9.203125 0 
C 14 0 19 0 23.796875 0 
C 28.59375 0 33.59375 0 38.40625 0 
L 38.40625 2.5 
L 35.40625 2.5 
C 26.796875 2.5 26.59375 3.59375 26.59375 7.15625 
z
" id="CMR17-49"/>
     </defs>
     <use transform="scale(0.996264)" xlink:href="#CMMI12-99"/>
     <use transform="translate(41.983234 -14.943915)scale(0.697382)" xlink:href="#CMMI12-84"/>
     <use transform="translate(91.489556 -14.943915)scale(0.697382)" xlink:href="#CMSY10-0"/>
     <use transform="translate(145.730549 -14.943915)scale(0.697382)" xlink:href="#CMR17-49"/>
     <use transform="translate(178.211863 0)scale(0.996264)" xlink:href="#CMR17-40"/>
     <use transform="translate(213.492631 0)scale(0.996264)" xlink:href="#CMMI12-109"/>
     <use transform="translate(298.819855 0)scale(0.996264)" xlink:href="#CMR17-41"/>
    </g>
   </g>
   <g id="text_3">
    <!-- $c_{T-5 }(m)$ -->
    <g transform="translate(692.378182 385.282286)scale(0.22 -0.22)">
     <use transform="scale(0.996264)" xlink:href="#CMMI12-99"/>
     <use transform="translate(41.983234 -14.943915)scale(0.697382)" xlink:href="#CMMI12-84"/>
     <use transform="translate(91.489556 -14.943915)scale(0.697382)" xlink:href="#CMSY10-0"/>
     <use transform="translate(145.730549 -14.943915)scale(0.697382)" xlink:href="#CMR17-53"/>
     <use transform="translate(178.211863 0)scale(0.996264)" xlink:href="#CMR17-40"/>
     <use transform="translate(213.492631 0)scale(0.996264)" xlink:href="#CMMI12-109"/>
     <use transform="translate(298.819855 0)scale(0.996264)" xlink:href="#CMR17-41"/>
    </g>
   </g>
   <g id="text_4">
    <!-- $c_{T-10}(m)$ -->
    <g transform="translate(692.378182 420.228)scale(0.22 -0.22)">
     <defs>
      <path d="M 42 31.640625 
C 42 37.75 41.90625 48.125 37.703125 56.109375 
C 34 63.109375 28.09375 65.59375 22.90625 65.59375 
C 18.09375 65.59375 12 63.40625 8.203125 56.203125 
C 4.203125 48.71875 3.796875 39.4375 3.796875 31.640625 
C 3.796875 25.953125 3.90625 17.28125 7 9.671875 
C 11.296875 -0.609375 19 -2 22.90625 -2 
C 27.5 -2 34.5 -0.109375 38.59375 9.375 
C 41.59375 16.28125 42 24.359375 42 31.640625 
z
M 22.90625 -0.40625 
C 16.5 -0.40625 12.703125 5.078125 11.296875 12.6875 
C 10.203125 18.5625 10.203125 27.15625 10.203125 32.75 
C 10.203125 40.4375 10.203125 46.828125 11.5 52.921875 
C 13.40625 61.390625 19 64 22.90625 64 
C 27 64 32.296875 61.296875 34.203125 53.125 
C 35.5 47.4375 35.59375 40.734375 35.59375 32.75 
C 35.59375 26.25 35.59375 18.265625 34.40625 12.375 
C 32.296875 1.484375 26.40625 -0.40625 22.90625 -0.40625 
z
" id="CMR17-48"/>
     </defs>
     <use transform="scale(0.996264)" xlink:href="#CMMI12-99"/>
     <use transform="translate(41.983234 -14.943915)scale(0.697382)" xlink:href="#CMMI12-84"/>
     <use transform="translate(91.489556 -14.943915)scale(0.697382)" xlink:href="#CMSY10-0"/>
     <use transform="translate(145.730549 -14.943915)scale(0.697382)" xlink:href="#CMR17-49"/>
     <use transform="translate(177.713731 -14.943915)scale(0.697382)" xlink:href="#CMR17-48"/>
     <use transform="translate(210.195045 0)scale(0.996264)" xlink:href="#CMR17-40"/>
     <use transform="translate(245.475813 0)scale(0.996264)" xlink:href="#CMMI12-109"/>
     <use transform="translate(330.803037 0)scale(0.996264)" xlink:href="#CMR17-41"/>
    </g>
   </g>
   <g id="text_5">
    <!-- $c(m)       $ -->
    <g transform="translate(692.378182 448.184571)scale(0.22 -0.22)">
     <use transform="scale(0.996264)" xlink:href="#CMMI12-99"/>
     <use transform="translate(41.983234 0)scale(0.996264)" xlink:href="#CMR17-40"/>
     <use transform="translate(77.264001 0)scale(0.996264)" xlink:href="#CMMI12-109"/>
     <use transform="translate(162.591226 0)scale(0.996264)" xlink:href="#CMR17-41"/>
    </g>
   </g>
   <g id="text_6">
    <!-- $c$ -->
    <g transform="translate(108 74.265429)scale(0.26 -0.26)">
     <use transform="scale(0.996264)" xlink:href="#CMMI12-99"/>
    </g>
   </g>
   <g id="text_7">
    <!-- $m$ -->
    <g transform="translate(783.687273 567)scale(0.26 -0.26)">
     <use transform="scale(0.996264)" xlink:href="#CMMI12-109"/>
    </g>
   </g>
  </g>
 </g>
 <defs>
  <clipPath id="p97ec016315">
   <rect height="489.24" width="669.6" x="108" y="77.76"/>
  </clipPath>
 </defs>
</svg>
