<?xml version="1.0" encoding="utf-8" standalone="no"?>
<!DOCTYPE svg PUBLIC "-//W3C//DTD SVG 1.1//EN"
  "http://www.w3.org/Graphics/SVG/1.1/DTD/svg11.dtd">
<!-- Created with matplotlib (https://matplotlib.org/) -->
<svg height="576pt" version="1.1" viewBox="0 0 864 576" width="864pt" xmlns="http://www.w3.org/2000/svg" xmlns:xlink="http://www.w3.org/1999/xlink">
 <metadata>
  <rdf:RDF xmlns:cc="http://creativecommons.org/ns#" xmlns:dc="http://purl.org/dc/elements/1.1/" xmlns:rdf="http://www.w3.org/1999/02/22-rdf-syntax-ns#">
   <cc:Work>
    <dc:type rdf:resource="http://purl.org/dc/dcmitype/StillImage"/>
    <dc:date>2021-08-22T23:55:44.857515</dc:date>
    <dc:format>image/svg+xml</dc:format>
    <dc:creator>
     <cc:Agent>
      <dc:title>Matplotlib v3.3.2, https://matplotlib.org/</dc:title>
     </cc:Agent>
    </dc:creator>
   </cc:Work>
  </rdf:RDF>
 </metadata>
 <defs>
  <style type="text/css">*{stroke-linecap:butt;stroke-linejoin:round;}</style>
 </defs>
 <g id="figure_1">
  <g id="patch_1">
   <path d="M 0 576 
L 864 576 
L 864 0 
L 0 0 
z
" style="fill:none;"/>
  </g>
  <g id="axes_1">
   <g id="patch_2">
    <path d="M 108 504 
L 777.6 504 
L 777.6 69.12 
L 108 69.12 
z
" style="fill:#ffffff;"/>
   </g>
   <g id="patch_3">
    <path clip-path="url(#pc99bf25d80)" d="M 160.2288 409.203783 
L 162.262757 407.25626 
L 162.23653 409.425093 
L 173.621335 410.931413 
L 173.620265 411.019937 
L 162.23546 409.513617 
L 162.209232 411.68245 
z
" style="stroke:#000000;stroke-linejoin:miter;"/>
   </g>
   <g id="patch_4">
    <path clip-path="url(#pc99bf25d80)" d="M 140.1408 195.253879 
L 142.24191 194.385138 
L 142.113217 196.513554 
L 153.535426 204.069902 
L 153.530174 204.156776 
L 142.107964 196.600428 
L 141.979271 198.728845 
z
" style="stroke:#000000;stroke-linejoin:miter;"/>
   </g>
   <g id="patch_5">
    <path clip-path="url(#pc99bf25d80)" d="M 407.9808 168.438743 
L 412.074113 164.846596 
L 412.003107 168.604534 
L 429.420531 172.205307 
L 429.395469 173.531638 
L 411.978045 169.930865 
L 411.907039 173.688803 
z
" style="stroke:#000000;stroke-linejoin:miter;"/>
   </g>
   <g id="patch_6">
    <path clip-path="url(#pc99bf25d80)" d="M 256.6512 56.597295 
L 258.66 54.38243 
L 258.66 56.552997 
L 267.3648 56.552997 
L 267.3648 56.641592 
L 258.66 56.641592 
L 258.66 58.81216 
z
" style="stroke:#000000;stroke-linejoin:miter;"/>
   </g>
   <g id="patch_7">
    <path clip-path="url(#pc99bf25d80)" d="M 496.368 450.843243 
L 494.26689 451.711984 
L 494.395583 449.583568 
L 482.973374 442.027221 
L 482.978626 441.940346 
L 494.400836 449.496694 
L 494.529529 447.368277 
z
" style="stroke:#000000;stroke-linejoin:miter;"/>
   </g>
   <g id="matplotlib.axis_1">
    <g id="xtick_1">
     <g id="line2d_1">
      <defs>
       <path d="M 0 0 
L 0 3.5 
" id="m3ead91a618" style="stroke:#000000;stroke-width:0.8;"/>
      </defs>
      <g>
       <use style="stroke:#000000;stroke-width:0.8;" x="108" xlink:href="#m3ead91a618" y="504"/>
      </g>
     </g>
     <g id="line2d_2">
      <defs>
       <path d="M 0 0 
L 0 -3.5 
" id="m82ef75a18d" style="stroke:#000000;stroke-width:0.8;"/>
      </defs>
      <g>
       <use style="stroke:#000000;stroke-width:0.8;" x="108" xlink:href="#m82ef75a18d" y="69.12"/>
      </g>
     </g>
    </g>
    <g id="xtick_2">
     <g id="line2d_3">
      <g>
       <use style="stroke:#000000;stroke-width:0.8;" x="241.92" xlink:href="#m3ead91a618" y="504"/>
      </g>
     </g>
     <g id="line2d_4">
      <g>
       <use style="stroke:#000000;stroke-width:0.8;" x="241.92" xlink:href="#m82ef75a18d" y="69.12"/>
      </g>
     </g>
    </g>
    <g id="xtick_3">
     <g id="line2d_5">
      <g>
       <use style="stroke:#000000;stroke-width:0.8;" x="375.84" xlink:href="#m3ead91a618" y="504"/>
      </g>
     </g>
     <g id="line2d_6">
      <g>
       <use style="stroke:#000000;stroke-width:0.8;" x="375.84" xlink:href="#m82ef75a18d" y="69.12"/>
      </g>
     </g>
    </g>
    <g id="xtick_4">
     <g id="line2d_7">
      <g>
       <use style="stroke:#000000;stroke-width:0.8;" x="509.76" xlink:href="#m3ead91a618" y="504"/>
      </g>
     </g>
     <g id="line2d_8">
      <g>
       <use style="stroke:#000000;stroke-width:0.8;" x="509.76" xlink:href="#m82ef75a18d" y="69.12"/>
      </g>
     </g>
    </g>
    <g id="xtick_5">
     <g id="line2d_9">
      <g>
       <use style="stroke:#000000;stroke-width:0.8;" x="643.68" xlink:href="#m3ead91a618" y="504"/>
      </g>
     </g>
     <g id="line2d_10">
      <g>
       <use style="stroke:#000000;stroke-width:0.8;" x="643.68" xlink:href="#m82ef75a18d" y="69.12"/>
      </g>
     </g>
    </g>
    <g id="xtick_6">
     <g id="line2d_11">
      <g>
       <use style="stroke:#000000;stroke-width:0.8;" x="777.6" xlink:href="#m3ead91a618" y="504"/>
      </g>
     </g>
     <g id="line2d_12">
      <g>
       <use style="stroke:#000000;stroke-width:0.8;" x="777.6" xlink:href="#m82ef75a18d" y="69.12"/>
      </g>
     </g>
    </g>
   </g>
   <g id="matplotlib.axis_2">
    <g id="ytick_1">
     <g id="line2d_13">
      <defs>
       <path d="M 0 0 
L -3.5 0 
" id="m373fb41b80" style="stroke:#000000;stroke-width:0.8;"/>
      </defs>
      <g>
       <use style="stroke:#000000;stroke-width:0.8;" x="108" xlink:href="#m373fb41b80" y="504"/>
      </g>
     </g>
     <g id="line2d_14">
      <defs>
       <path d="M 0 0 
L 3.5 0 
" id="meeb75b5963" style="stroke:#000000;stroke-width:0.8;"/>
      </defs>
      <g>
       <use style="stroke:#000000;stroke-width:0.8;" x="777.6" xlink:href="#meeb75b5963" y="504"/>
      </g>
     </g>
    </g>
    <g id="ytick_2">
     <g id="line2d_15">
      <g>
       <use style="stroke:#000000;stroke-width:0.8;" x="108" xlink:href="#m373fb41b80" y="415.405405"/>
      </g>
     </g>
     <g id="line2d_16">
      <g>
       <use style="stroke:#000000;stroke-width:0.8;" x="777.6" xlink:href="#meeb75b5963" y="415.405405"/>
      </g>
     </g>
    </g>
    <g id="ytick_3">
     <g id="line2d_17">
      <g>
       <use style="stroke:#000000;stroke-width:0.8;" x="108" xlink:href="#m373fb41b80" y="326.81081"/>
      </g>
     </g>
     <g id="line2d_18">
      <g>
       <use style="stroke:#000000;stroke-width:0.8;" x="777.6" xlink:href="#meeb75b5963" y="326.81081"/>
      </g>
     </g>
    </g>
    <g id="ytick_4">
     <g id="line2d_19">
      <g>
       <use style="stroke:#000000;stroke-width:0.8;" x="108" xlink:href="#m373fb41b80" y="238.216215"/>
      </g>
     </g>
     <g id="line2d_20">
      <g>
       <use style="stroke:#000000;stroke-width:0.8;" x="777.6" xlink:href="#meeb75b5963" y="238.216215"/>
      </g>
     </g>
    </g>
    <g id="ytick_5">
     <g id="line2d_21">
      <g>
       <use style="stroke:#000000;stroke-width:0.8;" x="108" xlink:href="#m373fb41b80" y="149.62162"/>
      </g>
     </g>
     <g id="line2d_22">
      <g>
       <use style="stroke:#000000;stroke-width:0.8;" x="777.6" xlink:href="#meeb75b5963" y="149.62162"/>
      </g>
     </g>
    </g>
   </g>
   <g id="line2d_23">
    <path clip-path="url(#pc99bf25d80)" d="M 108 504 
L 120.064865 467.139748 
L 125.427027 451.466772 
L 128.778378 442.291805 
L 131.459459 435.583113 
L 133.47027 431.086967 
L 135.481081 427.148352 
L 137.491892 423.782867 
L 139.502703 420.930207 
L 141.513514 418.492919 
L 143.524324 416.377029 
L 146.205405 413.929144 
L 148.886486 411.796198 
L 152.237838 409.450529 
L 155.589189 407.367832 
L 159.610811 405.127646 
L 164.302703 402.786366 
L 169.664865 400.382648 
L 175.697297 397.935091 
L 183.07027 395.209931 
L 191.113514 392.478557 
L 200.497297 389.524143 
L 211.891892 386.184221 
L 224.627027 382.689622 
L 239.372973 378.87789 
L 256.12973 374.777316 
L 275.567568 370.254838 
L 297.686486 365.343158 
L 322.486486 360.065311 
L 350.637838 354.302625 
L 382.810811 347.949502 
L 419.005405 341.035585 
L 459.891892 333.460225 
L 506.140541 325.129584 
L 558.421622 315.95432 
L 616.735135 305.959442 
L 683.762162 294.705106 
L 777.6 279.175671 
L 777.6 279.175671 
" style="fill:none;stroke:#000000;stroke-linecap:square;stroke-width:1.5;"/>
   </g>
   <g id="line2d_24">
    <path clip-path="url(#pc99bf25d80)" d="M 108 191.551339 
L 213.251121 179.630887 
L 213.251121 179.630887 
" style="fill:none;stroke:#000000;stroke-dasharray:5.55,2.4;stroke-dashoffset:0;stroke-width:1.5;"/>
   </g>
   <g id="line2d_25">
    <path clip-path="url(#pc99bf25d80)" d="M 213.251121 179.630887 
L 777.6 115.714286 
L 777.6 115.714286 
" style="fill:none;stroke:#000000;stroke-linecap:square;stroke-width:2.5;"/>
   </g>
   <g id="line2d_26">
    <path clip-path="url(#pc99bf25d80)" d="M 108 504 
L 213.251121 179.630887 
L 213.251121 179.630887 
" style="fill:none;stroke:#000000;stroke-linecap:square;stroke-width:2.5;"/>
   </g>
   <g id="line2d_27">
    <path clip-path="url(#pc99bf25d80)" d="M 213.251121 179.630887 
L 271.862138 -1 
L 271.862138 -1 
" style="fill:none;stroke:#000000;stroke-dasharray:5.55,2.4;stroke-dashoffset:0;stroke-width:1.5;"/>
   </g>
   <g id="line2d_28">
    <path clip-path="url(#pc99bf25d80)" d="M 108 504 
L 213.251121 492.079548 
L 213.251121 492.079548 
" style="fill:none;stroke:#000000;stroke-linecap:square;stroke-width:2.5;"/>
   </g>
   <g id="line2d_29">
    <path clip-path="url(#pc99bf25d80)" d="M 213.251121 492.079548 
L 777.6 428.162946 
L 777.6 428.162946 
" style="fill:none;stroke:#000000;stroke-linecap:square;stroke-width:2.5;"/>
   </g>
   <g id="patch_8">
    <path d="M 108 504 
L 108 69.12 
" style="fill:none;stroke:#000000;stroke-linecap:square;stroke-linejoin:miter;stroke-width:0.8;"/>
   </g>
   <g id="patch_9">
    <path d="M 777.6 504 
L 777.6 69.12 
" style="fill:none;stroke:#000000;stroke-linecap:square;stroke-linejoin:miter;stroke-width:0.8;"/>
   </g>
   <g id="patch_10">
    <path d="M 108 504 
L 777.6 504 
" style="fill:none;stroke:#000000;stroke-linecap:square;stroke-linejoin:miter;stroke-width:0.8;"/>
   </g>
   <g id="patch_11">
    <path d="M 108 69.12 
L 777.6 69.12 
" style="fill:none;stroke:#000000;stroke-linecap:square;stroke-linejoin:miter;stroke-width:0.8;"/>
   </g>
   <g id="text_1">
    <!-- $c$ -->
    <g transform="translate(108 64.69027)scale(0.22 -0.22)">
     <defs>
      <path d="M 39.09375 37.984375 
C 37.203125 37.984375 36.296875 37.984375 34.90625 36.796875 
C 34.296875 36.296875 33.203125 34.796875 33.203125 33.203125 
C 33.203125 31.203125 34.703125 30 36.59375 30 
C 39 30 41.703125 31.9375 41.703125 35.8125 
C 41.703125 40.4375 37.09375 44 30.203125 44 
C 17.09375 44 4 29.734375 4 15.5625 
C 4 6.890625 9.40625 -1 19.59375 -1 
C 33.203125 -1 41.796875 9.71875 41.796875 11.03125 
C 41.796875 11.625 41.203125 12.125 40.796875 12.125 
C 40.5 12.125 40.40625 12.03125 39.5 11.140625 
C 33.09375 2.53125 23.59375 1 19.796875 1 
C 12.90625 1 10.703125 6.96875 10.703125 11.9375 
C 10.703125 15.4375 12.40625 25.078125 16 31.859375 
C 18.59375 36.53125 24 41.90625 30.296875 41.90625 
C 31.59375 41.90625 37.09375 41.90625 39.09375 37.984375 
z
" id="CMMI12-99"/>
     </defs>
     <use transform="scale(0.996264)" xlink:href="#CMMI12-99"/>
    </g>
   </g>
   <g id="text_2">
    <!-- $m$ -->
    <g transform="translate(780.2784 504)scale(0.22 -0.22)">
     <defs>
      <path d="M 20.59375 29.234375 
C 20.796875 29.84375 23.296875 34.828125 27 38.015625 
C 29.59375 40.40625 33 42.015625 36.90625 42.015625 
C 40.90625 42.015625 42.296875 39.015625 42.296875 35.03125 
C 42.296875 34.421875 42.296875 32.4375 41.09375 27.734375 
L 38.59375 17.46875 
C 37.796875 14.46875 35.90625 7.078125 35.703125 5.984375 
C 35.296875 4.484375 34.703125 1.890625 34.703125 1.5 
C 34.703125 0.09375 35.796875 -1 37.296875 -1 
C 40.296875 -1 40.796875 1.296875 41.703125 4.890625 
L 47.703125 28.734375 
C 47.90625 29.53125 53.09375 42.015625 64.09375 42.015625 
C 68.09375 42.015625 69.5 39.015625 69.5 35.03125 
C 69.5 29.4375 65.59375 18.5625 63.40625 12.578125 
C 62.5 10.171875 62 8.875 62 7.078125 
C 62 2.59375 65.09375 -1 69.90625 -1 
C 79.203125 -1 82.703125 13.671875 82.703125 14.265625 
C 82.703125 14.765625 82.296875 15.171875 81.703125 15.171875 
C 80.796875 15.171875 80.703125 14.875 80.203125 13.171875 
C 77.90625 5.1875 74.203125 1 70.203125 1 
C 69.203125 1 67.59375 1 67.59375 4.203125 
C 67.59375 6.8125 68.796875 10 69.203125 11.09375 
C 71 15.90625 75.5 27.703125 75.5 33.515625 
C 75.5 39.5 72 44 64.40625 44 
C 57.703125 44 52.296875 40.21875 48.296875 34.328125 
C 48 39.71875 44.703125 44 37.203125 44 
C 28.296875 44 23.59375 37.734375 21.796875 35.234375 
C 21.5 40.90625 17.40625 44 13 44 
C 10.09375 44 7.796875 42.609375 5.90625 38.8125 
C 4.09375 35.21875 2.703125 29.140625 2.703125 28.734375 
C 2.703125 28.34375 3.09375 27.84375 3.796875 27.84375 
C 4.59375 27.84375 4.703125 27.9375 5.296875 30.234375 
C 6.796875 36.125 8.703125 42.015625 12.703125 42.015625 
C 15 42.015625 15.796875 40.40625 15.796875 37.421875 
C 15.796875 35.21875 14.796875 31.328125 14.09375 28.234375 
L 11.296875 17.46875 
C 10.90625 15.5625 9.796875 11.078125 9.296875 9.28125 
C 8.59375 6.6875 7.5 2 7.5 1.5 
C 7.5 0.09375 8.59375 -1 10.09375 -1 
C 11.296875 -1 12.703125 -0.40625 13.5 1.09375 
C 13.703125 1.59375 14.59375 5.09375 15.09375 7.078125 
L 17.296875 16.0625 
z
" id="CMMI12-109"/>
     </defs>
     <use transform="scale(0.996264)" xlink:href="#CMMI12-109"/>
    </g>
   </g>
   <g id="text_3">
    <!-- $c(m)$ -->
    <g transform="translate(174.96 415.405405)scale(0.22 -0.22)">
     <defs>
      <path d="M 30.59375 -24.390625 
C 30.59375 -24.296875 30.59375 -24.09375 30.296875 -23.796875 
C 25.703125 -19.125 13.40625 -6.359375 13.40625 24.703125 
C 13.40625 55.765625 25.5 68.421875 30.40625 73.390625 
C 30.40625 73.5 30.59375 73.703125 30.59375 74 
C 30.59375 74.296875 30.296875 74.5 29.90625 74.5 
C 28.796875 74.5 20.296875 67.125 15.40625 56.15625 
C 10.40625 45.109375 9 34.359375 9 24.8125 
C 9 17.625 9.703125 5.484375 15.703125 -7.359375 
C 20.5 -17.734375 28.703125 -25 29.90625 -25 
C 30.40625 -25 30.59375 -24.796875 30.59375 -24.390625 
z
" id="CMR17-40"/>
      <path d="M 26.296875 24.703125 
C 26.296875 31.875 25.59375 44.015625 19.59375 56.859375 
C 14.796875 67.234375 6.59375 74.5 5.40625 74.5 
C 5.09375 74.5 4.703125 74.390625 4.703125 73.890625 
C 4.703125 73.703125 4.796875 73.59375 4.90625 73.390625 
C 9.703125 68.40625 21.90625 55.75 21.90625 24.75 
C 21.90625 -6.359375 9.796875 -19.015625 4.90625 -24.015625 
C 4.796875 -24.203125 4.703125 -24.3125 4.703125 -24.5 
C 4.703125 -25 5.09375 -25 5.40625 -25 
C 6.5 -25 15 -17.625 19.90625 -6.65625 
C 24.90625 4.390625 26.296875 15.140625 26.296875 24.703125 
z
" id="CMR17-41"/>
     </defs>
     <use transform="scale(0.996264)" xlink:href="#CMMI12-99"/>
     <use transform="translate(41.983234 0)scale(0.996264)" xlink:href="#CMR17-40"/>
     <use transform="translate(77.264001 0)scale(0.996264)" xlink:href="#CMMI12-109"/>
     <use transform="translate(162.591226 0)scale(0.996264)" xlink:href="#CMR17-41"/>
    </g>
   </g>
   <g id="text_4">
    <!-- $~\leftarrow \overline{\overline{c}}(m)= \overline{\MPC}m = (1-\UnempPrb^{1/\CRRA}\pmb{\text{\TH}}_{R})m$ -->
    <g transform="translate(233.8848 124.29525)scale(0.22 -0.22)">
     <defs>
      <path d="M 90.796875 23 
C 92.59375 23 94.40625 23 94.40625 25 
C 94.40625 27 92.59375 27 90.796875 27 
L 16.5 27 
C 22 31.203125 24.703125 35.296875 25.5 36.59375 
C 30 43.5 30.796875 49.796875 30.796875 49.90625 
C 30.796875 51.09375 29.59375 51.09375 28.796875 51.09375 
C 27.09375 51.09375 27 50.90625 26.59375 49.09375 
C 24.296875 39.296875 18.40625 31 7.09375 26.296875 
C 6 25.90625 5.59375 25.703125 5.59375 25 
C 5.59375 24.296875 6.09375 24.09375 7.09375 23.703125 
C 17.5 19.40625 24.203125 11.59375 26.703125 0.40625 
C 27 -0.796875 27.09375 -1.09375 28.796875 -1.09375 
C 29.59375 -1.09375 30.796875 -1.09375 30.796875 0.109375 
C 30.796875 0.3125 29.90625 6.609375 25.703125 13.296875 
C 23.703125 16.296875 20.796875 19.796875 16.5 23 
z
" id="CMSY10-32"/>
      <path d="M 64.296875 31.515625 
C 65.796875 31.515625 67.296875 31.515625 67.296875 33.203125 
C 67.296875 35 65.59375 35 63.90625 35 
L 8 35 
C 6.296875 35 4.59375 35 4.59375 33.203125 
C 4.59375 31.515625 6.09375 31.515625 7.59375 31.515625 
z
M 63.90625 14 
C 65.59375 14 67.296875 14 67.296875 15.796875 
C 67.296875 17.484375 65.796875 17.484375 64.296875 17.484375 
L 7.59375 17.484375 
C 6.09375 17.484375 4.59375 17.484375 4.59375 15.796875 
C 4.59375 14 6.296875 14 8 14 
z
" id="CMR17-61"/>
      <path d="M 21.296875 25 
C 24.59375 26.78125 28.296875 29.875 30.796875 31.96875 
C 36.796875 37.140625 39 38.734375 42.796875 40.21875 
C 42.40625 39.625 42.296875 38.828125 42.296875 38.140625 
C 42.296875 35.4375 44.59375 34.9375 45.59375 34.9375 
C 48.796875 34.9375 50.59375 37.921875 50.59375 39.8125 
C 50.59375 40.40625 50.40625 43 46.90625 43 
C 40.90625 43 35 37.984375 30.59375 34.34375 
C 24.796875 29.3125 21.90625 27.15625 17.796875 25.875 
L 21.59375 41.5 
C 21.59375 43.109375 20.296875 44 19 44 
C 18.09375 44 15.90625 43.703125 15.09375 40.5 
L 5.796875 3.5 
C 5.5 2.3125 5.5 2.09375 5.5 1.5 
C 5.5 0.09375 6.59375 -1 8.09375 -1 
C 11.09375 -1 11.703125 1.65625 12.203125 3.8125 
C 12.796875 5.9375 16.90625 23 17.09375 23 
C 29.796875 23 34.09375 19.75 34.09375 14.734375 
C 34.09375 14.015625 34.09375 13.71875 33.796875 12.59375 
C 33.40625 10.65625 33.40625 9.515625 33.40625 8.90625 
C 33.40625 2.78125 37.296875 -1 42.203125 -1 
C 46.296875 -1 48.59375 1.921875 50.09375 4.546875 
C 52.203125 8.484375 53.5 14.03125 53.5 14.421875 
C 53.5 14.9375 53.09375 15.328125 52.5 15.328125 
C 51.59375 15.328125 51.5 14.9375 51.09375 13.3125 
C 49.796875 8.46875 47.59375 1 42.5 1 
C 40.296875 1 39.203125 2.3125 39.203125 5.84375 
C 39.203125 7.78125 39.59375 10.015625 40 11.515625 
C 40.203125 12.53125 40.5 13.75 40.5 14.859375 
C 40.5 24.078125 27.90625 25 21.296875 25 
z
" id="CMMI12-20"/>
      <path d="M 26.59375 63.40625 
C 26.59375 65.5 26.5 65.5 25.09375 65.5 
C 21.203125 61.1875 15.296875 59.796875 9.703125 59.796875 
C 9.40625 59.796875 8.90625 59.796875 8.796875 59.5 
C 8.703125 59.296875 8.703125 59.09375 8.703125 57 
C 11.796875 57 17 57.59375 21 59.984375 
L 21 7.203125 
C 21 3.6875 20.796875 2.5 12.203125 2.5 
L 9.203125 2.5 
L 9.203125 0 
C 14 0 19 0 23.796875 0 
C 28.59375 0 33.59375 0 38.40625 0 
L 38.40625 2.5 
L 35.40625 2.5 
C 26.796875 2.5 26.59375 3.59375 26.59375 7.15625 
z
" id="CMR17-49"/>
      <path d="M 65.90625 23 
C 67.59375 23 69.40625 23 69.40625 25 
C 69.40625 27 67.59375 27 65.90625 27 
L 11.796875 27 
C 10.09375 27 8.296875 27 8.296875 25 
C 8.296875 23 10.09375 23 11.796875 23 
z
" id="CMSY10-0"/>
      <path d="M 16.40625 12 
C 22.59375 26.25 34.296875 38.90625 47.59375 38.90625 
C 52.59375 38.90625 54.796875 34.703125 54.796875 29.203125 
C 54.796875 24.90625 52.796875 15.59375 49.59375 9.796875 
C 47.09375 5.296875 42.703125 1 38 1 
C 36 1 31.40625 1.90625 31.40625 7.390625 
C 32.796875 7.6875 33.40625 8.6875 33.40625 9.59375 
C 33.40625 10.703125 32.59375 11.296875 31.703125 11.296875 
C 29.203125 11.296875 29.203125 8.203125 29.203125 7.203125 
C 29.203125 1.703125 33.5 -1 38 -1 
C 49 -1 60.5 12.5 60.5 26.09375 
C 60.5 33.59375 56.296875 40.90625 47.796875 40.90625 
C 41.703125 40.90625 34.90625 38.59375 27.90625 32.09375 
C 24.09375 28.703125 19.90625 23.796875 14.90625 14.09375 
C 12.5 16.796875 12.5 20 12.5 21.40625 
C 12.5 28.90625 17.296875 41.75 24.203125 43.078125 
C 24.796875 43.171875 25.40625 43.265625 25.40625 44.21875 
C 25.40625 44.3125 25.40625 44.984375 24.296875 44.984375 
C 17.203125 44.984375 8.203125 31.265625 8.203125 18.53125 
C 8.203125 13.375 9.296875 11.875 12.40625 7.796875 
C 8.90625 -2.28125 7.5 -10.84375 7.5 -13.953125 
C 7.5 -18.09375 9.09375 -21.71875 13.796875 -21.71875 
C 20.40625 -21.71875 26.796875 -13.09375 26.796875 -5.359375 
C 26.796875 -1.734375 25.90625 -0.546875 22.5 4.078125 
C 21.09375 5.78125 17.703125 10.1875 16.40625 12 
z
M 13.90625 5.484375 
L 21.203125 -4.015625 
C 22.296875 -5.625 22.40625 -6.8125 22.40625 -8.21875 
C 22.40625 -14.015625 18 -19.71875 13.796875 -19.71875 
C 11 -19.71875 9.703125 -17.71875 9.703125 -13.921875 
C 9.703125 -9.3125 12.5 1.484375 13.90625 5.484375 
z
" id="CMMI12-125"/>
      <path d="M 42.90625 71.28125 
C 42.90625 71.390625 43.5 72.90625 43.5 73.09375 
C 43.5 74.296875 42.5 75 41.703125 75 
C 41.203125 75 40.296875 75 39.5 72.796875 
L 6 -21.296875 
C 6 -21.40625 5.40625 -22.890625 5.40625 -23.09375 
C 5.40625 -24.296875 6.40625 -25 7.203125 -25 
C 7.796875 -25 8.703125 -24.890625 9.40625 -22.796875 
z
" id="CMMI12-61"/>
      <path d="M 3.09375 -17.296875 
C 3 -17.796875 2.796875 -18.390625 2.796875 -19 
C 2.796875 -20.5 4 -21.5 5.5 -21.5 
C 7 -21.5 8.40625 -20.5 9 -19.09375 
C 9.40625 -18.1875 12.203125 -6.203125 15.40625 6.09375 
C 17.40625 1.09375 21.09375 -1 25 -1 
C 36.296875 -1 49.09375 12.96875 49.09375 28.046875 
C 49.09375 38.71875 42.59375 44 35.703125 44 
C 26.90625 44 16.203125 34.921875 12.90625 21.640625 
z
M 24.90625 1 
C 18.09375 1 16.40625 8.890625 16.40625 10.078125 
C 16.40625 10.6875 18.90625 20.234375 19.203125 21.734375 
C 24.296875 41.71875 34.09375 41.71875 35.59375 41.71875 
C 40.09375 41.71875 42.59375 37.65625 42.59375 31.8125 
C 42.59375 26.75 39.90625 16.9375 38.203125 12.796875 
C 35.203125 5.953125 30 1 24.90625 1 
z
" id="CMMI12-26"/>
      <path d="M 7.40625 68.203125 
L 7.40625 66 
L 9.09375 66 
C 11.703125 66 13.796875 65.703125 13.796875 61.796875 
L 13.796875 6.40625 
C 13.796875 2.5 12.09375 2.203125 7.40625 2.203125 
L 7.40625 0 
L 24.90625 0 
L 24.90625 2.203125 
L 22.90625 2.203125 
C 20.59375 2.203125 18.5 2.5 18.5 5.703125 
L 18.5 17.8125 
L 34 17.8125 
C 43.703125 18.703125 50.796875 26.921875 50.796875 36.359375 
C 50.796875 44.875 44.703125 53.296875 35.40625 54.703125 
C 33.796875 55 32.203125 55 30.59375 55 
L 18.5 55 
L 18.5 62.078125 
C 18.5 64.8125 18.90625 66 24.90625 66 
L 24.90625 68.203125 
z
M 18.5 20 
L 18.5 52.796875 
L 27.90625 52.796875 
C 32.703125 52.796875 37.40625 52.40625 41 48.078125 
C 43.796875 44.890625 45.296875 40.5625 45.296875 36.359375 
C 45.296875 29.234375 40.40625 21.109375 31.296875 20 
z
" id="Computer_Modern_Roman-222"/>
      <path d="M 36.796875 61.3125 
C 37.703125 65 38.09375 65 42 65 
L 49.203125 65 
C 57.796875 65 64.203125 62.421875 64.203125 54.671875 
C 64.203125 49.609375 61.59375 35 41.5 35 
L 30.203125 35 
z
M 50.703125 33.890625 
C 63.09375 36.578125 72.796875 44.546875 72.796875 53.09375 
C 72.796875 60.84375 64.90625 68 51 68 
L 23.90625 68 
C 21.90625 68 21 68 21 66.03125 
C 21 65 21.703125 65 23.59375 65 
C 29.59375 65 29.59375 64.25 29.59375 63.203125 
C 29.59375 63.015625 29.59375 62.40625 29.203125 60.921875 
L 15.703125 7.484375 
C 14.796875 4 14.59375 3 7.703125 3 
C 5.40625 3 4.703125 3 4.703125 1.109375 
C 4.703125 0.109375 5.796875 0.109375 6.09375 0.109375 
C 7.90625 0.109375 10 0.109375 11.90625 0.109375 
L 23.703125 0.109375 
C 25.5 0.109375 27.59375 0.109375 29.40625 0.109375 
C 30.203125 0.109375 31.296875 0.109375 31.296875 2 
C 31.296875 3 30.40625 3 28.90625 3 
C 22.796875 3 22.796875 3.796875 22.796875 4.78125 
C 22.796875 4.890625 22.796875 5.578125 23 6.359375 
L 29.703125 33 
L 41.703125 33 
C 51.203125 33 53 27.046875 53 23.78125 
C 53 22.296875 52 18.421875 51.296875 15.84375 
C 50.203125 11.296875 49.90625 10.1875 49.90625 8.3125 
C 49.90625 1.28125 55.703125 -2 62.40625 -2 
C 70.5 -2 74 7.828125 74 9.234375 
C 74 9.921875 73.5 10.21875 72.90625 10.21875 
C 72.09375 10.21875 71.90625 9.625 71.703125 8.828125 
C 69.296875 1.78125 65.203125 0 62.703125 0 
C 60.203125 0 58.59375 1.09375 58.59375 5.5625 
C 58.59375 7.953125 59.796875 17 59.90625 17.5 
C 60.40625 21.171875 60.40625 21.5625 60.40625 22.375 
C 60.40625 29.625 54.5 32.703125 50.703125 33.890625 
z
" id="CMMI12-82"/>
     </defs>
     <use transform="scale(0.996264)" xlink:href="#CMSY10-32"/>
     <use transform="translate(127.300683 0)scale(0.996264)" xlink:href="#CMMI12-99"/>
     <use transform="translate(169.283917 0)scale(0.996264)" xlink:href="#CMR17-40"/>
     <use transform="translate(204.564685 0)scale(0.996264)" xlink:href="#CMMI12-109"/>
     <use transform="translate(289.891909 0)scale(0.996264)" xlink:href="#CMR17-41"/>
     <use transform="translate(352.846686 0)scale(0.996264)" xlink:href="#CMR17-61"/>
     <use transform="translate(452.235483 0)scale(0.996264)" xlink:href="#CMMI12-20"/>
     <use transform="translate(508.390107 0)scale(0.996264)" xlink:href="#CMMI12-109"/>
     <use transform="translate(621.39134 0)scale(0.996264)" xlink:href="#CMR17-61"/>
     <use transform="translate(720.780137 0)scale(0.996264)" xlink:href="#CMR17-40"/>
     <use transform="translate(756.060905 0)scale(0.996264)" xlink:href="#CMR17-49"/>
     <use transform="translate(823.890589 0)scale(0.996264)" xlink:href="#CMSY10-0"/>
     <use transform="translate(923.517264 0)scale(0.996264)" xlink:href="#CMMI12-125"/>
     <use transform="translate(985.621759 36.153639)scale(0.697382)" xlink:href="#CMR17-49"/>
     <use transform="translate(1017.604941 36.153639)scale(0.697382)" xlink:href="#CMMI12-61"/>
     <use transform="translate(1051.747232 36.153639)scale(0.697382)" xlink:href="#CMMI12-26"/>
     <use transform="translate(1083.037426 0)scale(0.996264)" xlink:href="#Computer_Modern_Roman-222"/>
     <use transform="translate(1085.251307 2.767393)scale(0.996264)" xlink:href="#Computer_Modern_Roman-222"/>
     <use transform="translate(1087.465188 0)scale(0.996264)" xlink:href="#Computer_Modern_Roman-222"/>
     <use transform="translate(1143.174871 -14.943915)scale(0.697382)" xlink:href="#CMMI12-82"/>
     <use transform="translate(1196.222433 0)scale(0.996264)" xlink:href="#CMR17-41"/>
     <use transform="translate(1231.503201 0)scale(0.996264)" xlink:href="#CMMI12-109"/>
     <path d="M 127.300683 74.77436 
L 169.283917 74.77436 
L 169.283917 78.75931 
L 127.300683 78.75931 
L 127.300683 74.77436 
z
"/>
     <path d="M 127.300683 54.849612 
L 169.283917 54.849612 
L 169.283917 58.834561 
L 127.300683 58.834561 
L 127.300683 54.849612 
z
"/>
     <path d="M 452.235483 54.849612 
L 508.390107 54.849612 
L 508.390107 58.834561 
L 452.235483 58.834561 
L 452.235483 54.849612 
z
"/>
    </g>
   </g>
   <g id="text_5">
    <!-- Upper Bound $ = $ Min $[\overline{\overline{c}}(m),\overline{c}(m)]$ -->
    <g transform="translate(429.408 181.727932)scale(0.22 -0.22)">
     <defs>
      <path d="M 7.296875 68.203125 
L 7.296875 66 
L 9.296875 66 
C 11.59375 66 13.703125 65.703125 13.703125 62.40625 
L 13.703125 23.515625 
C 13.703125 12.65625 19.90625 -1 34.796875 -1 
C 46.5 -1 52.796875 11.671875 53.40625 21.4375 
L 53.40625 59.21875 
C 53.40625 64.390625 56.203125 66 59.796875 66 
L 59.796875 68.203125 
L 45.59375 68.203125 
L 45.59375 66 
C 49.09375 66 52 64.390625 52 59.3125 
L 52 25.828125 
C 52 18.734375 51.09375 11.375 45.703125 5.984375 
C 42.703125 3 38.5 1.203125 34.296875 1.203125 
C 27.296875 1.203125 21.703125 6.78125 19.90625 13.265625 
C 18.703125 17.25 18.59375 21.34375 18.59375 25.421875 
L 18.59375 62.3125 
C 18.59375 65.296875 19.703125 66 25 66 
L 25 68.203125 
z
" id="Computer_Modern_Roman-85"/>
      <path d="M 4.5 42.96875 
L 4.5 40.75 
L 5.796875 40.75 
C 9 40.75 10.40625 39.4375 10.40625 36.34375 
L 10.40625 -11.421875 
C 10.40625 -12.109375 10.5 -12.78125 10.5 -13.46875 
C 10.5 -16.59375 8 -16.796875 5.40625 -16.796875 
L 4.5 -16.796875 
L 4.5 -19 
L 20.40625 -19 
L 20.40625 -16.796875 
L 19 -16.796875 
C 16.703125 -16.796875 14.5 -16.5 14.5 -13.34375 
L 14.59375 7.359375 
C 16.703125 2.109375 22.796875 -0.5 27 -0.5 
C 38.09375 -0.5 45.5 10.796875 45.5 21.875 
C 45.5 31.75 39.59375 44.046875 28.09375 44.046875 
C 22.703125 44.046875 16.40625 40.625 14.5 35.90625 
L 14.40625 44.046875 
z
M 40.296875 19.96875 
C 39.796875 12.1875 35.59375 0.703125 26.703125 0.703125 
C 21.40625 0.703125 14.40625 5.453125 14.40625 11.703125 
C 14.40625 12.3125 14.5 12.921875 14.5 13.53125 
L 14.5 28.453125 
C 14.5 29.453125 14.40625 30.46875 14.40625 31.46875 
C 14.40625 37.109375 21.203125 42.765625 27.09375 42.765625 
C 36.703125 42.765625 40.40625 29.65625 40.40625 21.78125 
C 40.40625 21.171875 40.40625 20.578125 40.296875 19.96875 
z
" id="Computer_Modern_Roman-112"/>
      <path d="M 8.796875 23.8125 
L 35.09375 23.8125 
C 35.296875 23.8125 35.703125 23.703125 36.09375 23.703125 
C 36.796875 23.703125 37.09375 24.109375 37.09375 24.703125 
C 37.09375 33.65625 32.796875 44 21.59375 44 
C 9.59375 44 3.703125 31.734375 3.703125 21.953125 
C 3.703125 12.15625 9.203125 1.09375 21.09375 -0.40625 
C 21.5 -0.40625 21.90625 -0.5 22.296875 -0.5 
C 29.203125 -0.5 34.5 4.265625 36.796875 10.71875 
C 36.90625 11.015625 37 11.40625 37 11.703125 
C 37 12 36.90625 12.296875 36.5 12.296875 
C 35.5 12.296875 35.40625 10.71875 35.09375 9.8125 
C 33.09375 5.0625 28.796875 0.890625 23.203125 0.890625 
C 19 0.890625 15 3.28125 12.703125 6.640625 
C 9 11.59375 8.796875 17.953125 8.796875 23.8125 
z
M 8.90625 25 
C 9.09375 32.859375 13 42.8125 21.40625 42.8125 
C 28.40625 42.8125 31.40625 35.375 32.203125 29.53125 
C 32.296875 28.015625 32.296875 26.515625 32.5 25 
z
" id="Computer_Modern_Roman-101"/>
      <path d="M 4.5 42.90625 
L 4.5 40.703125 
L 5.5 40.703125 
C 8.703125 40.703125 10.40625 40 10.40625 35.546875 
L 10.40625 5.640625 
C 10.40625 2.40625 8 2.203125 4.5 2.203125 
L 4.5 0 
L 21.703125 0 
L 21.703125 2.203125 
L 19.703125 2.203125 
C 16.796875 2.203125 14.40625 2.5 14.40625 6.359375 
L 14.40625 21.09375 
C 14.40625 29.6875 16.203125 42.8125 25.90625 42.8125 
C 27 42.8125 28.09375 42.515625 29.09375 42.109375 
C 27.90625 41.609375 26.90625 40.796875 26.90625 39.375 
C 26.90625 37.96875 28 36.546875 29.703125 36.546875 
C 31.203125 36.546875 32.40625 37.859375 32.40625 39.359375 
C 32.40625 42.6875 28.703125 44 26 44 
C 19.90625 44 15.296875 38.046875 14.40625 32.5 
L 14.296875 44 
z
" id="Computer_Modern_Roman-114"/>
      <path d="M 7.40625 68 
L 7.40625 66.109375 
L 9.09375 66.109375 
C 11.703125 66.109375 13.796875 65.8125 13.796875 61.90625 
L 13.796875 6.5 
C 13.796875 2.59375 12.09375 2.296875 7.40625 2.296875 
L 7.40625 0 
L 32.296875 0 
C 34 0 35.59375 0 37.296875 0 
C 46.796875 0 58.40625 5.765625 58.40625 18.015625 
C 58.40625 27.671875 49.5 35.546875 39.90625 35.546875 
C 46.5 37.359375 55.90625 40.5 55.90625 51.515625 
C 55.90625 61.328125 46.703125 68 37.296875 68 
z
M 18.5 34.765625 
L 35.703125 34.765625 
C 38.59375 34.765625 41.5 34.765625 44.09375 33.265625 
C 49.5 30.390625 52.796875 24.515625 52.796875 18.53125 
C 52.796875 8.859375 44.59375 2.296875 34.796875 2.296875 
C 33.296875 2.296875 31.703125 2.296875 30.203125 2.296875 
L 21.203125 2.296875 
C 19.296875 2.296875 18.5 3.390625 18.5 5.1875 
z
M 18.5 36.046875 
L 18.5 62.8125 
C 18.5 64.609375 18.90625 66.109375 21.203125 66.109375 
L 29.796875 66.109375 
C 31.296875 66.109375 32.796875 66.109375 34.40625 66.109375 
C 41.59375 66.109375 50.5 61.90625 50.5 51.421875 
C 50.5 43.734375 44 37.546875 36.59375 36.34375 
C 35 36.046875 33.296875 36.046875 31.703125 36.046875 
z
" id="Computer_Modern_Roman-66"/>
      <path d="M 21.09375 44 
C 9.59375 42.59375 3.703125 31.90625 3.703125 21.5 
C 3.703125 10.90625 10.703125 -0.5 22.5 -0.5 
L 23.5 -0.5 
C 35 0.90625 41 11.5 41 21.59375 
C 41 31.796875 34.09375 44.09375 22.5 44.09375 
C 22 44.09375 21.59375 44 21.09375 44 
z
M 8.796875 19.90625 
L 8.796875 21.5 
C 8.796875 29 9.703125 37.421875 17.40625 41.609375 
C 18.703125 42.21875 20.203125 42.71875 21.703125 42.71875 
L 22.40625 42.71875 
C 32.09375 42.71875 35.90625 31.4375 35.90625 23.359375 
C 35.90625 15.46875 35.09375 4.203125 25.09375 1.203125 
C 24.203125 1 23.296875 0.796875 22.40625 0.796875 
C 15 0.796875 10.203125 8.203125 9.296875 15.296875 
C 9 16.796875 9 18.40625 8.796875 19.90625 
z
" id="Computer_Modern_Roman-111"/>
      <path d="M 4.703125 42.6875 
L 4.703125 40.5 
L 5.59375 40.5 
C 8.90625 40.5 10.703125 40 10.703125 34.078125 
C 10.703125 32.78125 10.59375 31.484375 10.59375 30.15625 
L 10.59375 14.125 
C 10.59375 6.921875 11.90625 -0.5 22.796875 -0.5 
C 29 -0.5 33.90625 3.875 35.40625 9.6875 
L 35.5 0 
L 45.40625 0 
L 45.40625 2.5 
L 44.40625 2.5 
C 41.796875 2.5 39.5 2.796875 39.5 6.984375 
L 39.5 43.796875 
L 29.5 42.6875 
L 29.5 40.5 
L 30.59375 40.5 
C 34 40.5 35.40625 39.390625 35.40625 35.28125 
L 35.40625 16.828125 
C 35.40625 9.515625 31.90625 0.703125 23.296875 0.703125 
C 20.59375 0.703125 17.703125 1.59375 16.09375 3.90625 
C 14.796875 5.71875 14.703125 8.21875 14.703125 10.515625 
L 14.703125 43.796875 
z
" id="Computer_Modern_Roman-117"/>
      <path d="M 4.703125 42.90625 
L 4.703125 40.703125 
L 5.703125 40.703125 
C 8.90625 40.703125 10.59375 40 10.59375 35.546875 
L 10.59375 5.640625 
C 10.59375 2.40625 8.203125 2.203125 4.703125 2.203125 
L 4.703125 0 
L 20.59375 0 
L 20.59375 2.203125 
L 19.203125 2.203125 
C 16.90625 2.203125 14.703125 2.5 14.703125 5.640625 
L 14.703125 27.765625 
C 15.296875 34.640625 18.796875 42.8125 26.703125 42.8125 
C 33 42.8125 35.40625 37.765625 35.40625 30.484375 
L 35.40625 5.640625 
C 35.40625 2.40625 33 2.203125 29.5 2.203125 
L 29.5 0 
L 45.40625 0 
L 45.40625 2.203125 
L 43.796875 2.203125 
C 41.5 2.203125 39.5 2.5 39.5 6.03125 
L 39.5 29.453125 
C 39.5 35.921875 38.296875 44 27.5 44 
C 22.09375 44 18.40625 41.078125 16 36.75 
C 15.40625 35.640625 14.796875 34.4375 14.59375 33.21875 
L 14.5 44 
z
" id="Computer_Modern_Roman-110"/>
      <path d="M 29.40625 68.703125 
L 29.40625 66.5 
L 30.5 66.5 
C 33.59375 66.5 35.296875 65.59375 35.296875 61.796875 
L 35.203125 36.296875 
C 33.296875 40.890625 27.59375 44 22.796875 44 
C 11.09375 44 4.203125 32.0625 4.203125 21.453125 
C 4.203125 11.421875 10.203125 0 20.90625 0 
L 21.796875 0 
C 27.203125 0 33.09375 3.1875 35.09375 7.921875 
L 35.203125 0 
L 45.203125 0 
L 45.203125 2.5 
L 44 2.5 
C 40.703125 2.5 39.296875 3.703125 39.296875 7.203125 
L 39.296875 69.796875 
z
M 9.296875 19.453125 
L 9.296875 20.953125 
C 9.296875 27.859375 10.296875 36.09375 16.5 40.515625 
C 18.59375 42.015625 21 42.8125 23.40625 42.8125 
C 29.09375 42.8125 35.296875 37.390625 35.296875 31.578125 
C 35.296875 30.484375 35.203125 29.28125 35.203125 28.1875 
L 35.203125 12.03125 
C 35.203125 6.625 28.296875 0.90625 22.5 0.90625 
C 14.796875 0.90625 10.59375 8.71875 9.703125 15.328125 
C 9.5 16.75 9.5 18.046875 9.296875 19.453125 
z
" id="Computer_Modern_Roman-100"/>
      <path d="M 7.40625 68.203125 
L 7.40625 66 
L 9.09375 66 
C 11.5 66 13.90625 65.703125 13.90625 62.296875 
C 13.90625 61.515625 13.796875 60.71875 13.796875 60.015625 
L 13.796875 12.484375 
C 13.796875 11.484375 13.90625 10.484375 13.90625 9.390625 
C 13.90625 6.203125 13 2.203125 7.40625 2.203125 
L 7.40625 0 
L 21.59375 0 
L 21.59375 2.203125 
C 15.703125 2.203125 15.203125 6.3125 15.203125 9.796875 
L 15.296875 66.09375 
C 15.703125 64 16.703125 61.890625 17.40625 59.90625 
C 24.40625 41.25 30.703125 22.375 37.40625 3.609375 
C 37.796875 2.40625 38.40625 0 39.296875 0 
C 40.5 0 43.59375 10.390625 45.40625 15.484375 
C 51.296875 31.5625 56.90625 47.9375 62.703125 64.21875 
C 62.90625 64.90625 63.296875 65.609375 63.40625 66.40625 
L 63.5 5.703125 
C 63.5 3 62.40625 2.203125 57.09375 2.203125 
L 57.09375 0 
L 74.59375 0 
L 74.59375 2.203125 
L 72.90625 2.203125 
C 70.296875 2.203125 68.203125 2.5 68.203125 6.40625 
L 68.203125 59.515625 
C 68.203125 60.21875 68.09375 61.015625 68.09375 61.796875 
C 68.09375 65.796875 70.40625 66 74.59375 66 
L 74.59375 68.203125 
L 64 68.203125 
L 63 68 
L 61.203125 63.5 
L 41 6.59375 
L 20.796875 63.5 
L 19 68 
L 18 68.203125 
z
" id="Computer_Modern_Roman-77"/>
      <path d="M 5.09375 42.734375 
L 5.09375 40.515625 
L 5.59375 40.515625 
C 8.796875 40.515625 10.59375 40.015625 10.59375 35.171875 
L 10.59375 5.625 
C 10.59375 2.40625 8.296875 2.203125 4.796875 2.203125 
L 4.796875 0 
L 19.90625 0 
L 19.90625 2.203125 
L 18.59375 2.203125 
C 16.5 2.203125 14.59375 2.40625 14.59375 5.828125 
L 14.59375 43.828125 
z
M 10.90625 65 
C 9.296875 65 8.296875 63.203125 8.296875 61.90625 
C 8.296875 60.40625 9.5 58.609375 11.40625 58.609375 
C 13.40625 58.609375 14.59375 60.265625 14.59375 61.75 
C 14.59375 63.21875 13.40625 65 11.5 65 
C 11.296875 65 11.09375 65 10.90625 65 
z
" id="Computer_Modern_Roman-105"/>
      <path d="M 23.5 -25 
L 23.5 -21.515625 
L 14.09375 -21.515625 
L 14.09375 71 
L 23.5 71 
L 23.5 74.484375 
L 10.59375 74.484375 
L 10.59375 -25 
z
" id="CMR17-91"/>
      <path d="M 19.5 -0.484375 
C 19.5 5.359375 17.59375 9.671875 13.5 9.671875 
C 10.296875 9.671875 8.703125 7.078125 8.703125 4.890625 
C 8.703125 2.6875 10.203125 0 13.59375 0 
C 14.90625 0 16 0.40625 16.90625 1.296875 
C 17.09375 1.5 17.203125 1.5 17.296875 1.5 
C 17.5 1.5 17.5 0.078125 17.5 -0.421875 
C 17.5 -3.75 16.90625 -10.296875 11.09375 -16.875 
C 10 -18.078125 10 -18.28125 10 -18.484375 
C 10 -19 10.5 -19.5 11 -19.5 
C 11.796875 -19.5 19.5 -12.046875 19.5 -0.484375 
z
" id="CMMI12-59"/>
      <path d="M 14.296875 74.484375 
L 1.40625 74.484375 
L 1.40625 71 
L 10.796875 71 
L 10.796875 -21.515625 
L 1.40625 -21.515625 
L 1.40625 -25 
L 14.296875 -25 
z
" id="CMR17-93"/>
     </defs>
     <use transform="scale(0.996264)" xlink:href="#Computer_Modern_Roman-85"/>
     <use transform="translate(66.840991 0)scale(0.996264)" xlink:href="#Computer_Modern_Roman-112"/>
     <use transform="translate(116.379419 0)scale(0.996264)" xlink:href="#Computer_Modern_Roman-112"/>
     <use transform="translate(168.39782 0)scale(0.996264)" xlink:href="#Computer_Modern_Roman-101"/>
     <use transform="translate(208.016219 0)scale(0.996264)" xlink:href="#Computer_Modern_Roman-114"/>
     <use transform="translate(272.372858 0)scale(0.996264)" xlink:href="#Computer_Modern_Roman-66"/>
     <use transform="translate(335.522583 0)scale(0.996264)" xlink:href="#Computer_Modern_Roman-111"/>
     <use transform="translate(380.101049 0)scale(0.996264)" xlink:href="#Computer_Modern_Roman-117"/>
     <use transform="translate(429.639478 0)scale(0.996264)" xlink:href="#Computer_Modern_Roman-110"/>
     <use transform="translate(479.177906 0)scale(0.996264)" xlink:href="#Computer_Modern_Roman-100"/>
     <use transform="translate(558.414627 0)scale(0.996264)" xlink:href="#CMR17-61"/>
     <use transform="translate(659.827709 0)scale(0.996264)" xlink:href="#Computer_Modern_Roman-77"/>
     <use transform="translate(741.548782 0)scale(0.996264)" xlink:href="#Computer_Modern_Roman-105"/>
     <use transform="translate(766.287114 0)scale(0.996264)" xlink:href="#Computer_Modern_Roman-110"/>
     <use transform="translate(845.523835 0)scale(0.996264)" xlink:href="#CMR17-91"/>
     <use transform="translate(870.394894 0)scale(0.996264)" xlink:href="#CMMI12-99"/>
     <use transform="translate(912.378127 0)scale(0.996264)" xlink:href="#CMR17-40"/>
     <use transform="translate(947.658895 0)scale(0.996264)" xlink:href="#CMMI12-109"/>
     <use transform="translate(1032.98612 0)scale(0.996264)" xlink:href="#CMR17-41"/>
     <use transform="translate(1068.266887 0)scale(0.996264)" xlink:href="#CMMI12-59"/>
     <use transform="translate(1111.96847 0)scale(0.996264)" xlink:href="#CMMI12-99"/>
     <use transform="translate(1153.951703 0)scale(0.996264)" xlink:href="#CMR17-40"/>
     <use transform="translate(1189.232471 0)scale(0.996264)" xlink:href="#CMMI12-109"/>
     <use transform="translate(1274.559696 0)scale(0.996264)" xlink:href="#CMR17-41"/>
     <use transform="translate(1309.840463 0)scale(0.996264)" xlink:href="#CMR17-93"/>
     <path d="M 870.394894 74.77436 
L 912.378127 74.77436 
L 912.378127 78.75931 
L 870.394894 78.75931 
L 870.394894 74.77436 
z
"/>
     <path d="M 870.394894 54.849612 
L 912.378127 54.849612 
L 912.378127 58.834561 
L 870.394894 58.834561 
L 870.394894 54.849612 
z
"/>
     <path d="M 1111.96847 54.849612 
L 1153.951703 54.849612 
L 1153.951703 58.834561 
L 1111.96847 58.834561 
L 1111.96847 54.849612 
z
"/>
    </g>
   </g>
   <g id="text_6">
    <!-- Lower Bound: $\tilde{c}(m)= (1-\pmb{\text{\TH}}_{R})\tilde{\kappa}m$ -->
    <g transform="translate(322.272 424.264864)scale(0.22 -0.22)">
     <defs>
      <path d="M 7.296875 68.203125 
L 7.296875 66 
L 9 66 
C 11.59375 66 13.703125 65.703125 13.703125 61.796875 
L 13.703125 6.40625 
C 13.703125 2.5 12 2.203125 7.296875 2.203125 
L 7.296875 0 
L 50.09375 0 
L 52.203125 24.875 
L 50.90625 24.875 
C 50.296875 17.1875 49.90625 6.203125 38.59375 3 
C 35.59375 2.203125 32.59375 2.203125 29.5 2.203125 
L 21.5 2.203125 
C 19.40625 2.203125 18.5 3.203125 18.5 5.40625 
C 18.5 6.109375 18.59375 6.703125 18.59375 7.3125 
L 18.59375 59.515625 
C 18.59375 60.21875 18.5 61.015625 18.5 61.796875 
C 18.5 65.296875 20.40625 66 24.40625 66 
L 26.59375 66 
L 26.59375 68.203125 
z
" id="Computer_Modern_Roman-76"/>
      <path d="M 1.40625 43 
L 1.40625 40.8125 
L 2.203125 40.8125 
C 6.203125 40.8125 6.703125 39 8.796875 32.625 
L 19 1.90625 
C 19.296875 1.09375 19.5 -0.5 20.59375 -0.5 
L 20.703125 -0.5 
C 21.59375 -0.296875 21.90625 1.5 22.203125 2.296875 
L 28 19.75 
C 28.90625 22.546875 29.796875 25.34375 30.796875 28.140625 
C 31.296875 29.71875 32 31.328125 32.296875 32.921875 
L 32.40625 32.921875 
C 32.703125 31.328125 33.40625 29.71875 33.90625 28.140625 
C 34.90625 25.34375 35.796875 22.546875 36.703125 19.75 
L 42.5 2.296875 
C 42.796875 1.5 43.09375 -0.296875 44 -0.5 
L 44.09375 -0.5 
C 45.203125 -0.5 45.40625 1.09375 45.703125 1.90625 
L 48.40625 9.96875 
C 51 17.859375 53.59375 25.640625 56.203125 33.515625 
C 57.203125 36.71875 59 40.8125 63.296875 40.8125 
L 63.296875 43 
L 51.5 43 
L 51.5 40.8125 
C 54 40.8125 55.5 38.5 55.5 36.71875 
C 55.5 35.21875 54.90625 33.71875 54.40625 32.328125 
C 51.40625 23.453125 48.5 14.46875 45.5 5.59375 
C 44.296875 8.40625 43.5 11.390625 42.59375 14.28125 
C 40.296875 21.15625 37.90625 28.140625 35.59375 35.125 
C 35.296875 36.125 34.703125 37.328125 34.703125 38.40625 
C 34.703125 40.5 37.296875 40.8125 38.90625 40.8125 
L 38.90625 43 
L 25 43 
L 25 40.8125 
L 25.703125 40.8125 
C 28.5 40.8125 30 40.203125 31 36.828125 
C 31.203125 36.328125 31.5 35.625 31.5 35.015625 
L 31.5 34.828125 
C 31.40625 33.828125 31 32.921875 30.703125 32.015625 
L 28.796875 26.53125 
C 26.40625 19.75 24 12.765625 22 5.890625 
L 21.90625 5.890625 
C 21.703125 6.984375 21.203125 8.078125 20.90625 9.1875 
L 19 14.875 
C 17.09375 20.546875 15.203125 26.15625 13.296875 31.84375 
L 11.90625 36.21875 
C 11.59375 36.921875 11.296875 37.71875 11.296875 38.421875 
L 11.296875 38.71875 
C 11.59375 40.5 14 40.8125 15.5 40.8125 
L 15.5 43 
z
" id="Computer_Modern_Roman-119"/>
      <path d="M 11.90625 43 
C 10.296875 43 9.296875 41.203125 9.296875 39.90625 
C 9.296875 38.40625 10.5 36.59375 12.40625 36.59375 
C 14.40625 36.59375 15.703125 38.265625 15.703125 39.75 
C 15.703125 41.140625 14.5 43 12.5 43 
C 12.296875 43 12.09375 43 11.90625 43 
z
M 11.90625 6.40625 
C 10.296875 6.40625 9.296875 4.609375 9.296875 3.3125 
C 9.296875 1.8125 10.5 0 12.40625 0 
C 14.40625 0 15.703125 1.671875 15.703125 3.15625 
C 15.703125 4.546875 14.5 6.40625 12.5 6.40625 
C 12.296875 6.40625 12.09375 6.40625 11.90625 6.40625 
z
" id="Computer_Modern_Roman-58"/>
      <path d="M 37.5 65.375 
C 34.09375 62.1875 32.203125 60.390625 29.09375 60.390625 
C 26.90625 60.390625 25.40625 61.4375 23.296875 62.875 
C 21.296875 64.234375 19.703125 65.375 17.5 65.375 
C 13.90625 65.375 11.40625 62.5625 7.203125 58.09375 
L 8.296875 57 
C 11.703125 60.15625 13.59375 62 16.703125 62 
C 18.90625 62 20.40625 60.9375 22.5 59.5 
C 24.5 58.15625 26.09375 57 28.296875 57 
C 31.90625 57 34.40625 59.8125 38.59375 64.28125 
z
" id="CMR17-126"/>
     </defs>
     <use transform="scale(0.996264)" xlink:href="#Computer_Modern_Roman-76"/>
     <use transform="translate(55.709683 0)scale(0.996264)" xlink:href="#Computer_Modern_Roman-111"/>
     <use transform="translate(97.808161 0)scale(0.996264)" xlink:href="#Computer_Modern_Roman-119"/>
     <use transform="translate(159.74676 0)scale(0.996264)" xlink:href="#Computer_Modern_Roman-101"/>
     <use transform="translate(199.365158 0)scale(0.996264)" xlink:href="#Computer_Modern_Roman-114"/>
     <use transform="translate(263.721798 0)scale(0.996264)" xlink:href="#Computer_Modern_Roman-66"/>
     <use transform="translate(326.871522 0)scale(0.996264)" xlink:href="#Computer_Modern_Roman-111"/>
     <use transform="translate(371.449989 0)scale(0.996264)" xlink:href="#Computer_Modern_Roman-117"/>
     <use transform="translate(420.988417 0)scale(0.996264)" xlink:href="#Computer_Modern_Roman-110"/>
     <use transform="translate(470.526845 0)scale(0.996264)" xlink:href="#Computer_Modern_Roman-100"/>
     <use transform="translate(520.065273 0)scale(0.996264)" xlink:href="#Computer_Modern_Roman-58"/>
     <use transform="translate(587.987734 0.006461)scale(0.996264)" xlink:href="#CMR17-126"/>
     <use transform="translate(584.421913 0)scale(0.996264)" xlink:href="#CMMI12-99"/>
     <use transform="translate(626.405146 0)scale(0.996264)" xlink:href="#CMR17-40"/>
     <use transform="translate(661.685914 0)scale(0.996264)" xlink:href="#CMMI12-109"/>
     <use transform="translate(747.013139 0)scale(0.996264)" xlink:href="#CMR17-41"/>
     <use transform="translate(809.967915 0)scale(0.996264)" xlink:href="#CMR17-61"/>
     <use transform="translate(909.356712 0)scale(0.996264)" xlink:href="#CMR17-40"/>
     <use transform="translate(944.63748 0)scale(0.996264)" xlink:href="#CMR17-49"/>
     <use transform="translate(1012.467164 0)scale(0.996264)" xlink:href="#CMSY10-0"/>
     <use transform="translate(1107.665985 0)scale(0.996264)" xlink:href="#Computer_Modern_Roman-222"/>
     <use transform="translate(1109.879866 2.767393)scale(0.996264)" xlink:href="#Computer_Modern_Roman-222"/>
     <use transform="translate(1112.093748 0)scale(0.996264)" xlink:href="#Computer_Modern_Roman-222"/>
     <use transform="translate(1167.803431 -14.943915)scale(0.697382)" xlink:href="#CMMI12-82"/>
     <use transform="translate(1220.850993 0)scale(0.996264)" xlink:href="#CMR17-41"/>
     <use transform="translate(1261.363834 0.006461)scale(0.996264)" xlink:href="#CMR17-126"/>
     <use transform="translate(1256.131761 0)scale(0.996264)" xlink:href="#CMMI12-20"/>
     <use transform="translate(1312.286385 0)scale(0.996264)" xlink:href="#CMMI12-109"/>
    </g>
   </g>
   <g id="text_7">
    <!-- $\overline{c}(m)= (m-1+h)\tilde{\kappa}$ -->
    <g transform="translate(153.5328 221.832258)scale(0.22 -0.22)">
     <defs>
      <path d="M 37.703125 23 
L 64.203125 23 
C 65.59375 23 67.296875 23 67.296875 24.6875 
C 67.296875 26.484375 65.703125 26.484375 64.203125 26.484375 
L 37.703125 26.484375 
L 37.703125 52.90625 
C 37.703125 54.296875 37.703125 56 36 56 
C 34.203125 56 34.203125 54.40625 34.203125 52.90625 
L 34.203125 26.484375 
L 7.703125 26.484375 
C 6.296875 26.484375 4.59375 26.484375 4.59375 24.796875 
C 4.59375 23 6.203125 23 7.703125 23 
L 34.203125 23 
L 34.203125 -3.40625 
C 34.203125 -4.796875 34.203125 -6.5 35.90625 -6.5 
C 37.703125 -6.5 37.703125 -4.90625 37.703125 -3.40625 
z
" id="CMR17-43"/>
      <path d="M 28.09375 66.515625 
C 28.203125 66.921875 28.40625 67.515625 28.40625 68 
C 28.40625 69 27.40625 69 27.203125 69 
C 27.09375 69 22.203125 68.5625 21.703125 68.4375 
C 20 68.328125 18.5 68.09375 16.703125 68.09375 
C 14.203125 67.890625 13.5 67.796875 13.5 66 
C 13.5 65 14.296875 65 15.703125 65 
C 20.59375 65 20.703125 64.109375 20.703125 63.125 
C 20.703125 62.53125 20.5 61.734375 20.40625 61.4375 
L 5.90625 3.875 
C 5.5 2.375 5.5 2.1875 5.5 1.578125 
C 5.5 -0.59375 7.203125 -1 8.203125 -1 
C 9.90625 -1 11.203125 0.296875 11.703125 1.390625 
L 16.203125 19.453125 
C 16.703125 21.65625 17.296875 23.75 17.796875 25.9375 
C 18.90625 30.140625 18.90625 30.234375 20.796875 33.125 
C 22.703125 36.015625 27.203125 42.015625 34.90625 42.015625 
C 38.90625 42.015625 40.296875 39.015625 40.296875 35.03125 
C 40.296875 29.4375 36.40625 18.5625 34.203125 12.578125 
C 33.296875 10.171875 32.796875 8.875 32.796875 7.078125 
C 32.796875 2.59375 35.90625 -1 40.703125 -1 
C 50 -1 53.5 13.671875 53.5 14.265625 
C 53.5 14.765625 53.09375 15.171875 52.5 15.171875 
C 51.59375 15.171875 51.5 14.875 51 13.171875 
C 48.703125 5.1875 45 1 41 1 
C 40 1 38.40625 1 38.40625 4.203125 
C 38.40625 6.8125 39.59375 10 40 11.09375 
C 41.796875 15.90625 46.296875 27.703125 46.296875 33.515625 
C 46.296875 39.5 42.796875 44 35.203125 44 
C 29.5 44 24.5 41.3125 20.40625 36.125 
z
" id="CMMI12-104"/>
     </defs>
     <use transform="scale(0.996264)" xlink:href="#CMMI12-99"/>
     <use transform="translate(41.983234 0)scale(0.996264)" xlink:href="#CMR17-40"/>
     <use transform="translate(77.264001 0)scale(0.996264)" xlink:href="#CMMI12-109"/>
     <use transform="translate(162.591226 0)scale(0.996264)" xlink:href="#CMR17-41"/>
     <use transform="translate(225.546002 0)scale(0.996264)" xlink:href="#CMR17-61"/>
     <use transform="translate(324.9348 0)scale(0.996264)" xlink:href="#CMR17-40"/>
     <use transform="translate(360.215567 0)scale(0.996264)" xlink:href="#CMMI12-109"/>
     <use transform="translate(467.681999 0)scale(0.996264)" xlink:href="#CMSY10-0"/>
     <use transform="translate(567.308673 0)scale(0.996264)" xlink:href="#CMR17-49"/>
     <use transform="translate(635.138358 0)scale(0.996264)" xlink:href="#CMR17-43"/>
     <use transform="translate(728.992353 0)scale(0.996264)" xlink:href="#CMMI12-104"/>
     <use transform="translate(785.146977 0)scale(0.996264)" xlink:href="#CMR17-41"/>
     <use transform="translate(825.659818 0.006461)scale(0.996264)" xlink:href="#CMR17-126"/>
     <use transform="translate(820.427745 0)scale(0.996264)" xlink:href="#CMMI12-20"/>
     <path d="M 0 54.849612 
L 41.983234 54.849612 
L 41.983234 58.834561 
L 0 58.834561 
L 0 54.849612 
z
"/>
    </g>
   </g>
  </g>
 </g>
 <defs>
  <clipPath id="pc99bf25d80">
   <rect height="434.88" width="669.6" x="108" y="69.12"/>
  </clipPath>
 </defs>
</svg>
