<?xml version="1.0" encoding="utf-8" standalone="no"?>
<!DOCTYPE svg PUBLIC "-//W3C//DTD SVG 1.1//EN"
  "http://www.w3.org/Graphics/SVG/1.1/DTD/svg11.dtd">
<!-- Created with matplotlib (https://matplotlib.org/) -->
<svg height="576pt" version="1.1" viewBox="0 0 864 576" width="864pt" xmlns="http://www.w3.org/2000/svg" xmlns:xlink="http://www.w3.org/1999/xlink">
 <metadata>
  <rdf:RDF xmlns:cc="http://creativecommons.org/ns#" xmlns:dc="http://purl.org/dc/elements/1.1/" xmlns:rdf="http://www.w3.org/1999/02/22-rdf-syntax-ns#">
   <cc:Work>
    <dc:type rdf:resource="http://purl.org/dc/dcmitype/StillImage"/>
    <dc:date>2021-09-05T21:11:58.012934</dc:date>
    <dc:format>image/svg+xml</dc:format>
    <dc:creator>
     <cc:Agent>
      <dc:title>Matplotlib v3.3.2, https://matplotlib.org/</dc:title>
     </cc:Agent>
    </dc:creator>
   </cc:Work>
  </rdf:RDF>
 </metadata>
 <defs>
  <style type="text/css">*{stroke-linecap:butt;stroke-linejoin:round;}</style>
 </defs>
 <g id="figure_1">
  <g id="patch_1">
   <path d="M 0 576 
L 864 576 
L 864 0 
L 0 0 
z
" style="fill:#ffffff;"/>
  </g>
  <g id="axes_1">
   <g id="patch_2">
    <path d="M 108 512.64 
L 777.6 512.64 
L 777.6 69.12 
L 108 69.12 
z
" style="fill:#ffffff;"/>
   </g>
   <g id="matplotlib.axis_1">
    <g id="xtick_1">
     <g id="line2d_1">
      <defs>
       <path d="M 0 0 
L 0 3.5 
" id="m52152042c6" style="stroke:#000000;stroke-width:0.8;"/>
      </defs>
      <g>
       <use style="stroke:#000000;stroke-width:0.8;" x="108" xlink:href="#m52152042c6" y="512.64"/>
      </g>
     </g>
     <g id="line2d_2">
      <defs>
       <path d="M 0 0 
L 0 -3.5 
" id="ma707b750cf" style="stroke:#000000;stroke-width:0.8;"/>
      </defs>
      <g>
       <use style="stroke:#000000;stroke-width:0.8;" x="108" xlink:href="#ma707b750cf" y="69.12"/>
      </g>
     </g>
    </g>
    <g id="xtick_2">
     <g id="line2d_3">
      <g>
       <use style="stroke:#000000;stroke-width:0.8;" x="184.090909" xlink:href="#m52152042c6" y="512.64"/>
      </g>
     </g>
     <g id="line2d_4">
      <g>
       <use style="stroke:#000000;stroke-width:0.8;" x="184.090909" xlink:href="#ma707b750cf" y="69.12"/>
      </g>
     </g>
    </g>
    <g id="xtick_3">
     <g id="line2d_5">
      <g>
       <use style="stroke:#000000;stroke-width:0.8;" x="260.181818" xlink:href="#m52152042c6" y="512.64"/>
      </g>
     </g>
     <g id="line2d_6">
      <g>
       <use style="stroke:#000000;stroke-width:0.8;" x="260.181818" xlink:href="#ma707b750cf" y="69.12"/>
      </g>
     </g>
    </g>
    <g id="xtick_4">
     <g id="line2d_7">
      <g>
       <use style="stroke:#000000;stroke-width:0.8;" x="336.272727" xlink:href="#m52152042c6" y="512.64"/>
      </g>
     </g>
     <g id="line2d_8">
      <g>
       <use style="stroke:#000000;stroke-width:0.8;" x="336.272727" xlink:href="#ma707b750cf" y="69.12"/>
      </g>
     </g>
    </g>
    <g id="xtick_5">
     <g id="line2d_9">
      <g>
       <use style="stroke:#000000;stroke-width:0.8;" x="412.363636" xlink:href="#m52152042c6" y="512.64"/>
      </g>
     </g>
     <g id="line2d_10">
      <g>
       <use style="stroke:#000000;stroke-width:0.8;" x="412.363636" xlink:href="#ma707b750cf" y="69.12"/>
      </g>
     </g>
    </g>
    <g id="xtick_6">
     <g id="line2d_11">
      <g>
       <use style="stroke:#000000;stroke-width:0.8;" x="488.454545" xlink:href="#m52152042c6" y="512.64"/>
      </g>
     </g>
     <g id="line2d_12">
      <g>
       <use style="stroke:#000000;stroke-width:0.8;" x="488.454545" xlink:href="#ma707b750cf" y="69.12"/>
      </g>
     </g>
    </g>
    <g id="xtick_7">
     <g id="line2d_13">
      <g>
       <use style="stroke:#000000;stroke-width:0.8;" x="564.545455" xlink:href="#m52152042c6" y="512.64"/>
      </g>
     </g>
     <g id="line2d_14">
      <g>
       <use style="stroke:#000000;stroke-width:0.8;" x="564.545455" xlink:href="#ma707b750cf" y="69.12"/>
      </g>
     </g>
    </g>
    <g id="xtick_8">
     <g id="line2d_15">
      <g>
       <use style="stroke:#000000;stroke-width:0.8;" x="640.636364" xlink:href="#m52152042c6" y="512.64"/>
      </g>
     </g>
     <g id="line2d_16">
      <g>
       <use style="stroke:#000000;stroke-width:0.8;" x="640.636364" xlink:href="#ma707b750cf" y="69.12"/>
      </g>
     </g>
    </g>
    <g id="xtick_9">
     <g id="line2d_17">
      <g>
       <use style="stroke:#000000;stroke-width:0.8;" x="716.727273" xlink:href="#m52152042c6" y="512.64"/>
      </g>
     </g>
     <g id="line2d_18">
      <g>
       <use style="stroke:#000000;stroke-width:0.8;" x="716.727273" xlink:href="#ma707b750cf" y="69.12"/>
      </g>
     </g>
    </g>
   </g>
   <g id="matplotlib.axis_2">
    <g id="ytick_1">
     <g id="line2d_19">
      <defs>
       <path d="M 0 0 
L -3.5 0 
" id="m4ba26e5f2d" style="stroke:#000000;stroke-width:0.8;"/>
      </defs>
      <g>
       <use style="stroke:#000000;stroke-width:0.8;" x="108" xlink:href="#m4ba26e5f2d" y="512.64"/>
      </g>
     </g>
     <g id="line2d_20">
      <defs>
       <path d="M 0 0 
L 3.5 0 
" id="m870c008100" style="stroke:#000000;stroke-width:0.8;"/>
      </defs>
      <g>
       <use style="stroke:#000000;stroke-width:0.8;" x="777.6" xlink:href="#m870c008100" y="512.64"/>
      </g>
     </g>
     <g id="text_1">
      <!-- $\mathdefault{0.98}$ -->
      <g transform="translate(71.44965 518.81469)scale(0.18 -0.18)">
       <defs>
        <path d="M 42 31.640625 
C 42 37.75 41.90625 48.125 37.703125 56.109375 
C 34 63.109375 28.09375 65.59375 22.90625 65.59375 
C 18.09375 65.59375 12 63.40625 8.203125 56.203125 
C 4.203125 48.71875 3.796875 39.4375 3.796875 31.640625 
C 3.796875 25.953125 3.90625 17.28125 7 9.671875 
C 11.296875 -0.609375 19 -2 22.90625 -2 
C 27.5 -2 34.5 -0.109375 38.59375 9.375 
C 41.59375 16.28125 42 24.359375 42 31.640625 
z
M 22.90625 -0.40625 
C 16.5 -0.40625 12.703125 5.078125 11.296875 12.6875 
C 10.203125 18.5625 10.203125 27.15625 10.203125 32.75 
C 10.203125 40.4375 10.203125 46.828125 11.5 52.921875 
C 13.40625 61.390625 19 64 22.90625 64 
C 27 64 32.296875 61.296875 34.203125 53.125 
C 35.5 47.4375 35.59375 40.734375 35.59375 32.75 
C 35.59375 26.25 35.59375 18.265625 34.40625 12.375 
C 32.296875 1.484375 26.40625 -0.40625 22.90625 -0.40625 
z
" id="CMR17-48"/>
        <path d="M 18.40625 4.796875 
C 18.40625 7.6875 16 9.671875 13.59375 9.671875 
C 10.703125 9.671875 8.703125 7.28125 8.703125 4.890625 
C 8.703125 2 11.09375 0 13.5 0 
C 16.40625 0 18.40625 2.390625 18.40625 4.796875 
z
" id="CMMI12-58"/>
        <path d="M 35.203125 29.125 
C 35.203125 7.25 26.09375 0.484375 18.59375 0.484375 
C 16.296875 0.484375 10.703125 0.484375 8.40625 4.59375 
C 11 4.1875 12.90625 5.578125 12.90625 8.09375 
C 12.90625 10.8125 10.703125 11.703125 9.296875 11.703125 
C 8.40625 11.703125 5.703125 11.296875 5.703125 7.90625 
C 5.703125 1.109375 11.59375 -2 18.796875 -2 
C 30.296875 -2 42 10.53125 42 32.390625 
C 42 59.640625 30.796875 65.296875 23.203125 65.296875 
C 13.296875 65.296875 3.796875 56.6875 3.796875 43.40625 
C 3.796875 31.109375 11.90625 22 22.09375 22 
C 30.5 22 34.203125 29.734375 35.203125 33 
z
M 22.296875 23.59375 
C 19.59375 23.59375 15.796875 24.09375 12.703125 30.03125 
C 10.59375 33.890625 10.59375 38.453125 10.59375 43.296875 
C 10.59375 49.15625 10.59375 53.203125 13.40625 57.5625 
C 14.796875 59.640625 17.40625 63 23.203125 63 
C 35 63 35 45.078125 35 41.125 
C 35 34.09375 31.796875 23.59375 22.296875 23.59375 
z
" id="CMR17-57"/>
        <path d="M 27.203125 35.375 
C 33.5 38.546875 39.90625 43.328125 39.90625 50.984375 
C 39.90625 60.015625 31.09375 65.296875 23 65.296875 
C 13.90625 65.296875 5.90625 58.734375 5.90625 49.6875 
C 5.90625 47.203125 6.5 42.921875 10.40625 39.140625 
C 11.40625 38.15625 15.59375 35.171875 18.296875 33.28125 
C 13.796875 30.984375 3.296875 25.53125 3.296875 14.59375 
C 3.296875 4.359375 13.09375 -2 22.796875 -2 
C 33.5 -2 42.5 5.65625 42.5 15.78125 
C 42.5 24.84375 36.40625 29.015625 32.40625 31.703125 
z
M 14.09375 44.09375 
C 13.296875 44.59375 9.296875 47.671875 9.296875 52.359375 
C 9.296875 58.421875 15.59375 63 22.796875 63 
C 30.703125 63 36.5 57.4375 36.5 50.96875 
C 36.5 41.703125 26.09375 36.421875 25.59375 36.421875 
C 25.5 36.421875 25.40625 36.421875 24.59375 37.03125 
z
M 32.5 23.734375 
C 34 22.640625 38.796875 19.375 38.796875 13.296875 
C 38.796875 5.953125 31.40625 0.390625 23 0.390625 
C 13.90625 0.390625 7 6.84375 7 14.6875 
C 7 22.546875 13.09375 29.09375 20 32.1875 
z
" id="CMR17-56"/>
       </defs>
       <use transform="scale(0.996264)" xlink:href="#CMR17-48"/>
       <use transform="translate(45.690477 0)scale(0.996264)" xlink:href="#CMMI12-58"/>
       <use transform="translate(72.787654 0)scale(0.996264)" xlink:href="#CMR17-57"/>
       <use transform="translate(118.478131 0)scale(0.996264)" xlink:href="#CMR17-56"/>
      </g>
     </g>
    </g>
    <g id="ytick_2">
     <g id="line2d_21">
      <g>
       <use style="stroke:#000000;stroke-width:0.8;" x="108" xlink:href="#m4ba26e5f2d" y="457.2"/>
      </g>
     </g>
     <g id="line2d_22">
      <g>
       <use style="stroke:#000000;stroke-width:0.8;" x="777.6" xlink:href="#m870c008100" y="457.2"/>
      </g>
     </g>
     <g id="text_2">
      <!-- $\mathdefault{0.99}$ -->
      <g transform="translate(71.44965 463.37469)scale(0.18 -0.18)">
       <use transform="scale(0.996264)" xlink:href="#CMR17-48"/>
       <use transform="translate(45.690477 0)scale(0.996264)" xlink:href="#CMMI12-58"/>
       <use transform="translate(72.787654 0)scale(0.996264)" xlink:href="#CMR17-57"/>
       <use transform="translate(118.478131 0)scale(0.996264)" xlink:href="#CMR17-57"/>
      </g>
     </g>
    </g>
    <g id="ytick_3">
     <g id="line2d_23">
      <g>
       <use style="stroke:#000000;stroke-width:0.8;" x="108" xlink:href="#m4ba26e5f2d" y="401.76"/>
      </g>
     </g>
     <g id="line2d_24">
      <g>
       <use style="stroke:#000000;stroke-width:0.8;" x="777.6" xlink:href="#m870c008100" y="401.76"/>
      </g>
     </g>
     <g id="text_3">
      <!-- $\mathdefault{1.00}$ -->
      <g transform="translate(71.44965 407.93469)scale(0.18 -0.18)">
       <defs>
        <path d="M 26.59375 63.40625 
C 26.59375 65.5 26.5 65.5 25.09375 65.5 
C 21.203125 61.1875 15.296875 59.796875 9.703125 59.796875 
C 9.40625 59.796875 8.90625 59.796875 8.796875 59.5 
C 8.703125 59.296875 8.703125 59.09375 8.703125 57 
C 11.796875 57 17 57.59375 21 59.984375 
L 21 7.203125 
C 21 3.6875 20.796875 2.5 12.203125 2.5 
L 9.203125 2.5 
L 9.203125 0 
C 14 0 19 0 23.796875 0 
C 28.59375 0 33.59375 0 38.40625 0 
L 38.40625 2.5 
L 35.40625 2.5 
C 26.796875 2.5 26.59375 3.59375 26.59375 7.15625 
z
" id="CMR17-49"/>
       </defs>
       <use transform="scale(0.996264)" xlink:href="#CMR17-49"/>
       <use transform="translate(45.690477 0)scale(0.996264)" xlink:href="#CMMI12-58"/>
       <use transform="translate(72.787654 0)scale(0.996264)" xlink:href="#CMR17-48"/>
       <use transform="translate(118.478131 0)scale(0.996264)" xlink:href="#CMR17-48"/>
      </g>
     </g>
    </g>
    <g id="ytick_4">
     <g id="line2d_25">
      <g>
       <use style="stroke:#000000;stroke-width:0.8;" x="108" xlink:href="#m4ba26e5f2d" y="346.32"/>
      </g>
     </g>
     <g id="line2d_26">
      <g>
       <use style="stroke:#000000;stroke-width:0.8;" x="777.6" xlink:href="#m870c008100" y="346.32"/>
      </g>
     </g>
     <g id="text_4">
      <!-- $\mathdefault{1.01}$ -->
      <g transform="translate(71.44965 352.49469)scale(0.18 -0.18)">
       <use transform="scale(0.996264)" xlink:href="#CMR17-49"/>
       <use transform="translate(45.690477 0)scale(0.996264)" xlink:href="#CMMI12-58"/>
       <use transform="translate(72.787654 0)scale(0.996264)" xlink:href="#CMR17-48"/>
       <use transform="translate(118.478131 0)scale(0.996264)" xlink:href="#CMR17-49"/>
      </g>
     </g>
    </g>
    <g id="ytick_5">
     <g id="line2d_27">
      <g>
       <use style="stroke:#000000;stroke-width:0.8;" x="108" xlink:href="#m4ba26e5f2d" y="290.88"/>
      </g>
     </g>
     <g id="line2d_28">
      <g>
       <use style="stroke:#000000;stroke-width:0.8;" x="777.6" xlink:href="#m870c008100" y="290.88"/>
      </g>
     </g>
     <g id="text_5">
      <!-- $\mathdefault{1.02}$ -->
      <g transform="translate(71.44965 297.05469)scale(0.18 -0.18)">
       <defs>
        <path d="M 41.703125 15.453125 
L 39.90625 15.453125 
C 38.90625 8.375 38.09375 7.171875 37.703125 6.5625 
C 37.203125 5.765625 30 5.765625 28.59375 5.765625 
L 9.40625 5.765625 
C 13 9.671875 20 16.75 28.5 24.953125 
C 34.59375 30.734375 41.703125 37.53125 41.703125 47.421875 
C 41.703125 59.21875 32.296875 66 21.796875 66 
C 10.796875 66 4.09375 56.3125 4.09375 47.34375 
C 4.09375 43.4375 7 42.9375 8.203125 42.9375 
C 9.203125 42.9375 12.203125 43.546875 12.203125 47.03125 
C 12.203125 50.109375 9.59375 51 8.203125 51 
C 7.59375 51 7 50.90625 6.59375 50.703125 
C 8.5 59.21875 14.296875 63.40625 20.40625 63.40625 
C 29.09375 63.40625 34.796875 56.515625 34.796875 47.421875 
C 34.796875 38.734375 29.703125 31.25 24 24.75 
L 4.09375 2.28125 
L 4.09375 0 
L 39.296875 0 
z
" id="CMR17-50"/>
       </defs>
       <use transform="scale(0.996264)" xlink:href="#CMR17-49"/>
       <use transform="translate(45.690477 0)scale(0.996264)" xlink:href="#CMMI12-58"/>
       <use transform="translate(72.787654 0)scale(0.996264)" xlink:href="#CMR17-48"/>
       <use transform="translate(118.478131 0)scale(0.996264)" xlink:href="#CMR17-50"/>
      </g>
     </g>
    </g>
    <g id="ytick_6">
     <g id="line2d_29">
      <g>
       <use style="stroke:#000000;stroke-width:0.8;" x="108" xlink:href="#m4ba26e5f2d" y="235.44"/>
      </g>
     </g>
     <g id="line2d_30">
      <g>
       <use style="stroke:#000000;stroke-width:0.8;" x="777.6" xlink:href="#m870c008100" y="235.44"/>
      </g>
     </g>
     <g id="text_6">
      <!-- $\mathdefault{1.03}$ -->
      <g transform="translate(71.44965 241.61469)scale(0.18 -0.18)">
       <defs>
        <path d="M 22.09375 33.703125 
C 31 33.703125 34.90625 25.96875 34.90625 17.03125 
C 34.90625 5 28.5 0.390625 22.703125 0.390625 
C 17.40625 0.390625 8.796875 3.03125 6.09375 10.828125 
C 6.59375 10.625 7.09375 10.625 7.59375 10.625 
C 10 10.625 11.796875 12.21875 11.796875 14.8125 
C 11.796875 17.703125 9.59375 19 7.59375 19 
C 5.90625 19 3.296875 18.203125 3.296875 14.46875 
C 3.296875 5.234375 12.296875 -2 22.90625 -2 
C 34 -2 42.5 6.71875 42.5 16.953125 
C 42.5 26.671875 34.5 33.703125 25 34.796875 
C 32.59375 36.375 39.90625 43.0625 39.90625 52.015625 
C 39.90625 59.6875 32 65.296875 23 65.296875 
C 13.90625 65.296875 5.90625 59.828125 5.90625 52.015625 
C 5.90625 48.59375 8.5 48 9.796875 48 
C 11.90625 48 13.703125 49.296875 13.703125 51.890625 
C 13.703125 54.46875 11.90625 55.765625 9.796875 55.765625 
C 9.40625 55.765625 8.90625 55.765625 8.5 55.578125 
C 11.40625 61.859375 19.296875 63 22.796875 63 
C 26.296875 63 32.90625 61.328125 32.90625 51.875 
C 32.90625 49.109375 32.5 44.1875 29.09375 39.84375 
C 26.09375 36 22.703125 36 19.40625 35.6875 
C 18.90625 35.6875 16.59375 35.453125 16.203125 35.453125 
C 15.5 35.359375 15.09375 35.265625 15.09375 34.5 
C 15.09375 33.796875 15.203125 33.703125 17.203125 33.703125 
z
" id="CMR17-51"/>
       </defs>
       <use transform="scale(0.996264)" xlink:href="#CMR17-49"/>
       <use transform="translate(45.690477 0)scale(0.996264)" xlink:href="#CMMI12-58"/>
       <use transform="translate(72.787654 0)scale(0.996264)" xlink:href="#CMR17-48"/>
       <use transform="translate(118.478131 0)scale(0.996264)" xlink:href="#CMR17-51"/>
      </g>
     </g>
    </g>
    <g id="ytick_7">
     <g id="line2d_31">
      <g>
       <use style="stroke:#000000;stroke-width:0.8;" x="108" xlink:href="#m4ba26e5f2d" y="180"/>
      </g>
     </g>
     <g id="line2d_32">
      <g>
       <use style="stroke:#000000;stroke-width:0.8;" x="777.6" xlink:href="#m870c008100" y="180"/>
      </g>
     </g>
     <g id="text_7">
      <!-- $\mathdefault{1.04}$ -->
      <g transform="translate(71.44965 186.17469)scale(0.18 -0.18)">
       <defs>
        <path d="M 33.59375 64.40625 
C 33.59375 66.5 33.5 66.5 31.703125 66.5 
L 2 19.59375 
L 2 17 
L 27.796875 17 
L 27.796875 7.140625 
C 27.796875 3.5 27.59375 2.5 20.59375 2.5 
L 18.703125 2.5 
L 18.703125 0 
C 21.90625 0 27.296875 0 30.703125 0 
C 34.09375 0 39.5 0 42.703125 0 
L 42.703125 2.5 
L 40.796875 2.5 
C 33.796875 2.5 33.59375 3.5 33.59375 7.140625 
L 33.59375 17 
L 43.796875 17 
L 43.796875 19.59375 
L 33.59375 19.59375 
z
M 28.09375 57.859375 
L 28.09375 19.59375 
L 4 19.59375 
z
" id="CMR17-52"/>
       </defs>
       <use transform="scale(0.996264)" xlink:href="#CMR17-49"/>
       <use transform="translate(45.690477 0)scale(0.996264)" xlink:href="#CMMI12-58"/>
       <use transform="translate(72.787654 0)scale(0.996264)" xlink:href="#CMR17-48"/>
       <use transform="translate(118.478131 0)scale(0.996264)" xlink:href="#CMR17-52"/>
      </g>
     </g>
    </g>
    <g id="ytick_8">
     <g id="line2d_33">
      <g>
       <use style="stroke:#000000;stroke-width:0.8;" x="108" xlink:href="#m4ba26e5f2d" y="124.56"/>
      </g>
     </g>
     <g id="line2d_34">
      <g>
       <use style="stroke:#000000;stroke-width:0.8;" x="777.6" xlink:href="#m870c008100" y="124.56"/>
      </g>
     </g>
     <g id="text_8">
      <!-- $\mathdefault{1.05}$ -->
      <g transform="translate(71.44965 130.73469)scale(0.18 -0.18)">
       <defs>
        <path d="M 11.40625 57.6875 
C 12.40625 57.28125 16.5 56 20.703125 56 
C 30 56 35.09375 61.109375 38 64.0625 
C 38 64.953125 38 65.5 37.40625 65.5 
C 37.296875 65.5 37.09375 65.5 36.296875 65.046875 
C 32.796875 63.40625 28.703125 62.078125 23.703125 62.078125 
C 20.703125 62.078125 16.203125 62.484375 11.296875 64.671875 
C 10.203125 65.171875 10 65.171875 9.90625 65.171875 
C 9.40625 65.171875 9.296875 65.0625 9.296875 63.078125 
L 9.296875 34.421875 
C 9.296875 32.640625 9.296875 32.140625 10.296875 32.140625 
C 10.796875 32.140625 11 32.34375 11.5 33.03125 
C 14.703125 37.515625 19.09375 39.40625 24.09375 39.40625 
C 27.59375 39.40625 35.09375 37.21875 35.09375 20.140625 
C 35.09375 16.953125 35.09375 11.171875 32.09375 6.578125 
C 29.59375 2.484375 25.703125 0.390625 21.40625 0.390625 
C 14.796875 0.390625 8.09375 5 6.296875 12.71875 
C 6.703125 12.609375 7.5 12.421875 7.90625 12.421875 
C 9.203125 12.421875 11.703125 13.125 11.703125 16.21875 
C 11.703125 18.90625 9.796875 20 7.90625 20 
C 5.59375 20 4.09375 18.59375 4.09375 15.796875 
C 4.09375 7.09375 11 -2 21.59375 -2 
C 31.90625 -2 41.703125 6.875 41.703125 19.75 
C 41.703125 31.71875 33.90625 41 24.203125 41 
C 19.09375 41 14.796875 39.109375 11.40625 35.53125 
z
" id="CMR17-53"/>
       </defs>
       <use transform="scale(0.996264)" xlink:href="#CMR17-49"/>
       <use transform="translate(45.690477 0)scale(0.996264)" xlink:href="#CMMI12-58"/>
       <use transform="translate(72.787654 0)scale(0.996264)" xlink:href="#CMR17-48"/>
       <use transform="translate(118.478131 0)scale(0.996264)" xlink:href="#CMR17-53"/>
      </g>
     </g>
    </g>
    <g id="ytick_9">
     <g id="line2d_35">
      <g>
       <use style="stroke:#000000;stroke-width:0.8;" x="108" xlink:href="#m4ba26e5f2d" y="69.12"/>
      </g>
     </g>
     <g id="line2d_36">
      <g>
       <use style="stroke:#000000;stroke-width:0.8;" x="777.6" xlink:href="#m870c008100" y="69.12"/>
      </g>
     </g>
     <g id="text_9">
      <!-- $\mathdefault{1.06}$ -->
      <g transform="translate(71.44965 75.29469)scale(0.18 -0.18)">
       <defs>
        <path d="M 10.59375 34 
C 10.59375 57.65625 21.796875 63 28.296875 63 
C 30.40625 63 35.5 62.640625 37.5 59 
C 35.90625 59 32.90625 59 32.90625 55.515625 
C 32.90625 52.828125 35.09375 51.921875 36.5 51.921875 
C 37.40625 51.921875 40.09375 52.3125 40.09375 55.625 
C 40.09375 61.78125 35.09375 65.296875 28.203125 65.296875 
C 16.296875 65.296875 3.796875 52.96875 3.796875 31 
C 3.796875 3.953125 15.09375 -2 23.09375 -2 
C 32.796875 -2 42 6.671875 42 20.046875 
C 42 32.515625 33.90625 41.59375 23.703125 41.59375 
C 17.59375 41.59375 13.09375 37.609375 10.59375 30.625 
z
M 23.09375 0.390625 
C 10.796875 0.390625 10.796875 18.75 10.796875 22.4375 
C 10.796875 29.625 14.203125 40 23.5 40 
C 25.203125 40 30.09375 40 33.40625 33.125 
C 35.203125 29.21875 35.203125 25.140625 35.203125 20.140625 
C 35.203125 14.75 35.203125 10.78125 33.09375 6.78125 
C 30.90625 2.671875 27.703125 0.390625 23.09375 0.390625 
z
" id="CMR17-54"/>
       </defs>
       <use transform="scale(0.996264)" xlink:href="#CMR17-49"/>
       <use transform="translate(45.690477 0)scale(0.996264)" xlink:href="#CMMI12-58"/>
       <use transform="translate(72.787654 0)scale(0.996264)" xlink:href="#CMR17-48"/>
       <use transform="translate(118.478131 0)scale(0.996264)" xlink:href="#CMR17-54"/>
      </g>
     </g>
    </g>
    <g id="text_10">
     <!-- Growth Factors -->
     <g transform="translate(63.18704 360.140894)rotate(-90)scale(0.22 -0.22)">
      <defs>
       <path d="M 55.296875 7.609375 
L 55.40625 7.609375 
C 55.90625 5.203125 58.09375 0 59.5 0 
L 59.59375 0 
C 59.703125 0.125 59.796875 0.328125 59.796875 0.671875 
C 59.796875 0.96875 59.703125 1.46875 59.703125 1.671875 
L 59.703125 18.328125 
C 59.703125 18.9375 59.59375 19.734375 59.59375 20.421875 
C 59.59375 23.796875 62 24 65.90625 24 
L 65.90625 26.203125 
L 43.59375 26.203125 
L 43.59375 24 
C 44.796875 24 46.203125 24 47.703125 24 
C 52 24 54.796875 23.6875 54.796875 19.4375 
L 54.796875 13.59375 
C 54.796875 8.328125 52.296875 1 38.40625 1 
C 21.296875 1 10.59375 15.875 10.59375 34.34375 
C 10.59375 43.828125 13.203125 53.625 20.203125 60.125 
C 24.59375 64.203125 31 67 37.09375 67 
C 48.5 67 55.703125 56.703125 57.796875 45.90625 
L 58.09375 43.796875 
C 58.296875 43.203125 58.09375 42.203125 59 42.203125 
C 59.59375 42.203125 59.703125 42.609375 59.703125 43.109375 
L 59.703125 68.3125 
C 59.703125 68.625 59.703125 69 59.40625 69.109375 
L 59.296875 69.109375 
C 58.5 69.109375 55.09375 59.6875 54.703125 58.09375 
C 49.796875 63.84375 45.40625 69.109375 35.90625 69.109375 
C 17.5 69.109375 5 51.5625 5 33.90625 
C 5 16.65625 16.796875 -1.203125 36.40625 -1.203125 
C 43 -1.203125 53.09375 1 55.296875 7.609375 
z
" id="Computer_Modern_Roman-71"/>
       <path d="M 4.5 42.90625 
L 4.5 40.703125 
L 5.5 40.703125 
C 8.703125 40.703125 10.40625 40 10.40625 35.546875 
L 10.40625 5.640625 
C 10.40625 2.40625 8 2.203125 4.5 2.203125 
L 4.5 0 
L 21.703125 0 
L 21.703125 2.203125 
L 19.703125 2.203125 
C 16.796875 2.203125 14.40625 2.5 14.40625 6.359375 
L 14.40625 21.09375 
C 14.40625 29.6875 16.203125 42.8125 25.90625 42.8125 
C 27 42.8125 28.09375 42.515625 29.09375 42.109375 
C 27.90625 41.609375 26.90625 40.796875 26.90625 39.375 
C 26.90625 37.96875 28 36.546875 29.703125 36.546875 
C 31.203125 36.546875 32.40625 37.859375 32.40625 39.359375 
C 32.40625 42.6875 28.703125 44 26 44 
C 19.90625 44 15.296875 38.046875 14.40625 32.5 
L 14.296875 44 
z
" id="Computer_Modern_Roman-114"/>
       <path d="M 21.09375 44 
C 9.59375 42.59375 3.703125 31.90625 3.703125 21.5 
C 3.703125 10.90625 10.703125 -0.5 22.5 -0.5 
L 23.5 -0.5 
C 35 0.90625 41 11.5 41 21.59375 
C 41 31.796875 34.09375 44.09375 22.5 44.09375 
C 22 44.09375 21.59375 44 21.09375 44 
z
M 8.796875 19.90625 
L 8.796875 21.5 
C 8.796875 29 9.703125 37.421875 17.40625 41.609375 
C 18.703125 42.21875 20.203125 42.71875 21.703125 42.71875 
L 22.40625 42.71875 
C 32.09375 42.71875 35.90625 31.4375 35.90625 23.359375 
C 35.90625 15.46875 35.09375 4.203125 25.09375 1.203125 
C 24.203125 1 23.296875 0.796875 22.40625 0.796875 
C 15 0.796875 10.203125 8.203125 9.296875 15.296875 
C 9 16.796875 9 18.40625 8.796875 19.90625 
z
" id="Computer_Modern_Roman-111"/>
       <path d="M 1.40625 43 
L 1.40625 40.8125 
L 2.203125 40.8125 
C 6.203125 40.8125 6.703125 39 8.796875 32.625 
L 19 1.90625 
C 19.296875 1.09375 19.5 -0.5 20.59375 -0.5 
L 20.703125 -0.5 
C 21.59375 -0.296875 21.90625 1.5 22.203125 2.296875 
L 28 19.75 
C 28.90625 22.546875 29.796875 25.34375 30.796875 28.140625 
C 31.296875 29.71875 32 31.328125 32.296875 32.921875 
L 32.40625 32.921875 
C 32.703125 31.328125 33.40625 29.71875 33.90625 28.140625 
C 34.90625 25.34375 35.796875 22.546875 36.703125 19.75 
L 42.5 2.296875 
C 42.796875 1.5 43.09375 -0.296875 44 -0.5 
L 44.09375 -0.5 
C 45.203125 -0.5 45.40625 1.09375 45.703125 1.90625 
L 48.40625 9.96875 
C 51 17.859375 53.59375 25.640625 56.203125 33.515625 
C 57.203125 36.71875 59 40.8125 63.296875 40.8125 
L 63.296875 43 
L 51.5 43 
L 51.5 40.8125 
C 54 40.8125 55.5 38.5 55.5 36.71875 
C 55.5 35.21875 54.90625 33.71875 54.40625 32.328125 
C 51.40625 23.453125 48.5 14.46875 45.5 5.59375 
C 44.296875 8.40625 43.5 11.390625 42.59375 14.28125 
C 40.296875 21.15625 37.90625 28.140625 35.59375 35.125 
C 35.296875 36.125 34.703125 37.328125 34.703125 38.40625 
C 34.703125 40.5 37.296875 40.8125 38.90625 40.8125 
L 38.90625 43 
L 25 43 
L 25 40.8125 
L 25.703125 40.8125 
C 28.5 40.8125 30 40.203125 31 36.828125 
C 31.203125 36.328125 31.5 35.625 31.5 35.015625 
L 31.5 34.828125 
C 31.40625 33.828125 31 32.921875 30.703125 32.015625 
L 28.796875 26.53125 
C 26.40625 19.75 24 12.765625 22 5.890625 
L 21.90625 5.890625 
C 21.703125 6.984375 21.203125 8.078125 20.90625 9.1875 
L 19 14.875 
C 17.09375 20.546875 15.203125 26.15625 13.296875 31.84375 
L 11.90625 36.21875 
C 11.59375 36.921875 11.296875 37.71875 11.296875 38.421875 
L 11.296875 38.71875 
C 11.59375 40.5 14 40.8125 15.5 40.8125 
L 15.5 43 
z
" id="Computer_Modern_Roman-119"/>
       <path d="M 13.203125 61.5 
C 13.203125 55.8125 11.90625 42 1.703125 42 
L 1.703125 40.8125 
L 10.40625 40.8125 
L 10.40625 17.75 
C 10.40625 16.375 10.296875 14.765625 10.296875 13.265625 
C 10.296875 7.078125 12.296875 -0.5 20.59375 -0.5 
C 28.296875 -0.5 29.796875 7.984375 29.796875 14.171875 
L 29.796875 18.046875 
L 28.5 18.046875 
C 28.5 16.546875 28.59375 15.0625 28.59375 13.46875 
C 28.59375 8.984375 27.703125 0.796875 21.5 0.796875 
C 15.703125 0.796875 14.40625 7.890625 14.40625 13.265625 
C 14.40625 14.96875 14.5 16.5625 14.5 18.25 
L 14.5 40.8125 
L 28.296875 40.8125 
L 28.296875 43 
L 14.5 43 
L 14.5 61.5 
z
" id="Computer_Modern_Roman-116"/>
       <path d="M 4.703125 68.203125 
L 4.703125 66 
L 5.90625 66 
C 9.40625 66 10.59375 64.5 10.59375 61.109375 
L 10.59375 5.8125 
C 10.59375 2.8125 9.296875 2.203125 4.703125 2.203125 
L 4.703125 0 
L 20.59375 0 
L 20.59375 2.203125 
L 19.203125 2.203125 
C 16.90625 2.203125 14.703125 2.5 14.703125 5.640625 
L 14.703125 27.765625 
C 15.296875 34.640625 18.796875 42.8125 26.703125 42.8125 
C 33 42.8125 35.40625 37.765625 35.40625 30.484375 
L 35.40625 5.640625 
C 35.40625 2.40625 33 2.203125 29.5 2.203125 
L 29.5 0 
L 45.40625 0 
L 45.40625 2.203125 
L 43.796875 2.203125 
C 41.5 2.203125 39.5 2.5 39.5 6.03125 
L 39.5 29.359375 
C 39.5 36.125 38.203125 44 27.5 44 
C 22.296875 44 18.40625 41.078125 16.09375 36.84375 
C 15.5 35.828125 14.90625 34.640625 14.703125 33.515625 
L 14.59375 69.296875 
z
" id="Computer_Modern_Roman-104"/>
       <path d="M 7.296875 68.203125 
L 7.296875 66 
L 9 66 
C 11.59375 66 13.703125 65.703125 13.703125 61.8125 
L 13.703125 6.40625 
C 13.703125 2.5 12 2.203125 7.296875 2.203125 
L 7.296875 0 
L 26.59375 0 
L 26.59375 2.203125 
L 24.296875 2.203125 
C 20.796875 2.203125 18.59375 2.5 18.59375 6.3125 
L 18.59375 33 
L 27.796875 33 
C 31 33 34.703125 33 36.5 30.15625 
C 37.796875 28.25 37.90625 25.515625 37.90625 23.078125 
L 37.90625 21.375 
L 39.203125 21.375 
L 39.203125 46.96875 
L 37.90625 46.96875 
L 37.90625 45.265625 
C 37.90625 37.796875 35.703125 35.296875 25.703125 35.296875 
L 18.59375 35.296875 
L 18.59375 63.21875 
C 18.59375 65 19.40625 66 21.296875 66 
L 34.40625 66 
C 41.09375 66 48.703125 66 51.59375 57.1875 
C 52.796875 53.78125 53 50.0625 53.40625 46.5625 
L 54.703125 46.5625 
L 52.59375 68.203125 
z
" id="Computer_Modern_Roman-70"/>
       <path d="M 9 32.5 
C 10.296875 37.703125 13.796875 42.8125 19.90625 42.8125 
C 25.296875 42.8125 29.203125 37.734375 30 32.828125 
C 30.203125 31.53125 30.203125 30.125 30.203125 28.84375 
L 30.203125 24.953125 
C 20.59375 24.953125 7.40625 22.75 5 10.71875 
C 4.90625 10.109375 4.90625 9.421875 4.90625 8.8125 
C 4.90625 2.09375 12.5 -0.5 17.703125 -0.5 
C 22.59375 -0.5 29 2.765625 30.296875 8.359375 
L 30.40625 8.359375 
C 30.40625 4.1875 33.203125 0 37.40625 0 
C 42.90625 0 44.203125 5.875 44.203125 10.15625 
L 44.203125 14.625 
L 42.90625 14.625 
L 42.90625 9.5625 
C 42.90625 6.375 42.203125 1.796875 38.59375 1.796875 
C 34.5 1.796875 34.296875 7.078125 34.296875 9.765625 
L 34.296875 28.28125 
C 34.296875 30.765625 34.203125 33.34375 33.203125 35.75 
C 31.09375 40.609375 25.59375 44 20.203125 44 
C 12.5 44 7.5 37.28125 7.5 29.96875 
C 7.5 28.09375 8.90625 27 10.5 27 
C 12.09375 27 13.40625 28.296875 13.40625 29.90625 
C 13.40625 31.40625 12.40625 32.796875 10.5 32.796875 
C 10 32.796875 9.5 32.703125 9 32.5 
z
M 30.203125 23.859375 
L 30.203125 14.03125 
C 30.203125 7.421875 26.09375 1.203125 19.203125 0.703125 
L 18.59375 0.703125 
C 14 0.703125 9.796875 4.3125 9.796875 9.21875 
C 9.796875 19.640625 21.296875 23.859375 30.203125 23.859375 
z
" id="Computer_Modern_Roman-97"/>
       <path d="M 34.703125 32.6875 
C 34.203125 32.796875 33.703125 32.890625 33.203125 32.890625 
C 31.59375 32.890625 30.40625 31.5 30.40625 30 
C 30.40625 28.5 31.59375 27 33.296875 27 
C 34.703125 27 36.09375 28 36.296875 29.5 
L 36.296875 30.09375 
C 36.296875 36.96875 30.703125 44.046875 22.5 44.046875 
C 11.203125 44.046875 4.203125 32.328125 4.203125 21.71875 
C 4.203125 11.21875 10.59375 0.5 21.296875 -0.5 
L 22.296875 -0.5 
C 29.40625 -0.5 35 4.015625 37 10.75 
C 37.09375 11.140625 37.203125 11.546875 37.203125 11.953125 
C 37.203125 12.25 37 12.34375 36.796875 12.34375 
C 35.703125 12.34375 35.5 10.453125 35.09375 9.4375 
C 33.296875 4.3125 28.5 0.796875 23.40625 0.796875 
C 13.90625 0.796875 9.296875 12.015625 9.296875 20.234375 
C 9.296875 28.640625 11.09375 42.765625 22.703125 42.765625 
C 28.296875 42.765625 33.40625 38.171875 34.703125 32.6875 
z
" id="Computer_Modern_Roman-99"/>
       <path d="M 6.59375 6 
C 9 2.203125 12.203125 -0.5 17.59375 -0.5 
C 24.203125 -0.5 32.296875 2.296875 32.296875 11.9375 
C 32.296875 16.734375 29.703125 21.140625 25 23.453125 
C 19 26.46875 8.40625 25.0625 6 32.578125 
C 5.796875 33.171875 5.703125 33.875 5.703125 34.578125 
C 5.703125 40.5 11.703125 43 17.09375 43 
C 22.90625 43 27.90625 39.671875 28.703125 30.265625 
C 28.796875 29.765625 28.703125 28.46875 29.40625 28.46875 
C 30 28.46875 30.09375 28.96875 30.09375 29.578125 
L 30.09375 43.09375 
C 30.09375 43.5 30.09375 44 29.703125 44 
C 29.203125 44 27.59375 41.1875 27.09375 39.6875 
C 24.40625 42.53125 21.5 44 17.5 44 
C 11.40625 44 3 42 3 32.9375 
C 3 22.25 16.09375 22.25 22 20.140625 
C 26.09375 18.75 29.59375 15.234375 29.59375 10.71875 
L 29.59375 10.515625 
C 29.40625 4.203125 24.5 0.703125 17.796875 0.703125 
C 8.5 0.703125 5.796875 9.4375 4.59375 16.640625 
C 4.5 17.25 4.5 18.453125 3.703125 18.453125 
C 3.09375 18.453125 3 18.046875 3 17.546875 
L 3 0.40625 
C 3 0.09375 3 -0.296875 3.296875 -0.40625 
L 3.40625 -0.40625 
C 4.09375 -0.40625 5.796875 4 6.59375 6 
z
" id="Computer_Modern_Roman-115"/>
      </defs>
      <use transform="scale(0.996264)" xlink:href="#Computer_Modern_Roman-71"/>
      <use transform="translate(69.984157 0)scale(0.996264)" xlink:href="#Computer_Modern_Roman-114"/>
      <use transform="translate(104.642503 0)scale(0.996264)" xlink:href="#Computer_Modern_Roman-111"/>
      <use transform="translate(146.740981 0)scale(0.996264)" xlink:href="#Computer_Modern_Roman-119"/>
      <use transform="translate(211.159568 0)scale(0.996264)" xlink:href="#Computer_Modern_Roman-116"/>
      <use transform="translate(245.817914 0)scale(0.996264)" xlink:href="#Computer_Modern_Roman-104"/>
      <use transform="translate(325.054635 0)scale(0.996264)" xlink:href="#Computer_Modern_Roman-70"/>
      <use transform="translate(375.804357 0)scale(0.996264)" xlink:href="#Computer_Modern_Roman-97"/>
      <use transform="translate(420.382823 0)scale(0.996264)" xlink:href="#Computer_Modern_Roman-99"/>
      <use transform="translate(460.001222 0)scale(0.996264)" xlink:href="#Computer_Modern_Roman-116"/>
      <use transform="translate(494.659568 0)scale(0.996264)" xlink:href="#Computer_Modern_Roman-111"/>
      <use transform="translate(539.238035 0)scale(0.996264)" xlink:href="#Computer_Modern_Roman-114"/>
      <use transform="translate(573.896381 0)scale(0.996264)" xlink:href="#Computer_Modern_Roman-115"/>
     </g>
    </g>
   </g>
   <g id="line2d_37">
    <path clip-path="url(#pf379ed094b)" d="M -1 377.419831 
L 640.636364 377.419831 
" style="fill:none;stroke:#0000ff;stroke-linecap:square;stroke-width:1.5;"/>
   </g>
   <g id="line2d_38">
    <path clip-path="url(#pf379ed094b)" d="M -1 235.44 
L 640.636364 235.44 
" style="fill:none;stroke:#000000;stroke-linecap:square;stroke-width:1.5;"/>
   </g>
   <g id="line2d_39">
    <path clip-path="url(#pf379ed094b)" d="M 102.293055 -1 
L 108.382366 12.340792 
L 114.500228 25.136619 
L 120.61809 37.350377 
L 126.735952 49.007093 
L 132.853815 60.130733 
L 138.971677 70.74587 
L 145.089539 80.875471 
L 151.207401 90.541437 
L 157.325263 99.765354 
L 163.443125 108.568619 
L 169.560987 116.970062 
L 175.678849 124.989236 
L 181.796711 132.645267 
L 187.914573 139.954843 
L 194.032435 146.934608 
L 200.150297 153.601458 
L 206.268159 159.969861 
L 212.386021 166.054886 
L 218.503883 171.86983 
L 224.621745 177.428907 
L 230.739607 182.743513 
L 236.857469 187.826994 
L 242.975331 192.688848 
L 249.093193 197.342128 
L 255.211055 201.79475 
L 261.328917 206.058775 
L 270.50571 212.120569 
L 279.682503 217.802171 
L 288.859296 223.13667 
L 298.03609 228.145983 
L 307.212883 232.849761 
L 316.389676 237.27351 
L 325.566469 241.43632 
L 334.743262 245.356197 
L 343.920055 249.048516 
L 353.096848 252.527749 
L 362.273641 255.809007 
L 374.509365 259.89714 
L 386.745089 263.687316 
L 398.980813 267.203331 
L 411.216537 270.467518 
L 423.452261 273.500256 
L 435.687985 276.320392 
L 447.923709 278.945273 
L 460.159434 281.390417 
L 475.454089 284.216003 
L 490.748744 286.807207 
L 506.043399 289.186866 
L 524.396985 291.786949 
L 542.750571 294.13795 
L 561.104157 296.267446 
L 579.457743 298.195303 
L 600.87026 300.217466 
L 622.282778 302.022048 
L 640.636364 303.413619 
L 640.636364 303.413619 
" style="fill:none;stroke:#0000ff;stroke-linecap:square;stroke-width:1.5;"/>
   </g>
   <g id="line2d_40">
    <path clip-path="url(#pf379ed094b)" d="M 215.883584 -1 
L 221.562814 11.093343 
L 227.680676 23.773044 
L 233.798538 36.111298 
L 242.975331 54.003304 
L 252.152124 71.188175 
L 261.328917 87.703899 
L 270.50571 103.583827 
L 279.682503 118.856844 
L 288.859296 133.556453 
L 298.03609 147.708886 
L 307.212883 161.338602 
L 316.389676 174.472882 
L 325.566469 187.134971 
L 334.743262 199.346594 
L 343.920055 211.128056 
L 353.096848 222.498407 
L 362.273641 233.476705 
L 371.450434 244.08051 
L 380.627227 254.32652 
L 389.80402 264.229368 
L 398.980813 273.804287 
L 408.157606 283.065254 
L 417.334399 292.025887 
L 426.511192 300.69879 
L 435.687985 309.094858 
L 444.864778 317.2248 
L 454.041571 325.101123 
L 463.218365 332.732704 
L 472.395158 340.128715 
L 481.571951 347.299808 
L 490.748744 354.252373 
L 502.984468 363.200412 
L 515.220192 371.793287 
L 527.455916 380.051676 
L 539.69164 387.988576 
L 551.927364 395.621414 
L 564.163088 402.964167 
L 576.398812 410.028624 
L 588.634536 416.828395 
L 600.87026 423.375357 
L 613.105984 429.680639 
L 625.341709 435.754503 
L 637.577433 441.607069 
L 640.636364 443.036704 
L 640.636364 443.036704 
" style="fill:none;stroke:#ff0000;stroke-linecap:square;stroke-width:1.5;"/>
   </g>
   <g id="line2d_41">
    <path clip-path="url(#pf379ed094b)" d="M 149.601174 -1 
L 154.266332 12.099403 
L 160.384194 28.807243 
L 166.502056 45.023668 
L 172.619918 60.766288 
L 178.73778 76.051454 
L 184.855642 90.895545 
L 190.973504 105.313554 
L 197.091366 119.321512 
L 203.209228 132.932329 
L 209.32709 146.161452 
L 215.444952 159.020922 
L 221.562814 171.524837 
L 227.680676 183.684443 
L 233.798538 195.512822 
L 239.9164 207.02037 
L 249.093193 223.706302 
L 258.269986 239.729501 
L 267.446779 255.125626 
L 276.623572 269.927743 
L 285.800365 284.159543 
L 294.977159 297.854212 
L 304.153952 311.037281 
L 313.330745 323.730864 
L 322.507538 335.959125 
L 331.684331 347.744684 
L 340.861124 359.108185 
L 350.037917 370.068578 
L 359.21471 380.644112 
L 368.391503 390.852137 
L 377.568296 400.708784 
L 386.745089 410.229661 
L 395.921882 419.429426 
L 405.098675 428.321918 
L 414.275468 436.920473 
L 423.452261 445.23665 
L 432.629054 453.281543 
L 441.805847 461.067744 
L 450.98264 468.606286 
L 460.159434 475.903797 
L 469.336227 482.973329 
L 478.51302 489.821909 
L 487.689813 496.458802 
L 499.925537 504.992436 
L 512.161261 513.181271 
L 524.396985 521.043423 
L 536.632709 528.593634 
L 548.868433 535.847358 
L 561.104157 542.81917 
L 573.339881 549.521045 
L 585.575605 555.965507 
L 597.811329 562.164627 
L 610.047053 568.129313 
L 622.282778 573.869721 
L 629.159625 577 
L 629.159625 577 
" style="fill:none;stroke:#008000;stroke-linecap:square;stroke-width:1.5;"/>
   </g>
   <g id="line2d_42">
    <path clip-path="url(#pf379ed094b)" d="M 363.949454 235.44 
" style="fill:none;stroke:#000000;stroke-linecap:square;stroke-width:1.5;"/>
    <defs>
     <path d="M 0 3 
C 0.795609 3 1.55874 2.683901 2.12132 2.12132 
C 2.683901 1.55874 3 0.795609 3 0 
C 3 -0.795609 2.683901 -1.55874 2.12132 -2.12132 
C 1.55874 -2.683901 0.795609 -3 0 -3 
C -0.795609 -3 -1.55874 -2.683901 -2.12132 -2.12132 
C -2.683901 -1.55874 -3 -0.795609 -3 0 
C -3 0.795609 -2.683901 1.55874 -2.12132 2.12132 
C -1.55874 2.683901 -0.795609 3 0 3 
z
" id="mba10e61548" style="stroke:#000000;"/>
    </defs>
    <g clip-path="url(#pf379ed094b)">
     <use style="stroke:#000000;" x="363.949454" xlink:href="#mba10e61548" y="235.44"/>
    </g>
   </g>
   <g id="line2d_43">
    <path clip-path="url(#pf379ed094b)" d="M 378.565553 401.76 
" style="fill:none;stroke:#000000;stroke-linecap:square;stroke-width:1.5;"/>
    <g clip-path="url(#pf379ed094b)">
     <use style="stroke:#000000;" x="378.565553" xlink:href="#mba10e61548" y="401.76"/>
    </g>
   </g>
   <g id="patch_3">
    <path d="M 108 512.64 
L 108 69.12 
" style="fill:none;stroke:#000000;stroke-linecap:square;stroke-linejoin:miter;stroke-width:0.8;"/>
   </g>
   <g id="patch_4">
    <path d="M 777.6 512.64 
L 777.6 69.12 
" style="fill:none;stroke:#000000;stroke-linecap:square;stroke-linejoin:miter;stroke-width:0.8;"/>
   </g>
   <g id="patch_5">
    <path d="M 108 512.64 
L 777.6 512.64 
" style="fill:none;stroke:#000000;stroke-linecap:square;stroke-linejoin:miter;stroke-width:0.8;"/>
   </g>
   <g id="patch_6">
    <path d="M 108 69.12 
L 777.6 69.12 
" style="fill:none;stroke:#000000;stroke-linecap:square;stroke-linejoin:miter;stroke-width:0.8;"/>
   </g>
   <g id="text_11">
    <!-- $1.00 = \Ex_{t}[\mRat_{t+1}/\mRat_{t}]:~ \Trg{m} \rightarrow~~$ -->
    <g transform="translate(124.909504 407.304)scale(0.22 -0.22)">
     <defs>
      <path d="M 64.296875 31.515625 
C 65.796875 31.515625 67.296875 31.515625 67.296875 33.203125 
C 67.296875 35 65.59375 35 63.90625 35 
L 8 35 
C 6.296875 35 4.59375 35 4.59375 33.203125 
C 4.59375 31.515625 6.09375 31.515625 7.59375 31.515625 
z
M 63.90625 14 
C 65.59375 14 67.296875 14 67.296875 15.796875 
C 67.296875 17.484375 65.796875 17.484375 64.296875 17.484375 
L 7.59375 17.484375 
C 6.09375 17.484375 4.59375 17.484375 4.59375 15.796875 
C 4.59375 14 6.296875 14 8 14 
z
" id="CMR17-61"/>
      <path d="M 25.90625 34 
C 28.40625 34 33.203125 34 36.703125 31.96875 
C 41.5 28.953125 41.90625 23.703125 41.90625 23.125 
C 42 21.765625 42 20.5 43.703125 20.5 
C 45.40625 20.5 45.40625 21.890625 45.40625 23.703125 
L 45.40625 50.796875 
C 45.40625 52.390625 45.40625 54 43.703125 54 
C 42 54 41.90625 52.421875 41.90625 51.578125 
C 41.296875 38 31.09375 38 25.90625 38 
L 25.90625 58.9375 
C 25.90625 65.59375 27.796875 65.59375 30.203125 65.59375 
L 35 65.59375 
C 48.5 65.59375 55.203125 58.734375 55.796875 51.875 
C 55.90625 51.078125 56 49.59375 57.59375 49.59375 
C 59.296875 49.59375 59.296875 51.1875 59.296875 52.890625 
L 59.296875 65.90625 
C 59.296875 69 59.09375 69 56 69 
L 4.796875 69 
C 3 69 1.40625 69 1.40625 67.25 
C 1.40625 65.59375 3.296875 65.59375 4.09375 65.59375 
C 9.796875 65.59375 10.203125 64.796875 10.203125 59.875 
L 10.203125 9.71875 
C 10.203125 5 9.90625 4 4.59375 4 
C 3.09375 4 1.40625 4 1.40625 2.296875 
C 1.40625 0.5 3 0.5 4.796875 0.5 
L 57.796875 0.5 
C 59.703125 0.5 60.703125 0.5 61 1.921875 
C 61.09375 2.015625 63.90625 18.953125 63.90625 19.453125 
C 63.90625 20.5625 63 21.28125 62.203125 21.28125 
C 60.796875 21.28125 60.40625 19.96875 60.40625 19.859375 
C 59.796875 17.21875 58.796875 12.9375 51.5 8.578125 
C 46.296875 5.421875 41.203125 4 35.703125 4 
L 30.203125 4 
C 27.796875 4 25.90625 4 25.90625 10.6875 
z
M 55.796875 65.59375 
L 55.796875 60.875 
C 54.09375 62.734375 52.203125 64.3125 50.09375 65.59375 
z
M 36.296875 36.171875 
C 37.90625 36.875 40.09375 38.375 41.90625 40.46875 
L 41.90625 32.0625 
C 39.5 34.765625 36.40625 36.0625 36.296875 36.0625 
z
M 13.703125 60.078125 
C 13.703125 61.296875 13.703125 63.796875 12.90625 65.59375 
L 23.5 65.59375 
C 22.40625 63.296875 22.40625 59.984375 22.40625 59.078125 
L 22.40625 10.515625 
C 22.40625 6.90625 23.09375 4.90625 23.5 4 
L 12.90625 4 
C 13.703125 5.796875 13.703125 8.296875 13.703125 9.515625 
z
M 50.90625 4 
L 50.90625 4.09375 
C 54.09375 5.734375 56.796875 7.875 58.796875 9.703125 
C 58.703125 9.3125 58 4.8125 57.90625 4 
z
" id="MSBM10-69"/>
      <path d="M 20.09375 40.09375 
L 29.296875 40.09375 
C 31.203125 40.09375 32.203125 40.09375 32.203125 41.890625 
C 32.203125 43 31.59375 43 29.59375 43 
L 20.796875 43 
L 24.5 57.6875 
C 24.90625 59.078125 24.90625 59.28125 24.90625 60 
C 24.90625 61.609375 23.59375 62.5 22.296875 62.5 
C 21.5 62.5 19.203125 62.203125 18.40625 58.984375 
L 14.5 43 
L 5.09375 43 
C 3.09375 43 2.203125 43 2.203125 41.09375 
C 2.203125 40.09375 2.90625 40.09375 4.796875 40.09375 
L 13.703125 40.09375 
L 7.09375 13.765625 
C 6.296875 10.28125 6 9.28125 6 7.984375 
C 6 3.296875 9.296875 -1 14.90625 -1 
C 25 -1 30.40625 13.5625 30.40625 14.25 
C 30.40625 14.859375 30 15.15625 29.40625 15.15625 
C 29.203125 15.15625 28.796875 15.15625 28.59375 14.75 
C 28.5 14.65625 28.40625 14.546875 27.703125 12.953125 
C 25.59375 7.984375 21 1 15.203125 1 
C 12.203125 1 12 3.5 12 5.6875 
C 12 5.78125 12 7.6875 12.296875 8.875 
z
" id="CMMI12-116"/>
      <path d="M 23.5 -25 
L 23.5 -21.515625 
L 14.09375 -21.515625 
L 14.09375 71 
L 23.5 71 
L 23.5 74.484375 
L 10.59375 74.484375 
L 10.59375 -25 
z
" id="CMR17-91"/>
      <path d="M 20.59375 29.234375 
C 20.796875 29.84375 23.296875 34.828125 27 38.015625 
C 29.59375 40.40625 33 42.015625 36.90625 42.015625 
C 40.90625 42.015625 42.296875 39.015625 42.296875 35.03125 
C 42.296875 34.421875 42.296875 32.4375 41.09375 27.734375 
L 38.59375 17.46875 
C 37.796875 14.46875 35.90625 7.078125 35.703125 5.984375 
C 35.296875 4.484375 34.703125 1.890625 34.703125 1.5 
C 34.703125 0.09375 35.796875 -1 37.296875 -1 
C 40.296875 -1 40.796875 1.296875 41.703125 4.890625 
L 47.703125 28.734375 
C 47.90625 29.53125 53.09375 42.015625 64.09375 42.015625 
C 68.09375 42.015625 69.5 39.015625 69.5 35.03125 
C 69.5 29.4375 65.59375 18.5625 63.40625 12.578125 
C 62.5 10.171875 62 8.875 62 7.078125 
C 62 2.59375 65.09375 -1 69.90625 -1 
C 79.203125 -1 82.703125 13.671875 82.703125 14.265625 
C 82.703125 14.765625 82.296875 15.171875 81.703125 15.171875 
C 80.796875 15.171875 80.703125 14.875 80.203125 13.171875 
C 77.90625 5.1875 74.203125 1 70.203125 1 
C 69.203125 1 67.59375 1 67.59375 4.203125 
C 67.59375 6.8125 68.796875 10 69.203125 11.09375 
C 71 15.90625 75.5 27.703125 75.5 33.515625 
C 75.5 39.5 72 44 64.40625 44 
C 57.703125 44 52.296875 40.21875 48.296875 34.328125 
C 48 39.71875 44.703125 44 37.203125 44 
C 28.296875 44 23.59375 37.734375 21.796875 35.234375 
C 21.5 40.90625 17.40625 44 13 44 
C 10.09375 44 7.796875 42.609375 5.90625 38.8125 
C 4.09375 35.21875 2.703125 29.140625 2.703125 28.734375 
C 2.703125 28.34375 3.09375 27.84375 3.796875 27.84375 
C 4.59375 27.84375 4.703125 27.9375 5.296875 30.234375 
C 6.796875 36.125 8.703125 42.015625 12.703125 42.015625 
C 15 42.015625 15.796875 40.40625 15.796875 37.421875 
C 15.796875 35.21875 14.796875 31.328125 14.09375 28.234375 
L 11.296875 17.46875 
C 10.90625 15.5625 9.796875 11.078125 9.296875 9.28125 
C 8.59375 6.6875 7.5 2 7.5 1.5 
C 7.5 0.09375 8.59375 -1 10.09375 -1 
C 11.296875 -1 12.703125 -0.40625 13.5 1.09375 
C 13.703125 1.59375 14.59375 5.09375 15.09375 7.078125 
L 17.296875 16.0625 
z
" id="CMMI12-109"/>
      <path d="M 37.703125 23 
L 64.203125 23 
C 65.59375 23 67.296875 23 67.296875 24.6875 
C 67.296875 26.484375 65.703125 26.484375 64.203125 26.484375 
L 37.703125 26.484375 
L 37.703125 52.90625 
C 37.703125 54.296875 37.703125 56 36 56 
C 34.203125 56 34.203125 54.40625 34.203125 52.90625 
L 34.203125 26.484375 
L 7.703125 26.484375 
C 6.296875 26.484375 4.59375 26.484375 4.59375 24.796875 
C 4.59375 23 6.203125 23 7.703125 23 
L 34.203125 23 
L 34.203125 -3.40625 
C 34.203125 -4.796875 34.203125 -6.5 35.90625 -6.5 
C 37.703125 -6.5 37.703125 -4.90625 37.703125 -3.40625 
z
" id="CMR17-43"/>
      <path d="M 42.90625 71.28125 
C 42.90625 71.390625 43.5 72.90625 43.5 73.09375 
C 43.5 74.296875 42.5 75 41.703125 75 
C 41.203125 75 40.296875 75 39.5 72.796875 
L 6 -21.296875 
C 6 -21.40625 5.40625 -22.890625 5.40625 -23.09375 
C 5.40625 -24.296875 6.40625 -25 7.203125 -25 
C 7.796875 -25 8.703125 -24.890625 9.40625 -22.796875 
z
" id="CMMI12-61"/>
      <path d="M 14.296875 74.484375 
L 1.40625 74.484375 
L 1.40625 71 
L 10.796875 71 
L 10.796875 -21.515625 
L 1.40625 -21.515625 
L 1.40625 -25 
L 14.296875 -25 
z
" id="CMR17-93"/>
      <path d="M 16.59375 38.921875 
C 16.59375 41.40625 14.59375 43 12.5 43 
C 10.5 43 8.40625 41.40625 8.40625 38.921875 
C 8.40625 36.4375 10.40625 34.84375 12.5 34.84375 
C 14.5 34.84375 16.59375 36.4375 16.59375 38.921875 
z
M 16.59375 4.078125 
C 16.59375 6.5625 14.59375 8.15625 12.5 8.15625 
C 10.5 8.15625 8.40625 6.5625 8.40625 4.078125 
C 8.40625 1.59375 10.40625 0 12.5 0 
C 14.5 0 16.59375 1.59375 16.59375 4.078125 
z
" id="CMR17-58"/>
      <path d="M 22.90625 69.078125 
L 10.59375 55.546875 
L 11.796875 54.34375 
L 22.90625 65.09375 
L 34 54.34375 
L 35.203125 55.546875 
z
" id="CMR17-94"/>
      <path d="M 83.40625 23 
C 77.90625 18.796875 75.203125 14.703125 74.40625 13.40625 
C 69.90625 6.5 69.09375 0.203125 69.09375 0.09375 
C 69.09375 -1.09375 70.296875 -1.09375 71.09375 -1.09375 
C 72.796875 -1.09375 72.90625 -0.90625 73.296875 0.90625 
C 75.59375 10.703125 81.5 19.09375 92.796875 23.703125 
C 94 24.09375 94.296875 24.296875 94.296875 25 
C 94.296875 25.703125 93.703125 26 93.5 26.09375 
C 89.09375 27.796875 77 32.796875 73.203125 49.59375 
C 72.90625 50.796875 72.796875 51.09375 71.09375 51.09375 
C 70.296875 51.09375 69.09375 51.09375 69.09375 49.890625 
C 69.09375 49.6875 70 43.390625 74.203125 36.703125 
C 76.203125 33.703125 79.09375 30.203125 83.40625 27 
L 9.09375 27 
C 7.296875 27 5.5 27 5.5 25 
C 5.5 23 7.296875 23 9.09375 23 
z
" id="CMSY10-33"/>
     </defs>
     <use transform="scale(0.996264)" xlink:href="#CMR17-49"/>
     <use transform="translate(45.690477 0)scale(0.996264)" xlink:href="#CMMI12-58"/>
     <use transform="translate(72.787654 0)scale(0.996264)" xlink:href="#CMR17-48"/>
     <use transform="translate(118.478131 0)scale(0.996264)" xlink:href="#CMR17-48"/>
     <use transform="translate(191.842617 0)scale(0.996264)" xlink:href="#CMR17-61"/>
     <use transform="translate(291.231414 0)scale(0.996264)" xlink:href="#MSBM10-69"/>
     <use transform="translate(357.649233 -14.943915)scale(0.697382)" xlink:href="#CMMI12-116"/>
     <use transform="translate(382.805674 0)scale(0.996264)" xlink:href="#CMR17-91"/>
     <use transform="translate(407.676733 0)scale(0.996264)" xlink:href="#CMMI12-109"/>
     <use transform="translate(493.003957 -14.943915)scale(0.697382)" xlink:href="#CMMI12-116"/>
     <use transform="translate(517.662267 -14.943915)scale(0.697382)" xlink:href="#CMR17-43"/>
     <use transform="translate(567.862398 -14.943915)scale(0.697382)" xlink:href="#CMR17-49"/>
     <use transform="translate(600.343712 0)scale(0.996264)" xlink:href="#CMMI12-61"/>
     <use transform="translate(649.118631 0)scale(0.996264)" xlink:href="#CMMI12-109"/>
     <use transform="translate(734.445856 -14.943915)scale(0.697382)" xlink:href="#CMMI12-116"/>
     <use transform="translate(759.602297 0)scale(0.996264)" xlink:href="#CMR17-93"/>
     <use transform="translate(812.147364 0)scale(0.996264)" xlink:href="#CMR17-58"/>
     <use transform="translate(914.209106 0.006461)scale(0.996264)" xlink:href="#CMR17-94"/>
     <use transform="translate(894.390725 0)scale(0.996264)" xlink:href="#CMMI12-109"/>
     <use transform="translate(1007.391958 0)scale(0.996264)" xlink:href="#CMSY10-33"/>
    </g>
   </g>
   <g id="text_12">
    <!-- $\PermGroFac$ -->
    <g transform="translate(648.245455 240.984)scale(0.22 -0.22)">
     <defs>
      <path d="M 51.796875 68 
L 5.09375 68 
L 5.09375 65.40625 
C 12 65.40625 13.09375 65.40625 13.09375 60.90625 
L 13.09375 7 
C 13.09375 2.5 12 2.5 5.09375 2.5 
L 5.09375 0 
C 8 0 13.59375 0 16.703125 0 
C 20.796875 0 25.59375 0 29.703125 0 
L 29.703125 2.5 
L 27.5 2.5 
C 19.90625 2.5 19.703125 3.5 19.703125 7.109375 
L 19.703125 61.5 
C 19.703125 64.90625 19.90625 65.40625 23.90625 65.40625 
L 34.90625 65.40625 
C 50.09375 65.40625 50.90625 58.40625 52.40625 45.90625 
L 54.203125 45.90625 
z
" id="CMR17-0"/>
     </defs>
     <use transform="scale(0.996264)" xlink:href="#CMR17-0"/>
    </g>
   </g>
   <g id="text_13">
    <!-- $\Ex_{t}[\cLev_{t+1}/\cLev_{t}]$ -->
    <g transform="translate(648.245455 303.413619)scale(0.22 -0.22)">
     <defs>
      <path d="M 34.90625 35 
C 33 35 30.203125 35 30.203125 31.515625 
C 30.203125 28.71875 32.5 27.921875 33.796875 27.921875 
C 34.5 27.921875 37.40625 28.234375 37.40625 31.625 
C 37.40625 38.546875 30.59375 43.796875 22.90625 43.796875 
C 12.296875 43.796875 3.296875 34.03125 3.296875 21.296875 
C 3.296875 8.0625 12.703125 -1 22.90625 -1 
C 35.296875 -1 38.40625 10.578125 38.40625 11.6875 
C 38.40625 12.09375 38.296875 12.390625 37.59375 12.390625 
C 36.90625 12.390625 36.796875 12.296875 36.40625 10.984375 
C 33.796875 2.8125 28.09375 0.796875 23.796875 0.796875 
C 17.40625 0.796875 9.703125 6.671875 9.703125 21.390625 
C 9.703125 36.53125 17.09375 42 23 42 
C 26.90625 42 32.703125 40.203125 34.90625 35 
z
" id="CMR17-99"/>
     </defs>
     <use transform="scale(0.996264)" xlink:href="#MSBM10-69"/>
     <use transform="translate(66.417819 -14.943915)scale(0.697382)" xlink:href="#CMMI12-116"/>
     <use transform="translate(91.57426 0)scale(0.996264)" xlink:href="#CMR17-91"/>
     <use transform="translate(112.017465 0)scale(0.996264)" xlink:href="#CMR17-99"/>
     <use transform="translate(114.231346 2.767393)scale(0.996264)" xlink:href="#CMR17-99"/>
     <use transform="translate(116.445227 0)scale(0.996264)" xlink:href="#CMR17-99"/>
     <use transform="translate(156.930888 -14.943915)scale(0.697382)" xlink:href="#CMMI12-116"/>
     <use transform="translate(181.589197 -14.943915)scale(0.697382)" xlink:href="#CMR17-43"/>
     <use transform="translate(231.789329 -14.943915)scale(0.697382)" xlink:href="#CMR17-49"/>
     <use transform="translate(264.270643 0)scale(0.996264)" xlink:href="#CMMI12-61"/>
     <use transform="translate(308.617708 0)scale(0.996264)" xlink:href="#CMR17-99"/>
     <use transform="translate(310.831589 2.767393)scale(0.996264)" xlink:href="#CMR17-99"/>
     <use transform="translate(313.04547 0)scale(0.996264)" xlink:href="#CMR17-99"/>
     <use transform="translate(353.531131 -14.943915)scale(0.697382)" xlink:href="#CMMI12-116"/>
     <use transform="translate(378.687572 0)scale(0.996264)" xlink:href="#CMR17-93"/>
    </g>
   </g>
   <g id="text_14">
    <!-- $\pmb{\text{\TH}} = (\Rfree\DiscFac)^{1/\CRRA}$ -->
    <g transform="translate(648.245455 382.963831)scale(0.22 -0.22)">
     <defs>
      <path d="M 7.40625 68.203125 
L 7.40625 66 
L 9.09375 66 
C 11.703125 66 13.796875 65.703125 13.796875 61.796875 
L 13.796875 6.40625 
C 13.796875 2.5 12.09375 2.203125 7.40625 2.203125 
L 7.40625 0 
L 24.90625 0 
L 24.90625 2.203125 
L 22.90625 2.203125 
C 20.59375 2.203125 18.5 2.5 18.5 5.703125 
L 18.5 17.8125 
L 34 17.8125 
C 43.703125 18.703125 50.796875 26.921875 50.796875 36.359375 
C 50.796875 44.875 44.703125 53.296875 35.40625 54.703125 
C 33.796875 55 32.203125 55 30.59375 55 
L 18.5 55 
L 18.5 62.078125 
C 18.5 64.8125 18.90625 66 24.90625 66 
L 24.90625 68.203125 
z
M 18.5 20 
L 18.5 52.796875 
L 27.90625 52.796875 
C 32.703125 52.796875 37.40625 52.40625 41 48.078125 
C 43.796875 44.890625 45.296875 40.5625 45.296875 36.359375 
C 45.296875 29.234375 40.40625 21.109375 31.296875 20 
z
" id="Computer_Modern_Roman-222"/>
      <path d="M 30.59375 -24.390625 
C 30.59375 -24.296875 30.59375 -24.09375 30.296875 -23.796875 
C 25.703125 -19.125 13.40625 -6.359375 13.40625 24.703125 
C 13.40625 55.765625 25.5 68.421875 30.40625 73.390625 
C 30.40625 73.5 30.59375 73.703125 30.59375 74 
C 30.59375 74.296875 30.296875 74.5 29.90625 74.5 
C 28.796875 74.5 20.296875 67.125 15.40625 56.15625 
C 10.40625 45.109375 9 34.359375 9 24.8125 
C 9 17.625 9.703125 5.484375 15.703125 -7.359375 
C 20.5 -17.734375 28.703125 -25 29.90625 -25 
C 30.40625 -25 30.59375 -24.796875 30.59375 -24.390625 
z
" id="CMR17-40"/>
      <path d="M 39.40625 32.953125 
L 39.59375 33.046875 
C 55.203125 38.421875 55.296875 49.171875 55.296875 51.0625 
C 55.296875 60.515625 45.703125 69.578125 31.296875 69.578125 
L 8.90625 69.578125 
L 8.90625 0.5 
L 17.09375 0.5 
L 17.09375 32 
L 31.796875 32 
L 49.5 0.5 
L 57.90625 0.5 
z
M 17.09375 38.078125 
L 17.09375 64 
L 30.203125 64 
C 42.90625 64 47.40625 56.828125 47.40625 51.046875 
C 47.40625 45.65625 43.40625 38.078125 30.203125 38.078125 
z
" id="CMSS17-82"/>
      <path d="M 56.59375 57.828125 
C 56.59375 63.765625 51.5 70 42.40625 70 
C 29.5 70 21.296875 54.328125 18.703125 44 
L 2.90625 -18.3125 
C 2.703125 -19.109375 3.296875 -19.3125 3.796875 -19.3125 
C 4.5 -19.3125 5 -19.21875 5.09375 -18.71875 
L 12.09375 9.15625 
C 13.09375 3.578125 18.59375 -1 24.5 -1 
C 38.796875 -1 52.296875 10.15625 52.296875 24.984375 
C 52.296875 28.765625 51.40625 32.546875 49.296875 35.734375 
C 48.09375 37.625 46.59375 39.015625 45 40.21875 
C 52.203125 43.984375 56.59375 50 56.59375 57.828125 
z
M 39.203125 40.3125 
C 37.59375 39.71875 36 39.515625 34.09375 39.515625 
C 32.703125 39.515625 31.40625 39.421875 29.59375 40.015625 
C 30.59375 40.71875 32.09375 40.90625 34.203125 40.90625 
C 36 40.90625 37.796875 40.71875 39.203125 40.3125 
z
M 51.40625 58.71875 
C 51.40625 53.28125 48.703125 45.359375 42.203125 41.703125 
C 40.296875 42.46875 37.703125 43 35.5 43 
C 33.40625 43 27.40625 43 27.40625 39.921875 
C 27.40625 37.328125 32.90625 37.328125 34.59375 37.328125 
C 37.203125 37.328125 39.5 38 41.90625 38.8125 
C 45.09375 36.21875 46.5 32.828125 46.5 27.859375 
C 46.5 22.078125 44.90625 17.421875 43 13.140625 
C 39.703125 5.765625 31.90625 1 25 1 
C 17.703125 1 13.90625 6.75 13.90625 13.5 
C 13.90625 14.40625 13.90625 15.703125 14.296875 17.171875 
L 20.796875 43.296875 
C 24.09375 56.296875 32.5 68.015625 42.203125 68.015625 
C 49.40625 68.015625 51.40625 63.0625 51.40625 58.71875 
z
" id="CMMI12-12"/>
      <path d="M 26.296875 24.703125 
C 26.296875 31.875 25.59375 44.015625 19.59375 56.859375 
C 14.796875 67.234375 6.59375 74.5 5.40625 74.5 
C 5.09375 74.5 4.703125 74.390625 4.703125 73.890625 
C 4.703125 73.703125 4.796875 73.59375 4.90625 73.390625 
C 9.703125 68.40625 21.90625 55.75 21.90625 24.75 
C 21.90625 -6.359375 9.796875 -19.015625 4.90625 -24.015625 
C 4.796875 -24.203125 4.703125 -24.3125 4.703125 -24.5 
C 4.703125 -25 5.09375 -25 5.40625 -25 
C 6.5 -25 15 -17.625 19.90625 -6.65625 
C 24.90625 4.390625 26.296875 15.140625 26.296875 24.703125 
z
" id="CMR17-41"/>
      <path d="M 3.09375 -17.296875 
C 3 -17.796875 2.796875 -18.390625 2.796875 -19 
C 2.796875 -20.5 4 -21.5 5.5 -21.5 
C 7 -21.5 8.40625 -20.5 9 -19.09375 
C 9.40625 -18.1875 12.203125 -6.203125 15.40625 6.09375 
C 17.40625 1.09375 21.09375 -1 25 -1 
C 36.296875 -1 49.09375 12.96875 49.09375 28.046875 
C 49.09375 38.71875 42.59375 44 35.703125 44 
C 26.90625 44 16.203125 34.921875 12.90625 21.640625 
z
M 24.90625 1 
C 18.09375 1 16.40625 8.890625 16.40625 10.078125 
C 16.40625 10.6875 18.90625 20.234375 19.203125 21.734375 
C 24.296875 41.71875 34.09375 41.71875 35.59375 41.71875 
C 40.09375 41.71875 42.59375 37.65625 42.59375 31.8125 
C 42.59375 26.75 39.90625 16.9375 38.203125 12.796875 
C 35.203125 5.953125 30 1 24.90625 1 
z
" id="CMMI12-26"/>
     </defs>
     <use transform="scale(0.996264)" xlink:href="#Computer_Modern_Roman-222"/>
     <use transform="translate(2.213881 2.767393)scale(0.996264)" xlink:href="#Computer_Modern_Roman-222"/>
     <use transform="translate(4.427762 0)scale(0.996264)" xlink:href="#Computer_Modern_Roman-222"/>
     <use transform="translate(87.811454 0)scale(0.996264)" xlink:href="#CMR17-61"/>
     <use transform="translate(187.200251 0)scale(0.996264)" xlink:href="#CMR17-40"/>
     <use transform="translate(222.481019 0)scale(0.996264)" xlink:href="#CMSS17-82"/>
     <use transform="translate(282.897174 0)scale(0.996264)" xlink:href="#CMMI12-12"/>
     <use transform="translate(343.49119 0)scale(0.996264)" xlink:href="#CMR17-41"/>
     <use transform="translate(378.771957 36.153639)scale(0.697382)" xlink:href="#CMR17-49"/>
     <use transform="translate(410.755139 36.153639)scale(0.697382)" xlink:href="#CMMI12-61"/>
     <use transform="translate(444.897431 36.153639)scale(0.697382)" xlink:href="#CMMI12-26"/>
    </g>
   </g>
   <g id="text_15">
    <!-- $_{\swarrow}~\check{\mRat}$ -->
    <g transform="translate(364.710363 223.625128)scale(0.22 -0.22)">
     <defs>
      <path d="M 92.90625 65.359375 
C 94.203125 66.65625 94.40625 66.859375 94.40625 67.65625 
C 94.40625 68.65625 93.5 69.65625 92.40625 69.65625 
C 91.59375 69.65625 91.40625 69.453125 90.203125 68.25 
L 12.09375 -9.75 
C 12.40625 -8.046875 12.59375 -5.75 12.59375 -3.9375 
C 12.59375 -1.9375 12.40625 2.953125 10.296875 8.75 
C 9.796875 9.953125 6.796875 16.859375 5.296875 16.859375 
C 4.59375 16.859375 3 15.25 3 14.5625 
C 3 14.15625 3.09375 13.953125 3.5 13.25 
C 8.40625 5.65625 8.703125 -0.546875 8.703125 -4.046875 
C 8.703125 -10.140625 7.09375 -14.640625 6 -16.9375 
C 5.703125 -17.546875 5.59375 -17.84375 5.59375 -18.140625 
C 5.59375 -18.75 6 -19.140625 6.59375 -19.140625 
C 6.796875 -19.140625 7 -19.140625 7.796875 -18.84375 
C 10.5 -17.546875 14.90625 -16.046875 20.703125 -16.046875 
C 23.59375 -16.046875 30.296875 -16.140625 38 -21.25 
C 38.59375 -21.640625 38.90625 -21.75 39.296875 -21.75 
C 40 -21.75 41.59375 -20.140625 41.59375 -19.4375 
C 41.59375 -18.046875 35.40625 -15.25 33.296875 -14.4375 
C 27.5 -12.25 22.59375 -12.140625 20.796875 -12.140625 
C 17.59375 -12.140625 17.5 -12.140625 15 -12.640625 
z
" id="CMSY10-46"/>
      <path d="M 22.90625 55.640625 
L 11.703125 63.203125 
L 10.703125 61.8125 
L 22.90625 51.65625 
L 35.09375 61.8125 
L 34.09375 63.203125 
z
" id="CMR17-20"/>
     </defs>
     <use transform="translate(0 -14.943915)scale(0.697382)" xlink:href="#CMSY10-46"/>
     <use transform="translate(119.753181 0.006461)scale(0.996264)" xlink:href="#CMR17-20"/>
     <use transform="translate(99.9348 0)scale(0.996264)" xlink:href="#CMMI12-109"/>
    </g>
   </g>
   <g id="text_16">
    <!-- $\Ex_{t}[\mRat_{t+1}/\mRat_{t}] ^{\nearrow}$ -->
    <g transform="translate(156.214809 301.585527)scale(0.22 -0.22)">
     <defs>
      <path d="M 87.796875 59.84375 
C 87.5 58.140625 87.296875 55.84375 87.296875 54.03125 
C 87.296875 52.03125 87.5 47.140625 89.59375 41.34375 
C 90.09375 40.140625 93.09375 33.234375 94.59375 33.234375 
C 95.296875 33.234375 96.90625 34.84375 96.90625 35.53125 
C 96.90625 35.9375 96.796875 36.140625 96.40625 36.84375 
C 91.5 44.4375 91.203125 50.640625 91.203125 54.140625 
C 91.203125 60.234375 92.796875 64.734375 93.90625 67.03125 
C 94.203125 67.640625 94.296875 67.9375 94.296875 68.234375 
C 94.296875 69.03125 93.703125 69.234375 93.296875 69.234375 
C 93.09375 69.234375 92.90625 69.234375 92.09375 68.9375 
C 89.40625 67.640625 85 66.140625 79.203125 66.140625 
C 76.296875 66.140625 69.59375 66.234375 61.90625 71.34375 
C 61.296875 71.734375 61 71.84375 60.59375 71.84375 
C 59.90625 71.84375 58.296875 70.234375 58.296875 69.53125 
C 58.296875 68.140625 64.5 65.34375 66.59375 64.53125 
C 72.40625 62.34375 77.296875 62.234375 79.09375 62.234375 
C 82.296875 62.234375 82.40625 62.234375 84.90625 62.734375 
L 7 -15.265625 
C 5.703125 -16.5625 5.5 -16.765625 5.5 -17.5625 
C 5.5 -18.5625 6.40625 -19.5625 7.5 -19.5625 
C 8.296875 -19.5625 8.5 -19.359375 9.703125 -18.15625 
z
" id="CMSY10-37"/>
     </defs>
     <use transform="scale(0.996264)" xlink:href="#MSBM10-69"/>
     <use transform="translate(66.417819 -14.943915)scale(0.697382)" xlink:href="#CMMI12-116"/>
     <use transform="translate(91.57426 0)scale(0.996264)" xlink:href="#CMR17-91"/>
     <use transform="translate(116.445319 0)scale(0.996264)" xlink:href="#CMMI12-109"/>
     <use transform="translate(201.772543 -14.943915)scale(0.697382)" xlink:href="#CMMI12-116"/>
     <use transform="translate(226.430853 -14.943915)scale(0.697382)" xlink:href="#CMR17-43"/>
     <use transform="translate(276.630984 -14.943915)scale(0.697382)" xlink:href="#CMR17-49"/>
     <use transform="translate(309.112298 0)scale(0.996264)" xlink:href="#CMMI12-61"/>
     <use transform="translate(357.887217 0)scale(0.996264)" xlink:href="#CMMI12-109"/>
     <use transform="translate(443.214441 -14.943915)scale(0.697382)" xlink:href="#CMMI12-116"/>
     <use transform="translate(468.370883 0)scale(0.996264)" xlink:href="#CMR17-93"/>
     <use transform="translate(493.241941 36.153639)scale(0.697382)" xlink:href="#CMSY10-37"/>
    </g>
   </g>
   <g id="text_17">
    <!-- $\Ex_{t}[\mLev_{t+1}/\mLev_{t}]$ -->
    <g transform="translate(648.245455 453.93106)scale(0.22 -0.22)">
     <defs>
      <path d="M 67.59375 30.203125 
C 67.59375 35.1875 66.703125 43.59375 54.796875 43.59375 
C 48 43.59375 43.296875 39 41.5 33.609375 
L 41.40625 33.609375 
C 40.203125 41.8125 34.296875 43.59375 28.703125 43.59375 
C 20.796875 43.59375 16.703125 37.5 15.203125 33.5 
L 15.09375 33.5 
L 15.09375 43.59375 
L 3.296875 42.5 
L 3.296875 39.90625 
C 9.203125 39.90625 10.09375 39.296875 10.09375 34.5 
L 10.09375 6.6875 
C 10.09375 2.875 9.703125 2.390625 3.296875 2.390625 
L 3.296875 -0.203125 
C 5.703125 0 10.09375 0 12.703125 0 
C 15.296875 0 19.796875 0 22.203125 -0.203125 
L 22.203125 2.390625 
C 15.796875 2.390625 15.40625 2.78125 15.40625 6.6875 
L 15.40625 25.90625 
C 15.40625 35.109375 21 42 28 42 
C 35.40625 42 36.203125 35.40625 36.203125 30.59375 
L 36.203125 6.6875 
C 36.203125 2.875 35.796875 2.390625 29.40625 2.390625 
L 29.40625 -0.203125 
C 31.796875 0 36.203125 0 38.796875 0 
C 41.40625 0 45.90625 0 48.296875 -0.203125 
L 48.296875 2.390625 
C 41.90625 2.390625 41.5 2.78125 41.5 6.6875 
L 41.5 25.90625 
C 41.5 35.109375 47.09375 42 54.09375 42 
C 61.5 42 62.296875 35.40625 62.296875 30.59375 
L 62.296875 6.6875 
C 62.296875 2.875 61.90625 2.390625 55.5 2.390625 
L 55.5 -0.203125 
C 57.90625 0 62.296875 0 64.90625 0 
C 67.5 0 72 0 74.40625 -0.203125 
L 74.40625 2.390625 
C 68 2.390625 67.59375 2.78125 67.59375 6.6875 
z
" id="CMR17-109"/>
     </defs>
     <use transform="scale(0.996264)" xlink:href="#MSBM10-69"/>
     <use transform="translate(66.417819 -14.943915)scale(0.697382)" xlink:href="#CMMI12-116"/>
     <use transform="translate(91.57426 0)scale(0.996264)" xlink:href="#CMR17-91"/>
     <use transform="translate(112.017465 0)scale(0.996264)" xlink:href="#CMR17-109"/>
     <use transform="translate(114.231346 2.767393)scale(0.996264)" xlink:href="#CMR17-109"/>
     <use transform="translate(116.445227 0)scale(0.996264)" xlink:href="#CMR17-109"/>
     <use transform="translate(193.364817 -14.943915)scale(0.697382)" xlink:href="#CMMI12-116"/>
     <use transform="translate(218.023127 -14.943915)scale(0.697382)" xlink:href="#CMR17-43"/>
     <use transform="translate(268.223258 -14.943915)scale(0.697382)" xlink:href="#CMR17-49"/>
     <use transform="translate(300.704572 0)scale(0.996264)" xlink:href="#CMMI12-61"/>
     <use transform="translate(345.051637 0)scale(0.996264)" xlink:href="#CMR17-109"/>
     <use transform="translate(347.265519 2.767393)scale(0.996264)" xlink:href="#CMR17-109"/>
     <use transform="translate(349.4794 0)scale(0.996264)" xlink:href="#CMR17-109"/>
     <use transform="translate(426.39899 -14.943915)scale(0.697382)" xlink:href="#CMMI12-116"/>
     <use transform="translate(451.555431 0)scale(0.996264)" xlink:href="#CMR17-93"/>
    </g>
   </g>
  </g>
 </g>
 <defs>
  <clipPath id="pf379ed094b">
   <rect height="443.52" width="669.6" x="108" y="69.12"/>
  </clipPath>
 </defs>
</svg>
