<?xml version="1.0" encoding="utf-8" standalone="no"?>
<!DOCTYPE svg PUBLIC "-//W3C//DTD SVG 1.1//EN"
  "http://www.w3.org/Graphics/SVG/1.1/DTD/svg11.dtd">
<!-- Created with matplotlib (https://matplotlib.org/) -->
<svg height="576pt" version="1.1" viewBox="0 0 864 576" width="864pt" xmlns="http://www.w3.org/2000/svg" xmlns:xlink="http://www.w3.org/1999/xlink">
 <metadata>
  <rdf:RDF xmlns:cc="http://creativecommons.org/ns#" xmlns:dc="http://purl.org/dc/elements/1.1/" xmlns:rdf="http://www.w3.org/1999/02/22-rdf-syntax-ns#">
   <cc:Work>
    <dc:type rdf:resource="http://purl.org/dc/dcmitype/StillImage"/>
    <dc:date>2021-08-23T23:12:57.586439</dc:date>
    <dc:format>image/svg+xml</dc:format>
    <dc:creator>
     <cc:Agent>
      <dc:title>Matplotlib v3.3.2, https://matplotlib.org/</dc:title>
     </cc:Agent>
    </dc:creator>
   </cc:Work>
  </rdf:RDF>
 </metadata>
 <defs>
  <style type="text/css">*{stroke-linecap:butt;stroke-linejoin:round;}</style>
 </defs>
 <g id="figure_1">
  <g id="patch_1">
   <path d="M 0 576 
L 864 576 
L 864 0 
L 0 0 
z
" style="fill:none;"/>
  </g>
  <g id="axes_1">
   <g id="patch_2">
    <path d="M 108 504 
L 777.6 504 
L 777.6 69.12 
L 108 69.12 
z
" style="fill:#ffffff;"/>
   </g>
   <g id="matplotlib.axis_1">
    <g id="xtick_1">
     <g id="line2d_1">
      <defs>
       <path d="M 0 0 
L 0 3.5 
" id="m8a0a69d940" style="stroke:#000000;stroke-width:0.8;"/>
      </defs>
      <g>
       <use style="stroke:#000000;stroke-width:0.8;" x="108" xlink:href="#m8a0a69d940" y="504"/>
      </g>
     </g>
     <g id="line2d_2">
      <defs>
       <path d="M 0 0 
L 0 -3.5 
" id="m4e670ce84f" style="stroke:#000000;stroke-width:0.8;"/>
      </defs>
      <g>
       <use style="stroke:#000000;stroke-width:0.8;" x="108" xlink:href="#m4e670ce84f" y="69.12"/>
      </g>
     </g>
    </g>
    <g id="xtick_2">
     <g id="line2d_3">
      <g>
       <use style="stroke:#000000;stroke-width:0.8;" x="191.7" xlink:href="#m8a0a69d940" y="504"/>
      </g>
     </g>
     <g id="line2d_4">
      <g>
       <use style="stroke:#000000;stroke-width:0.8;" x="191.7" xlink:href="#m4e670ce84f" y="69.12"/>
      </g>
     </g>
    </g>
    <g id="xtick_3">
     <g id="line2d_5">
      <g>
       <use style="stroke:#000000;stroke-width:0.8;" x="275.4" xlink:href="#m8a0a69d940" y="504"/>
      </g>
     </g>
     <g id="line2d_6">
      <g>
       <use style="stroke:#000000;stroke-width:0.8;" x="275.4" xlink:href="#m4e670ce84f" y="69.12"/>
      </g>
     </g>
    </g>
    <g id="xtick_4">
     <g id="line2d_7">
      <g>
       <use style="stroke:#000000;stroke-width:0.8;" x="359.1" xlink:href="#m8a0a69d940" y="504"/>
      </g>
     </g>
     <g id="line2d_8">
      <g>
       <use style="stroke:#000000;stroke-width:0.8;" x="359.1" xlink:href="#m4e670ce84f" y="69.12"/>
      </g>
     </g>
    </g>
    <g id="xtick_5">
     <g id="line2d_9">
      <g>
       <use style="stroke:#000000;stroke-width:0.8;" x="442.8" xlink:href="#m8a0a69d940" y="504"/>
      </g>
     </g>
     <g id="line2d_10">
      <g>
       <use style="stroke:#000000;stroke-width:0.8;" x="442.8" xlink:href="#m4e670ce84f" y="69.12"/>
      </g>
     </g>
    </g>
    <g id="xtick_6">
     <g id="line2d_11">
      <g>
       <use style="stroke:#000000;stroke-width:0.8;" x="526.5" xlink:href="#m8a0a69d940" y="504"/>
      </g>
     </g>
     <g id="line2d_12">
      <g>
       <use style="stroke:#000000;stroke-width:0.8;" x="526.5" xlink:href="#m4e670ce84f" y="69.12"/>
      </g>
     </g>
    </g>
    <g id="xtick_7">
     <g id="line2d_13">
      <g>
       <use style="stroke:#000000;stroke-width:0.8;" x="610.2" xlink:href="#m8a0a69d940" y="504"/>
      </g>
     </g>
     <g id="line2d_14">
      <g>
       <use style="stroke:#000000;stroke-width:0.8;" x="610.2" xlink:href="#m4e670ce84f" y="69.12"/>
      </g>
     </g>
    </g>
    <g id="xtick_8">
     <g id="line2d_15">
      <g>
       <use style="stroke:#000000;stroke-width:0.8;" x="693.9" xlink:href="#m8a0a69d940" y="504"/>
      </g>
     </g>
     <g id="line2d_16">
      <g>
       <use style="stroke:#000000;stroke-width:0.8;" x="693.9" xlink:href="#m4e670ce84f" y="69.12"/>
      </g>
     </g>
    </g>
    <g id="xtick_9">
     <g id="line2d_17">
      <g>
       <use style="stroke:#000000;stroke-width:0.8;" x="777.6" xlink:href="#m8a0a69d940" y="504"/>
      </g>
     </g>
     <g id="line2d_18">
      <g>
       <use style="stroke:#000000;stroke-width:0.8;" x="777.6" xlink:href="#m4e670ce84f" y="69.12"/>
      </g>
     </g>
    </g>
    <g id="text_1">
     <!-- $\mathit{m}$ -->
     <g transform="translate(760.065595 523.093242)scale(0.22 -0.22)">
      <defs>
       <path d="M 49.796875 27.046875 
C 50.40625 29.34375 55.796875 42.015625 65.40625 42.015625 
C 70 42.015625 70 37.015625 70 35.328125 
C 70 29.140625 65.59375 17.15625 63.90625 12.28125 
C 63 9.78125 62.59375 8.875 62.59375 6.78125 
C 62.59375 2 65.703125 -1 69.796875 -1 
C 79.09375 -1 82.296875 13.875 82.296875 14.265625 
C 82.296875 15.171875 81.40625 15.171875 81 15.171875 
C 79.796875 15.171875 79.703125 14.875 79.296875 13.375 
C 78.40625 9.984375 75.703125 1 70.09375 1 
C 68.59375 1 67.796875 1.703125 67.796875 3.984375 
C 67.796875 6.390625 68.90625 9.484375 69.703125 11.46875 
C 72.296875 18.765625 75.703125 28.046875 75.703125 33.828125 
C 75.703125 39.109375 73.40625 44 65.703125 44 
C 59.5 44 54.5 40.40625 50.90625 34.9375 
C 50.296875 41.71875 45.59375 44 40.796875 44 
C 35 44 30.09375 40.90625 26.5 35.921875 
C 26.203125 40.40625 23.09375 44 18.5 44 
C 16.203125 44 13.59375 43.015625 11.5 38.71875 
C 9.59375 35.03125 8.296875 29.03125 8.296875 28.84375 
C 8.296875 28.046875 8.796875 27.84375 9.703125 27.84375 
C 10.796875 27.84375 10.90625 27.9375 11.5 30.234375 
C 13 36.125 14.90625 42.015625 18.296875 42.015625 
C 20.90625 42.015625 20.90625 39.109375 20.90625 37.921875 
C 20.90625 36.015625 20.5 33.828125 20.09375 32.4375 
L 12.796875 3.296875 
C 12.40625 1.890625 12.40625 1.796875 12.40625 1.390625 
C 12.40625 0.203125 13.203125 -1 15 -1 
C 16.203125 -1 17.796875 -0.296875 18.5 1.703125 
C 18.703125 2.6875 22.5 17.65625 23.09375 20.15625 
C 23.59375 22.359375 24.203125 24.453125 24.703125 26.640625 
C 25.703125 30.328125 31.203125 42.015625 40.5 42.015625 
C 45.09375 42.015625 45.09375 36.921875 45.09375 35.328125 
C 45.09375 33.328125 44.703125 31.140625 44.296875 29.34375 
L 37.703125 3 
C 37.40625 1.890625 37.40625 1.59375 37.40625 1.390625 
C 37.40625 0.296875 38.203125 -1 40 -1 
C 42.296875 -1 43.296875 0.796875 43.703125 2.5 
z
" id="CMTI12-109"/>
      </defs>
      <use transform="scale(0.996264)" xlink:href="#CMTI12-109"/>
     </g>
    </g>
   </g>
   <g id="matplotlib.axis_2">
    <g id="ytick_1">
     <g id="line2d_19">
      <defs>
       <path d="M 0 0 
L -3.5 0 
" id="m86d4fe0ee0" style="stroke:#000000;stroke-width:0.8;"/>
      </defs>
      <g>
       <use style="stroke:#000000;stroke-width:0.8;" x="108" xlink:href="#m86d4fe0ee0" y="504"/>
      </g>
     </g>
     <g id="line2d_20">
      <defs>
       <path d="M 0 0 
L 3.5 0 
" id="m47668b6f1b" style="stroke:#000000;stroke-width:0.8;"/>
      </defs>
      <g>
       <use style="stroke:#000000;stroke-width:0.8;" x="777.6" xlink:href="#m47668b6f1b" y="504"/>
      </g>
     </g>
    </g>
    <g id="ytick_2">
     <g id="line2d_21">
      <g>
       <use style="stroke:#000000;stroke-width:0.8;" x="108" xlink:href="#m86d4fe0ee0" y="453.360442"/>
      </g>
     </g>
     <g id="line2d_22">
      <g>
       <use style="stroke:#000000;stroke-width:0.8;" x="777.6" xlink:href="#m47668b6f1b" y="453.360442"/>
      </g>
     </g>
    </g>
    <g id="ytick_3">
     <g id="line2d_23">
      <g>
       <use style="stroke:#000000;stroke-width:0.8;" x="108" xlink:href="#m86d4fe0ee0" y="402.720883"/>
      </g>
     </g>
     <g id="line2d_24">
      <g>
       <use style="stroke:#000000;stroke-width:0.8;" x="777.6" xlink:href="#m47668b6f1b" y="402.720883"/>
      </g>
     </g>
    </g>
    <g id="ytick_4">
     <g id="line2d_25">
      <g>
       <use style="stroke:#000000;stroke-width:0.8;" x="108" xlink:href="#m86d4fe0ee0" y="352.081325"/>
      </g>
     </g>
     <g id="line2d_26">
      <g>
       <use style="stroke:#000000;stroke-width:0.8;" x="777.6" xlink:href="#m47668b6f1b" y="352.081325"/>
      </g>
     </g>
    </g>
    <g id="ytick_5">
     <g id="line2d_27">
      <g>
       <use style="stroke:#000000;stroke-width:0.8;" x="108" xlink:href="#m86d4fe0ee0" y="301.441766"/>
      </g>
     </g>
     <g id="line2d_28">
      <g>
       <use style="stroke:#000000;stroke-width:0.8;" x="777.6" xlink:href="#m47668b6f1b" y="301.441766"/>
      </g>
     </g>
    </g>
    <g id="ytick_6">
     <g id="line2d_29">
      <g>
       <use style="stroke:#000000;stroke-width:0.8;" x="108" xlink:href="#m86d4fe0ee0" y="250.802208"/>
      </g>
     </g>
     <g id="line2d_30">
      <g>
       <use style="stroke:#000000;stroke-width:0.8;" x="777.6" xlink:href="#m47668b6f1b" y="250.802208"/>
      </g>
     </g>
    </g>
    <g id="ytick_7">
     <g id="line2d_31">
      <g>
       <use style="stroke:#000000;stroke-width:0.8;" x="108" xlink:href="#m86d4fe0ee0" y="200.16265"/>
      </g>
     </g>
     <g id="line2d_32">
      <g>
       <use style="stroke:#000000;stroke-width:0.8;" x="777.6" xlink:href="#m47668b6f1b" y="200.16265"/>
      </g>
     </g>
    </g>
    <g id="ytick_8">
     <g id="line2d_33">
      <g>
       <use style="stroke:#000000;stroke-width:0.8;" x="108" xlink:href="#m86d4fe0ee0" y="149.523091"/>
      </g>
     </g>
     <g id="line2d_34">
      <g>
       <use style="stroke:#000000;stroke-width:0.8;" x="777.6" xlink:href="#m47668b6f1b" y="149.523091"/>
      </g>
     </g>
    </g>
    <g id="ytick_9">
     <g id="line2d_35">
      <g>
       <use style="stroke:#000000;stroke-width:0.8;" x="108" xlink:href="#m86d4fe0ee0" y="98.883533"/>
      </g>
     </g>
     <g id="line2d_36">
      <g>
       <use style="stroke:#000000;stroke-width:0.8;" x="777.6" xlink:href="#m47668b6f1b" y="98.883533"/>
      </g>
     </g>
    </g>
    <g id="text_2">
     <!-- $\mathit{c}$ -->
     <g transform="translate(94.136886 64.85739)scale(0.22 -0.22)">
      <defs>
       <path d="M 43 37 
C 40.5 37 38.296875 35.09375 38.296875 32.703125 
C 38.296875 30.203125 40.5 29.71875 41.40625 29.71875 
C 42.40625 29.71875 46.09375 30.3125 46.09375 35.546875 
C 46.09375 40.28125 41.90625 44 35.796875 44 
C 23.59375 44 11 29.9375 11 15.171875 
C 11 4.984375 17.09375 -1 25.09375 -1 
C 37.5 -1 45.703125 9.03125 45.703125 10.4375 
C 45.703125 11.125 44.90625 11.921875 44.296875 11.921875 
C 44 11.921875 43.90625 11.828125 43.09375 10.9375 
C 37.796875 3.78125 30.296875 1 25.203125 1 
C 20.09375 1 17.40625 5.484375 17.40625 11.375 
C 17.40625 15.96875 19.796875 26.9375 23.09375 32.625 
C 26.5 38.625 31.40625 42.015625 35.703125 42.015625 
C 36.296875 42.015625 41.59375 42.015625 43 37 
z
" id="CMTI12-99"/>
      </defs>
      <use transform="scale(0.996264)" xlink:href="#CMTI12-99"/>
     </g>
    </g>
   </g>
   <g id="line2d_37">
    <path clip-path="url(#pdd01840d79)" d="M 108 504 
L 131.459459 438.187077 
L 142.183784 408.746034 
L 150.227027 387.336191 
L 155.589189 373.613453 
L 160.281081 362.189502 
L 163.632432 354.498202 
L 166.983784 347.355916 
L 169.664865 342.125935 
L 172.345946 337.416918 
L 174.356757 334.255962 
L 176.367568 331.431458 
L 178.378378 328.939176 
L 180.389189 326.757605 
L 182.4 324.866387 
L 184.410811 323.219666 
L 187.091892 321.346513 
L 189.772973 319.767548 
L 193.124324 318.101037 
L 196.475676 316.683537 
L 200.497297 315.21264 
L 205.859459 313.515164 
L 212.562162 311.661888 
L 220.605405 309.676191 
L 231.32973 307.264908 
L 246.745946 304.045703 
L 271.545946 299.123072 
L 309.751351 291.77616 
L 357.340541 282.856253 
L 410.291892 273.169897 
L 465.924324 263.219952 
L 527.589189 252.421782 
L 593.275676 241.147051 
L 667.675676 228.619646 
L 750.118919 214.996542 
L 777.6 210.509049 
L 777.6 210.509049 
" style="fill:none;stroke:#000000;stroke-linecap:square;stroke-width:1.5;"/>
   </g>
   <g id="line2d_38">
    <path clip-path="url(#pdd01840d79)" d="M 108 262.420106 
L 777.6 169.476923 
L 777.6 169.476923 
" style="fill:none;stroke:#000000;stroke-dasharray:5.55,2.4;stroke-dashoffset:0;stroke-width:1.5;"/>
   </g>
   <g id="line2d_39">
    <path clip-path="url(#pdd01840d79)" d="M 108 253.236802 
L 777.6 233.760049 
L 777.6 233.760049 
" style="fill:none;stroke:#000000;stroke-dasharray:1.5,2.475;stroke-dashoffset:0;stroke-width:1.5;"/>
   </g>
   <g id="line2d_40">
    <path clip-path="url(#pdd01840d79)" d="M 607.68239 238.702467 
" style="fill:none;stroke:#000000;stroke-linecap:square;stroke-width:1.5;"/>
    <defs>
     <path d="M 0 3.75 
C 0.994512 3.75 1.948425 3.354876 2.65165 2.65165 
C 3.354876 1.948425 3.75 0.994512 3.75 0 
C 3.75 -0.994512 3.354876 -1.948425 2.65165 -2.65165 
C 1.948425 -3.354876 0.994512 -3.75 0 -3.75 
C -0.994512 -3.75 -1.948425 -3.354876 -2.65165 -2.65165 
C -3.354876 -1.948425 -3.75 -0.994512 -3.75 0 
C -3.75 0.994512 -3.354876 1.948425 -2.65165 2.65165 
C -1.948425 3.354876 -0.994512 3.75 0 3.75 
z
" id="m24ac67a2ae" style="stroke:#000000;"/>
    </defs>
    <g clip-path="url(#pdd01840d79)">
     <use style="stroke:#000000;" x="607.68239" xlink:href="#m24ac67a2ae" y="238.702467"/>
    </g>
   </g>
   <g id="patch_3">
    <path d="M 108 504 
L 108 69.12 
" style="fill:none;stroke:#000000;stroke-linecap:square;stroke-linejoin:miter;stroke-width:0.8;"/>
   </g>
   <g id="patch_4">
    <path d="M 777.6 504 
L 777.6 69.12 
" style="fill:none;stroke:#000000;stroke-linecap:square;stroke-linejoin:miter;stroke-width:0.8;"/>
   </g>
   <g id="patch_5">
    <path d="M 108 504 
L 777.6 504 
" style="fill:none;stroke:#000000;stroke-linecap:square;stroke-linejoin:miter;stroke-width:0.8;"/>
   </g>
   <g id="patch_6">
    <path d="M 108 69.12 
L 777.6 69.12 
" style="fill:none;stroke:#000000;stroke-linecap:square;stroke-linejoin:miter;stroke-width:0.8;"/>
   </g>
   <g id="text_3">
    <!-- $\mathrm{c}(m_{t})$ -->
    <g transform="translate(191.7 352.081325)scale(0.22 -0.22)">
     <defs>
      <path d="M 34.90625 35 
C 33 35 30.203125 35 30.203125 31.515625 
C 30.203125 28.71875 32.5 27.921875 33.796875 27.921875 
C 34.5 27.921875 37.40625 28.234375 37.40625 31.625 
C 37.40625 38.546875 30.59375 43.796875 22.90625 43.796875 
C 12.296875 43.796875 3.296875 34.03125 3.296875 21.296875 
C 3.296875 8.0625 12.703125 -1 22.90625 -1 
C 35.296875 -1 38.40625 10.578125 38.40625 11.6875 
C 38.40625 12.09375 38.296875 12.390625 37.59375 12.390625 
C 36.90625 12.390625 36.796875 12.296875 36.40625 10.984375 
C 33.796875 2.8125 28.09375 0.796875 23.796875 0.796875 
C 17.40625 0.796875 9.703125 6.671875 9.703125 21.390625 
C 9.703125 36.53125 17.09375 42 23 42 
C 26.90625 42 32.703125 40.203125 34.90625 35 
z
" id="CMR17-99"/>
      <path d="M 30.59375 -24.390625 
C 30.59375 -24.296875 30.59375 -24.09375 30.296875 -23.796875 
C 25.703125 -19.125 13.40625 -6.359375 13.40625 24.703125 
C 13.40625 55.765625 25.5 68.421875 30.40625 73.390625 
C 30.40625 73.5 30.59375 73.703125 30.59375 74 
C 30.59375 74.296875 30.296875 74.5 29.90625 74.5 
C 28.796875 74.5 20.296875 67.125 15.40625 56.15625 
C 10.40625 45.109375 9 34.359375 9 24.8125 
C 9 17.625 9.703125 5.484375 15.703125 -7.359375 
C 20.5 -17.734375 28.703125 -25 29.90625 -25 
C 30.40625 -25 30.59375 -24.796875 30.59375 -24.390625 
z
" id="CMR17-40"/>
      <path d="M 20.59375 29.234375 
C 20.796875 29.84375 23.296875 34.828125 27 38.015625 
C 29.59375 40.40625 33 42.015625 36.90625 42.015625 
C 40.90625 42.015625 42.296875 39.015625 42.296875 35.03125 
C 42.296875 34.421875 42.296875 32.4375 41.09375 27.734375 
L 38.59375 17.46875 
C 37.796875 14.46875 35.90625 7.078125 35.703125 5.984375 
C 35.296875 4.484375 34.703125 1.890625 34.703125 1.5 
C 34.703125 0.09375 35.796875 -1 37.296875 -1 
C 40.296875 -1 40.796875 1.296875 41.703125 4.890625 
L 47.703125 28.734375 
C 47.90625 29.53125 53.09375 42.015625 64.09375 42.015625 
C 68.09375 42.015625 69.5 39.015625 69.5 35.03125 
C 69.5 29.4375 65.59375 18.5625 63.40625 12.578125 
C 62.5 10.171875 62 8.875 62 7.078125 
C 62 2.59375 65.09375 -1 69.90625 -1 
C 79.203125 -1 82.703125 13.671875 82.703125 14.265625 
C 82.703125 14.765625 82.296875 15.171875 81.703125 15.171875 
C 80.796875 15.171875 80.703125 14.875 80.203125 13.171875 
C 77.90625 5.1875 74.203125 1 70.203125 1 
C 69.203125 1 67.59375 1 67.59375 4.203125 
C 67.59375 6.8125 68.796875 10 69.203125 11.09375 
C 71 15.90625 75.5 27.703125 75.5 33.515625 
C 75.5 39.5 72 44 64.40625 44 
C 57.703125 44 52.296875 40.21875 48.296875 34.328125 
C 48 39.71875 44.703125 44 37.203125 44 
C 28.296875 44 23.59375 37.734375 21.796875 35.234375 
C 21.5 40.90625 17.40625 44 13 44 
C 10.09375 44 7.796875 42.609375 5.90625 38.8125 
C 4.09375 35.21875 2.703125 29.140625 2.703125 28.734375 
C 2.703125 28.34375 3.09375 27.84375 3.796875 27.84375 
C 4.59375 27.84375 4.703125 27.9375 5.296875 30.234375 
C 6.796875 36.125 8.703125 42.015625 12.703125 42.015625 
C 15 42.015625 15.796875 40.40625 15.796875 37.421875 
C 15.796875 35.21875 14.796875 31.328125 14.09375 28.234375 
L 11.296875 17.46875 
C 10.90625 15.5625 9.796875 11.078125 9.296875 9.28125 
C 8.59375 6.6875 7.5 2 7.5 1.5 
C 7.5 0.09375 8.59375 -1 10.09375 -1 
C 11.296875 -1 12.703125 -0.40625 13.5 1.09375 
C 13.703125 1.59375 14.59375 5.09375 15.09375 7.078125 
L 17.296875 16.0625 
z
" id="CMMI12-109"/>
      <path d="M 20.09375 40.09375 
L 29.296875 40.09375 
C 31.203125 40.09375 32.203125 40.09375 32.203125 41.890625 
C 32.203125 43 31.59375 43 29.59375 43 
L 20.796875 43 
L 24.5 57.6875 
C 24.90625 59.078125 24.90625 59.28125 24.90625 60 
C 24.90625 61.609375 23.59375 62.5 22.296875 62.5 
C 21.5 62.5 19.203125 62.203125 18.40625 58.984375 
L 14.5 43 
L 5.09375 43 
C 3.09375 43 2.203125 43 2.203125 41.09375 
C 2.203125 40.09375 2.90625 40.09375 4.796875 40.09375 
L 13.703125 40.09375 
L 7.09375 13.765625 
C 6.296875 10.28125 6 9.28125 6 7.984375 
C 6 3.296875 9.296875 -1 14.90625 -1 
C 25 -1 30.40625 13.5625 30.40625 14.25 
C 30.40625 14.859375 30 15.15625 29.40625 15.15625 
C 29.203125 15.15625 28.796875 15.15625 28.59375 14.75 
C 28.5 14.65625 28.40625 14.546875 27.703125 12.953125 
C 25.59375 7.984375 21 1 15.203125 1 
C 12.203125 1 12 3.5 12 5.6875 
C 12 5.78125 12 7.6875 12.296875 8.875 
z
" id="CMMI12-116"/>
      <path d="M 26.296875 24.703125 
C 26.296875 31.875 25.59375 44.015625 19.59375 56.859375 
C 14.796875 67.234375 6.59375 74.5 5.40625 74.5 
C 5.09375 74.5 4.703125 74.390625 4.703125 73.890625 
C 4.703125 73.703125 4.796875 73.59375 4.90625 73.390625 
C 9.703125 68.40625 21.90625 55.75 21.90625 24.75 
C 21.90625 -6.359375 9.796875 -19.015625 4.90625 -24.015625 
C 4.796875 -24.203125 4.703125 -24.3125 4.703125 -24.5 
C 4.703125 -25 5.09375 -25 5.40625 -25 
C 6.5 -25 15 -17.625 19.90625 -6.65625 
C 24.90625 4.390625 26.296875 15.140625 26.296875 24.703125 
z
" id="CMR17-41"/>
     </defs>
     <use transform="scale(0.996264)" xlink:href="#CMR17-99"/>
     <use transform="translate(40.48566 0)scale(0.996264)" xlink:href="#CMR17-40"/>
     <use transform="translate(75.766428 0)scale(0.996264)" xlink:href="#CMMI12-109"/>
     <use transform="translate(161.093653 -14.943915)scale(0.697382)" xlink:href="#CMMI12-116"/>
     <use transform="translate(186.250094 0)scale(0.996264)" xlink:href="#CMR17-41"/>
    </g>
   </g>
   <g id="text_4">
    <!-- $\nwarrow$ -->
    <g transform="translate(609.35639 264.022246)scale(0.22 -0.22)">
     <defs>
      <path d="M 15 62.734375 
C 16.703125 62.4375 19 62.234375 20.796875 62.234375 
C 22.796875 62.234375 27.703125 62.4375 33.5 64.53125 
C 34.203125 64.84375 41.59375 67.953125 41.59375 69.546875 
C 41.59375 70.25 40 71.84375 39.296875 71.84375 
C 38.90625 71.84375 38.59375 71.734375 38 71.34375 
C 30.09375 66.140625 23.203125 66.140625 20.703125 66.140625 
C 14.59375 66.140625 10.09375 67.734375 7.796875 68.84375 
C 7.203125 69.140625 6.90625 69.234375 6.59375 69.234375 
C 6 69.234375 5.59375 68.84375 5.59375 68.234375 
C 5.59375 68.03125 5.59375 67.84375 5.90625 67.03125 
C 7.203125 64.34375 8.703125 59.9375 8.703125 54.140625 
C 8.703125 49.9375 8.09375 43.9375 3.5 36.84375 
C 3.09375 36.140625 3 35.9375 3 35.53125 
C 3 34.84375 4.59375 33.234375 5.296875 33.234375 
C 6.703125 33.234375 9.5 39.4375 10.296875 41.34375 
C 12.40625 46.9375 12.59375 51.734375 12.59375 54.03125 
C 12.59375 57.234375 12.59375 57.34375 12.09375 59.84375 
L 90.203125 -18.15625 
C 91.40625 -19.359375 91.59375 -19.5625 92.40625 -19.5625 
C 93.59375 -19.5625 94.40625 -18.5625 94.40625 -17.5625 
C 94.40625 -16.765625 94.203125 -16.5625 92.90625 -15.265625 
z
" id="CMSY10-45"/>
     </defs>
     <use transform="scale(0.996264)" xlink:href="#CMSY10-45"/>
    </g>
   </g>
   <g id="text_5">
    <!-- $\StE{m}~$ -->
    <g transform="translate(628.60739 284.27807)scale(0.22 -0.22)">
     <defs>
      <path d="M 22.90625 55.640625 
L 11.703125 63.203125 
L 10.703125 61.8125 
L 22.90625 51.65625 
L 35.09375 61.8125 
L 34.09375 63.203125 
z
" id="CMR17-20"/>
     </defs>
     <use transform="translate(19.818381 0.006461)scale(0.996264)" xlink:href="#CMR17-20"/>
     <use transform="scale(0.996264)" xlink:href="#CMMI12-109"/>
    </g>
   </g>
   <g id="legend_1">
    <g id="patch_7">
     <path d="M 544.127773 153.093696 
L 762.2 153.093696 
Q 766.6 153.093696 766.6 148.693696 
L 766.6 84.52 
Q 766.6 80.12 762.2 80.12 
L 544.127773 80.12 
Q 539.727773 80.12 539.727773 84.52 
L 539.727773 148.693696 
Q 539.727773 153.093696 544.127773 153.093696 
z
" style="fill:#ffffff;opacity:0.8;stroke:#cccccc;stroke-linejoin:miter;"/>
    </g>
    <g id="line2d_41">
     <path d="M 548.527773 97.936562 
L 592.527773 97.936562 
" style="fill:none;stroke:#000000;stroke-dasharray:5.55,2.4;stroke-dashoffset:0;stroke-width:1.5;"/>
    </g>
    <g id="line2d_42"/>
    <g id="text_6">
     <!-- $\Ex_{t}[\Delta m_{t+1}] = 0$ -->
     <g transform="translate(610.127773 105.636562)scale(0.22 -0.22)">
      <defs>
       <path d="M 25.90625 34 
C 28.40625 34 33.203125 34 36.703125 31.96875 
C 41.5 28.953125 41.90625 23.703125 41.90625 23.125 
C 42 21.765625 42 20.5 43.703125 20.5 
C 45.40625 20.5 45.40625 21.890625 45.40625 23.703125 
L 45.40625 50.796875 
C 45.40625 52.390625 45.40625 54 43.703125 54 
C 42 54 41.90625 52.421875 41.90625 51.578125 
C 41.296875 38 31.09375 38 25.90625 38 
L 25.90625 58.9375 
C 25.90625 65.59375 27.796875 65.59375 30.203125 65.59375 
L 35 65.59375 
C 48.5 65.59375 55.203125 58.734375 55.796875 51.875 
C 55.90625 51.078125 56 49.59375 57.59375 49.59375 
C 59.296875 49.59375 59.296875 51.1875 59.296875 52.890625 
L 59.296875 65.90625 
C 59.296875 69 59.09375 69 56 69 
L 4.796875 69 
C 3 69 1.40625 69 1.40625 67.25 
C 1.40625 65.59375 3.296875 65.59375 4.09375 65.59375 
C 9.796875 65.59375 10.203125 64.796875 10.203125 59.875 
L 10.203125 9.71875 
C 10.203125 5 9.90625 4 4.59375 4 
C 3.09375 4 1.40625 4 1.40625 2.296875 
C 1.40625 0.5 3 0.5 4.796875 0.5 
L 57.796875 0.5 
C 59.703125 0.5 60.703125 0.5 61 1.921875 
C 61.09375 2.015625 63.90625 18.953125 63.90625 19.453125 
C 63.90625 20.5625 63 21.28125 62.203125 21.28125 
C 60.796875 21.28125 60.40625 19.96875 60.40625 19.859375 
C 59.796875 17.21875 58.796875 12.9375 51.5 8.578125 
C 46.296875 5.421875 41.203125 4 35.703125 4 
L 30.203125 4 
C 27.796875 4 25.90625 4 25.90625 10.6875 
z
M 55.796875 65.59375 
L 55.796875 60.875 
C 54.09375 62.734375 52.203125 64.3125 50.09375 65.59375 
z
M 36.296875 36.171875 
C 37.90625 36.875 40.09375 38.375 41.90625 40.46875 
L 41.90625 32.0625 
C 39.5 34.765625 36.40625 36.0625 36.296875 36.0625 
z
M 13.703125 60.078125 
C 13.703125 61.296875 13.703125 63.796875 12.90625 65.59375 
L 23.5 65.59375 
C 22.40625 63.296875 22.40625 59.984375 22.40625 59.078125 
L 22.40625 10.515625 
C 22.40625 6.90625 23.09375 4.90625 23.5 4 
L 12.90625 4 
C 13.703125 5.796875 13.703125 8.296875 13.703125 9.515625 
z
M 50.90625 4 
L 50.90625 4.09375 
C 54.09375 5.734375 56.796875 7.875 58.796875 9.703125 
C 58.703125 9.3125 58 4.8125 57.90625 4 
z
" id="MSBM10-69"/>
       <path d="M 23.5 -25 
L 23.5 -21.515625 
L 14.09375 -21.515625 
L 14.09375 71 
L 23.5 71 
L 23.5 74.484375 
L 10.59375 74.484375 
L 10.59375 -25 
z
" id="CMR17-91"/>
       <path d="M 40.59375 68.796875 
C 39.796875 70.5 39.40625 70.5 38.59375 70.5 
C 37.40625 70.5 37.296875 70.296875 36.59375 68.890625 
L 4.203125 1.703125 
C 4.09375 1.5 3.703125 0.59375 3.703125 0.5 
C 3.703125 0.09375 3.796875 0 5.59375 0 
L 71.5 0 
C 73.296875 0 73.40625 0.09375 73.40625 0.5 
C 73.40625 0.59375 73 1.5 72.90625 1.703125 
z
M 36.09375 63.09375 
L 63.796875 5.59375 
L 8.296875 5.59375 
z
" id="CMR17-1"/>
       <path d="M 37.703125 23 
L 64.203125 23 
C 65.59375 23 67.296875 23 67.296875 24.6875 
C 67.296875 26.484375 65.703125 26.484375 64.203125 26.484375 
L 37.703125 26.484375 
L 37.703125 52.90625 
C 37.703125 54.296875 37.703125 56 36 56 
C 34.203125 56 34.203125 54.40625 34.203125 52.90625 
L 34.203125 26.484375 
L 7.703125 26.484375 
C 6.296875 26.484375 4.59375 26.484375 4.59375 24.796875 
C 4.59375 23 6.203125 23 7.703125 23 
L 34.203125 23 
L 34.203125 -3.40625 
C 34.203125 -4.796875 34.203125 -6.5 35.90625 -6.5 
C 37.703125 -6.5 37.703125 -4.90625 37.703125 -3.40625 
z
" id="CMR17-43"/>
       <path d="M 26.59375 63.40625 
C 26.59375 65.5 26.5 65.5 25.09375 65.5 
C 21.203125 61.1875 15.296875 59.796875 9.703125 59.796875 
C 9.40625 59.796875 8.90625 59.796875 8.796875 59.5 
C 8.703125 59.296875 8.703125 59.09375 8.703125 57 
C 11.796875 57 17 57.59375 21 59.984375 
L 21 7.203125 
C 21 3.6875 20.796875 2.5 12.203125 2.5 
L 9.203125 2.5 
L 9.203125 0 
C 14 0 19 0 23.796875 0 
C 28.59375 0 33.59375 0 38.40625 0 
L 38.40625 2.5 
L 35.40625 2.5 
C 26.796875 2.5 26.59375 3.59375 26.59375 7.15625 
z
" id="CMR17-49"/>
       <path d="M 14.296875 74.484375 
L 1.40625 74.484375 
L 1.40625 71 
L 10.796875 71 
L 10.796875 -21.515625 
L 1.40625 -21.515625 
L 1.40625 -25 
L 14.296875 -25 
z
" id="CMR17-93"/>
       <path d="M 64.296875 31.515625 
C 65.796875 31.515625 67.296875 31.515625 67.296875 33.203125 
C 67.296875 35 65.59375 35 63.90625 35 
L 8 35 
C 6.296875 35 4.59375 35 4.59375 33.203125 
C 4.59375 31.515625 6.09375 31.515625 7.59375 31.515625 
z
M 63.90625 14 
C 65.59375 14 67.296875 14 67.296875 15.796875 
C 67.296875 17.484375 65.796875 17.484375 64.296875 17.484375 
L 7.59375 17.484375 
C 6.09375 17.484375 4.59375 17.484375 4.59375 15.796875 
C 4.59375 14 6.296875 14 8 14 
z
" id="CMR17-61"/>
       <path d="M 42 31.640625 
C 42 37.75 41.90625 48.125 37.703125 56.109375 
C 34 63.109375 28.09375 65.59375 22.90625 65.59375 
C 18.09375 65.59375 12 63.40625 8.203125 56.203125 
C 4.203125 48.71875 3.796875 39.4375 3.796875 31.640625 
C 3.796875 25.953125 3.90625 17.28125 7 9.671875 
C 11.296875 -0.609375 19 -2 22.90625 -2 
C 27.5 -2 34.5 -0.109375 38.59375 9.375 
C 41.59375 16.28125 42 24.359375 42 31.640625 
z
M 22.90625 -0.40625 
C 16.5 -0.40625 12.703125 5.078125 11.296875 12.6875 
C 10.203125 18.5625 10.203125 27.15625 10.203125 32.75 
C 10.203125 40.4375 10.203125 46.828125 11.5 52.921875 
C 13.40625 61.390625 19 64 22.90625 64 
C 27 64 32.296875 61.296875 34.203125 53.125 
C 35.5 47.4375 35.59375 40.734375 35.59375 32.75 
C 35.59375 26.25 35.59375 18.265625 34.40625 12.375 
C 32.296875 1.484375 26.40625 -0.40625 22.90625 -0.40625 
z
" id="CMR17-48"/>
      </defs>
      <use transform="scale(0.996264)" xlink:href="#MSBM10-69"/>
      <use transform="translate(66.417819 -14.943915)scale(0.697382)" xlink:href="#CMMI12-116"/>
      <use transform="translate(91.57426 0)scale(0.996264)" xlink:href="#CMR17-91"/>
      <use transform="translate(116.445319 0)scale(0.996264)" xlink:href="#CMR17-1"/>
      <use transform="translate(193.364908 0)scale(0.996264)" xlink:href="#CMMI12-109"/>
      <use transform="translate(278.692133 -14.943915)scale(0.697382)" xlink:href="#CMMI12-116"/>
      <use transform="translate(303.350442 -14.943915)scale(0.697382)" xlink:href="#CMR17-43"/>
      <use transform="translate(353.550574 -14.943915)scale(0.697382)" xlink:href="#CMR17-49"/>
      <use transform="translate(386.031888 0)scale(0.996264)" xlink:href="#CMR17-93"/>
      <use transform="translate(438.576955 0)scale(0.996264)" xlink:href="#CMR17-61"/>
      <use transform="translate(537.965752 0)scale(0.996264)" xlink:href="#CMR17-48"/>
     </g>
    </g>
    <g id="line2d_43">
     <path d="M 548.527773 131.114244 
L 592.527773 131.114244 
" style="fill:none;stroke:#000000;stroke-dasharray:1.5,2.475;stroke-dashoffset:0;stroke-width:1.5;"/>
    </g>
    <g id="line2d_44"/>
    <g id="text_7">
     <!-- $\Ex_{t}[\pmb{\mathrm{m}}_{t+1}/\pmb{\mathrm{m}}_{t}] = \PermGroFac$ -->
     <g transform="translate(610.127773 138.814244)scale(0.22 -0.22)">
      <defs>
       <path d="M 67.59375 30.203125 
C 67.59375 35.1875 66.703125 43.59375 54.796875 43.59375 
C 48 43.59375 43.296875 39 41.5 33.609375 
L 41.40625 33.609375 
C 40.203125 41.8125 34.296875 43.59375 28.703125 43.59375 
C 20.796875 43.59375 16.703125 37.5 15.203125 33.5 
L 15.09375 33.5 
L 15.09375 43.59375 
L 3.296875 42.5 
L 3.296875 39.90625 
C 9.203125 39.90625 10.09375 39.296875 10.09375 34.5 
L 10.09375 6.6875 
C 10.09375 2.875 9.703125 2.390625 3.296875 2.390625 
L 3.296875 -0.203125 
C 5.703125 0 10.09375 0 12.703125 0 
C 15.296875 0 19.796875 0 22.203125 -0.203125 
L 22.203125 2.390625 
C 15.796875 2.390625 15.40625 2.78125 15.40625 6.6875 
L 15.40625 25.90625 
C 15.40625 35.109375 21 42 28 42 
C 35.40625 42 36.203125 35.40625 36.203125 30.59375 
L 36.203125 6.6875 
C 36.203125 2.875 35.796875 2.390625 29.40625 2.390625 
L 29.40625 -0.203125 
C 31.796875 0 36.203125 0 38.796875 0 
C 41.40625 0 45.90625 0 48.296875 -0.203125 
L 48.296875 2.390625 
C 41.90625 2.390625 41.5 2.78125 41.5 6.6875 
L 41.5 25.90625 
C 41.5 35.109375 47.09375 42 54.09375 42 
C 61.5 42 62.296875 35.40625 62.296875 30.59375 
L 62.296875 6.6875 
C 62.296875 2.875 61.90625 2.390625 55.5 2.390625 
L 55.5 -0.203125 
C 57.90625 0 62.296875 0 64.90625 0 
C 67.5 0 72 0 74.40625 -0.203125 
L 74.40625 2.390625 
C 68 2.390625 67.59375 2.78125 67.59375 6.6875 
z
" id="CMR17-109"/>
       <path d="M 42.90625 71.28125 
C 42.90625 71.390625 43.5 72.90625 43.5 73.09375 
C 43.5 74.296875 42.5 75 41.703125 75 
C 41.203125 75 40.296875 75 39.5 72.796875 
L 6 -21.296875 
C 6 -21.40625 5.40625 -22.890625 5.40625 -23.09375 
C 5.40625 -24.296875 6.40625 -25 7.203125 -25 
C 7.796875 -25 8.703125 -24.890625 9.40625 -22.796875 
z
" id="CMMI12-61"/>
       <path d="M 51.796875 68 
L 5.09375 68 
L 5.09375 65.40625 
C 12 65.40625 13.09375 65.40625 13.09375 60.90625 
L 13.09375 7 
C 13.09375 2.5 12 2.5 5.09375 2.5 
L 5.09375 0 
C 8 0 13.59375 0 16.703125 0 
C 20.796875 0 25.59375 0 29.703125 0 
L 29.703125 2.5 
L 27.5 2.5 
C 19.90625 2.5 19.703125 3.5 19.703125 7.109375 
L 19.703125 61.5 
C 19.703125 64.90625 19.90625 65.40625 23.90625 65.40625 
L 34.90625 65.40625 
C 50.09375 65.40625 50.90625 58.40625 52.40625 45.90625 
L 54.203125 45.90625 
z
" id="CMR17-0"/>
      </defs>
      <use transform="scale(0.996264)" xlink:href="#MSBM10-69"/>
      <use transform="translate(66.417819 -14.943915)scale(0.697382)" xlink:href="#CMMI12-116"/>
      <use transform="translate(91.57426 0)scale(0.996264)" xlink:href="#CMR17-91"/>
      <use transform="translate(112.017465 0)scale(0.996264)" xlink:href="#CMR17-109"/>
      <use transform="translate(114.231346 2.767393)scale(0.996264)" xlink:href="#CMR17-109"/>
      <use transform="translate(116.445227 0)scale(0.996264)" xlink:href="#CMR17-109"/>
      <use transform="translate(193.364817 -14.943915)scale(0.697382)" xlink:href="#CMMI12-116"/>
      <use transform="translate(218.023127 -14.943915)scale(0.697382)" xlink:href="#CMR17-43"/>
      <use transform="translate(268.223258 -14.943915)scale(0.697382)" xlink:href="#CMR17-49"/>
      <use transform="translate(300.704572 0)scale(0.996264)" xlink:href="#CMMI12-61"/>
      <use transform="translate(345.051637 0)scale(0.996264)" xlink:href="#CMR17-109"/>
      <use transform="translate(347.265519 2.767393)scale(0.996264)" xlink:href="#CMR17-109"/>
      <use transform="translate(349.4794 0)scale(0.996264)" xlink:href="#CMR17-109"/>
      <use transform="translate(426.39899 -14.943915)scale(0.697382)" xlink:href="#CMMI12-116"/>
      <use transform="translate(451.555431 0)scale(0.996264)" xlink:href="#CMR17-93"/>
      <use transform="translate(504.100498 0)scale(0.996264)" xlink:href="#CMR17-61"/>
      <use transform="translate(603.489296 0)scale(0.996264)" xlink:href="#CMR17-0"/>
     </g>
    </g>
   </g>
  </g>
 </g>
 <defs>
  <clipPath id="pdd01840d79">
   <rect height="434.88" width="669.6" x="108" y="69.12"/>
  </clipPath>
 </defs>
</svg>
