<?xml version="1.0" encoding="utf-8" standalone="no"?>
<!DOCTYPE svg PUBLIC "-//W3C//DTD SVG 1.1//EN"
  "http://www.w3.org/Graphics/SVG/1.1/DTD/svg11.dtd">
<!-- Created with matplotlib (https://matplotlib.org/) -->
<svg height="576pt" version="1.1" viewBox="0 0 864 576" width="864pt" xmlns="http://www.w3.org/2000/svg" xmlns:xlink="http://www.w3.org/1999/xlink">
 <metadata>
  <rdf:RDF xmlns:cc="http://creativecommons.org/ns#" xmlns:dc="http://purl.org/dc/elements/1.1/" xmlns:rdf="http://www.w3.org/1999/02/22-rdf-syntax-ns#">
   <cc:Work>
    <dc:type rdf:resource="http://purl.org/dc/dcmitype/StillImage"/>
    <dc:date>2021-09-13T23:44:27.596785</dc:date>
    <dc:format>image/svg+xml</dc:format>
    <dc:creator>
     <cc:Agent>
      <dc:title>Matplotlib v3.3.2, https://matplotlib.org/</dc:title>
     </cc:Agent>
    </dc:creator>
   </cc:Work>
  </rdf:RDF>
 </metadata>
 <defs>
  <style type="text/css">*{stroke-linecap:butt;stroke-linejoin:round;}</style>
 </defs>
 <g id="figure_1">
  <g id="patch_1">
   <path d="M 0 576 
L 864 576 
L 864 0 
L 0 0 
z
" style="fill:#ffffff;"/>
  </g>
  <g id="axes_1">
   <g id="patch_2">
    <path d="M 108 512.64 
L 777.6 512.64 
L 777.6 69.12 
L 108 69.12 
z
" style="fill:#ffffff;"/>
   </g>
   <g id="patch_3">
    <path clip-path="url(#pabb7e9d2cb)" d="M 195.885 242.0928 
L 198.396 237.6576 
L 198.396 241.87104 
L 229.365 241.87104 
L 229.365 242.31456 
L 198.396 242.31456 
L 198.396 246.528 
z
" style="stroke:#000000;stroke-linejoin:miter;"/>
   </g>
   <g id="patch_4">
    <path clip-path="url(#pabb7e9d2cb)" d="M 308.88 486.0288 
L 306.330335 489.794016 
L 306.370043 485.585833 
L 292.13791 481.815083 
L 292.14209 481.372117 
L 306.374223 485.142867 
L 306.413931 480.934684 
z
" style="stroke:#000000;stroke-linejoin:miter;"/>
   </g>
   <g id="patch_5">
    <path clip-path="url(#pabb7e9d2cb)" d="M 505.575 102.384 
L 508.18238 99.971628 
L 508.064427 104.138452 
L 522.321208 115.470293 
L 522.308792 115.908907 
L 508.052011 104.577065 
L 507.934058 108.743889 
z
" style="stroke:#000000;stroke-linejoin:miter;"/>
   </g>
   <g id="matplotlib.axis_1">
    <g id="xtick_1">
     <g id="line2d_1">
      <defs>
       <path d="M 0 0 
L 0 3.5 
" id="mdc0e442648" style="stroke:#000000;stroke-width:0.8;"/>
      </defs>
      <g>
       <use style="stroke:#000000;stroke-width:0.8;" x="108" xlink:href="#mdc0e442648" y="512.64"/>
      </g>
     </g>
     <g id="text_1">
      <!-- $\mathdefault{0}$ -->
      <g transform="translate(102.974048 534.733242)scale(0.22 -0.22)">
       <defs>
        <path d="M 42 31.640625 
C 42 37.75 41.90625 48.125 37.703125 56.109375 
C 34 63.109375 28.09375 65.59375 22.90625 65.59375 
C 18.09375 65.59375 12 63.40625 8.203125 56.203125 
C 4.203125 48.71875 3.796875 39.4375 3.796875 31.640625 
C 3.796875 25.953125 3.90625 17.28125 7 9.671875 
C 11.296875 -0.609375 19 -2 22.90625 -2 
C 27.5 -2 34.5 -0.109375 38.59375 9.375 
C 41.59375 16.28125 42 24.359375 42 31.640625 
z
M 22.90625 -0.40625 
C 16.5 -0.40625 12.703125 5.078125 11.296875 12.6875 
C 10.203125 18.5625 10.203125 27.15625 10.203125 32.75 
C 10.203125 40.4375 10.203125 46.828125 11.5 52.921875 
C 13.40625 61.390625 19 64 22.90625 64 
C 27 64 32.296875 61.296875 34.203125 53.125 
C 35.5 47.4375 35.59375 40.734375 35.59375 32.75 
C 35.59375 26.25 35.59375 18.265625 34.40625 12.375 
C 32.296875 1.484375 26.40625 -0.40625 22.90625 -0.40625 
z
" id="CMR17-48"/>
       </defs>
       <use transform="scale(0.996264)" xlink:href="#CMR17-48"/>
      </g>
     </g>
    </g>
    <g id="xtick_2">
     <g id="line2d_2">
      <g>
       <use style="stroke:#000000;stroke-width:0.8;" x="191.7" xlink:href="#mdc0e442648" y="512.64"/>
      </g>
     </g>
     <g id="text_2">
      <!-- $\mathdefault{1}$ -->
      <g transform="translate(186.674048 534.733242)scale(0.22 -0.22)">
       <defs>
        <path d="M 26.59375 63.40625 
C 26.59375 65.5 26.5 65.5 25.09375 65.5 
C 21.203125 61.1875 15.296875 59.796875 9.703125 59.796875 
C 9.40625 59.796875 8.90625 59.796875 8.796875 59.5 
C 8.703125 59.296875 8.703125 59.09375 8.703125 57 
C 11.796875 57 17 57.59375 21 59.984375 
L 21 7.203125 
C 21 3.6875 20.796875 2.5 12.203125 2.5 
L 9.203125 2.5 
L 9.203125 0 
C 14 0 19 0 23.796875 0 
C 28.59375 0 33.59375 0 38.40625 0 
L 38.40625 2.5 
L 35.40625 2.5 
C 26.796875 2.5 26.59375 3.59375 26.59375 7.15625 
z
" id="CMR17-49"/>
       </defs>
       <use transform="scale(0.996264)" xlink:href="#CMR17-49"/>
      </g>
     </g>
    </g>
    <g id="xtick_3">
     <g id="line2d_3">
      <g>
       <use style="stroke:#000000;stroke-width:0.8;" x="275.4" xlink:href="#mdc0e442648" y="512.64"/>
      </g>
     </g>
     <g id="text_3">
      <!-- $\mathdefault{2}$ -->
      <g transform="translate(270.374048 534.733242)scale(0.22 -0.22)">
       <defs>
        <path d="M 41.703125 15.453125 
L 39.90625 15.453125 
C 38.90625 8.375 38.09375 7.171875 37.703125 6.5625 
C 37.203125 5.765625 30 5.765625 28.59375 5.765625 
L 9.40625 5.765625 
C 13 9.671875 20 16.75 28.5 24.953125 
C 34.59375 30.734375 41.703125 37.53125 41.703125 47.421875 
C 41.703125 59.21875 32.296875 66 21.796875 66 
C 10.796875 66 4.09375 56.3125 4.09375 47.34375 
C 4.09375 43.4375 7 42.9375 8.203125 42.9375 
C 9.203125 42.9375 12.203125 43.546875 12.203125 47.03125 
C 12.203125 50.109375 9.59375 51 8.203125 51 
C 7.59375 51 7 50.90625 6.59375 50.703125 
C 8.5 59.21875 14.296875 63.40625 20.40625 63.40625 
C 29.09375 63.40625 34.796875 56.515625 34.796875 47.421875 
C 34.796875 38.734375 29.703125 31.25 24 24.75 
L 4.09375 2.28125 
L 4.09375 0 
L 39.296875 0 
z
" id="CMR17-50"/>
       </defs>
       <use transform="scale(0.996264)" xlink:href="#CMR17-50"/>
      </g>
     </g>
    </g>
    <g id="xtick_4">
     <g id="line2d_4">
      <g>
       <use style="stroke:#000000;stroke-width:0.8;" x="359.1" xlink:href="#mdc0e442648" y="512.64"/>
      </g>
     </g>
     <g id="text_4">
      <!-- $\mathdefault{3}$ -->
      <g transform="translate(354.074048 534.733242)scale(0.22 -0.22)">
       <defs>
        <path d="M 22.09375 33.703125 
C 31 33.703125 34.90625 25.96875 34.90625 17.03125 
C 34.90625 5 28.5 0.390625 22.703125 0.390625 
C 17.40625 0.390625 8.796875 3.03125 6.09375 10.828125 
C 6.59375 10.625 7.09375 10.625 7.59375 10.625 
C 10 10.625 11.796875 12.21875 11.796875 14.8125 
C 11.796875 17.703125 9.59375 19 7.59375 19 
C 5.90625 19 3.296875 18.203125 3.296875 14.46875 
C 3.296875 5.234375 12.296875 -2 22.90625 -2 
C 34 -2 42.5 6.71875 42.5 16.953125 
C 42.5 26.671875 34.5 33.703125 25 34.796875 
C 32.59375 36.375 39.90625 43.0625 39.90625 52.015625 
C 39.90625 59.6875 32 65.296875 23 65.296875 
C 13.90625 65.296875 5.90625 59.828125 5.90625 52.015625 
C 5.90625 48.59375 8.5 48 9.796875 48 
C 11.90625 48 13.703125 49.296875 13.703125 51.890625 
C 13.703125 54.46875 11.90625 55.765625 9.796875 55.765625 
C 9.40625 55.765625 8.90625 55.765625 8.5 55.578125 
C 11.40625 61.859375 19.296875 63 22.796875 63 
C 26.296875 63 32.90625 61.328125 32.90625 51.875 
C 32.90625 49.109375 32.5 44.1875 29.09375 39.84375 
C 26.09375 36 22.703125 36 19.40625 35.6875 
C 18.90625 35.6875 16.59375 35.453125 16.203125 35.453125 
C 15.5 35.359375 15.09375 35.265625 15.09375 34.5 
C 15.09375 33.796875 15.203125 33.703125 17.203125 33.703125 
z
" id="CMR17-51"/>
       </defs>
       <use transform="scale(0.996264)" xlink:href="#CMR17-51"/>
      </g>
     </g>
    </g>
    <g id="xtick_5">
     <g id="line2d_5">
      <g>
       <use style="stroke:#000000;stroke-width:0.8;" x="442.8" xlink:href="#mdc0e442648" y="512.64"/>
      </g>
     </g>
     <g id="text_5">
      <!-- $\mathdefault{4}$ -->
      <g transform="translate(437.774048 534.733242)scale(0.22 -0.22)">
       <defs>
        <path d="M 33.59375 64.40625 
C 33.59375 66.5 33.5 66.5 31.703125 66.5 
L 2 19.59375 
L 2 17 
L 27.796875 17 
L 27.796875 7.140625 
C 27.796875 3.5 27.59375 2.5 20.59375 2.5 
L 18.703125 2.5 
L 18.703125 0 
C 21.90625 0 27.296875 0 30.703125 0 
C 34.09375 0 39.5 0 42.703125 0 
L 42.703125 2.5 
L 40.796875 2.5 
C 33.796875 2.5 33.59375 3.5 33.59375 7.140625 
L 33.59375 17 
L 43.796875 17 
L 43.796875 19.59375 
L 33.59375 19.59375 
z
M 28.09375 57.859375 
L 28.09375 19.59375 
L 4 19.59375 
z
" id="CMR17-52"/>
       </defs>
       <use transform="scale(0.996264)" xlink:href="#CMR17-52"/>
      </g>
     </g>
    </g>
    <g id="xtick_6">
     <g id="line2d_6">
      <g>
       <use style="stroke:#000000;stroke-width:0.8;" x="526.5" xlink:href="#mdc0e442648" y="512.64"/>
      </g>
     </g>
     <g id="text_6">
      <!-- $\mathdefault{5}$ -->
      <g transform="translate(521.474048 534.733242)scale(0.22 -0.22)">
       <defs>
        <path d="M 11.40625 57.6875 
C 12.40625 57.28125 16.5 56 20.703125 56 
C 30 56 35.09375 61.109375 38 64.0625 
C 38 64.953125 38 65.5 37.40625 65.5 
C 37.296875 65.5 37.09375 65.5 36.296875 65.046875 
C 32.796875 63.40625 28.703125 62.078125 23.703125 62.078125 
C 20.703125 62.078125 16.203125 62.484375 11.296875 64.671875 
C 10.203125 65.171875 10 65.171875 9.90625 65.171875 
C 9.40625 65.171875 9.296875 65.0625 9.296875 63.078125 
L 9.296875 34.421875 
C 9.296875 32.640625 9.296875 32.140625 10.296875 32.140625 
C 10.796875 32.140625 11 32.34375 11.5 33.03125 
C 14.703125 37.515625 19.09375 39.40625 24.09375 39.40625 
C 27.59375 39.40625 35.09375 37.21875 35.09375 20.140625 
C 35.09375 16.953125 35.09375 11.171875 32.09375 6.578125 
C 29.59375 2.484375 25.703125 0.390625 21.40625 0.390625 
C 14.796875 0.390625 8.09375 5 6.296875 12.71875 
C 6.703125 12.609375 7.5 12.421875 7.90625 12.421875 
C 9.203125 12.421875 11.703125 13.125 11.703125 16.21875 
C 11.703125 18.90625 9.796875 20 7.90625 20 
C 5.59375 20 4.09375 18.59375 4.09375 15.796875 
C 4.09375 7.09375 11 -2 21.59375 -2 
C 31.90625 -2 41.703125 6.875 41.703125 19.75 
C 41.703125 31.71875 33.90625 41 24.203125 41 
C 19.09375 41 14.796875 39.109375 11.40625 35.53125 
z
" id="CMR17-53"/>
       </defs>
       <use transform="scale(0.996264)" xlink:href="#CMR17-53"/>
      </g>
     </g>
    </g>
    <g id="xtick_7">
     <g id="line2d_7">
      <g>
       <use style="stroke:#000000;stroke-width:0.8;" x="610.2" xlink:href="#mdc0e442648" y="512.64"/>
      </g>
     </g>
     <g id="text_7">
      <!-- $\mathdefault{6}$ -->
      <g transform="translate(605.174048 534.733242)scale(0.22 -0.22)">
       <defs>
        <path d="M 10.59375 34 
C 10.59375 57.65625 21.796875 63 28.296875 63 
C 30.40625 63 35.5 62.640625 37.5 59 
C 35.90625 59 32.90625 59 32.90625 55.515625 
C 32.90625 52.828125 35.09375 51.921875 36.5 51.921875 
C 37.40625 51.921875 40.09375 52.3125 40.09375 55.625 
C 40.09375 61.78125 35.09375 65.296875 28.203125 65.296875 
C 16.296875 65.296875 3.796875 52.96875 3.796875 31 
C 3.796875 3.953125 15.09375 -2 23.09375 -2 
C 32.796875 -2 42 6.671875 42 20.046875 
C 42 32.515625 33.90625 41.59375 23.703125 41.59375 
C 17.59375 41.59375 13.09375 37.609375 10.59375 30.625 
z
M 23.09375 0.390625 
C 10.796875 0.390625 10.796875 18.75 10.796875 22.4375 
C 10.796875 29.625 14.203125 40 23.5 40 
C 25.203125 40 30.09375 40 33.40625 33.125 
C 35.203125 29.21875 35.203125 25.140625 35.203125 20.140625 
C 35.203125 14.75 35.203125 10.78125 33.09375 6.78125 
C 30.90625 2.671875 27.703125 0.390625 23.09375 0.390625 
z
" id="CMR17-54"/>
       </defs>
       <use transform="scale(0.996264)" xlink:href="#CMR17-54"/>
      </g>
     </g>
    </g>
    <g id="xtick_8">
     <g id="line2d_8">
      <g>
       <use style="stroke:#000000;stroke-width:0.8;" x="693.9" xlink:href="#mdc0e442648" y="512.64"/>
      </g>
     </g>
     <g id="text_8">
      <!-- $\mathdefault{7}$ -->
      <g transform="translate(688.874048 534.733242)scale(0.22 -0.22)">
       <defs>
        <path d="M 45.09375 61.578125 
L 45.09375 63.765625 
L 21.59375 63.765625 
C 9.90625 63.765625 9.703125 65.078125 9.296875 67 
L 7.5 67 
L 4.59375 48.34375 
L 6.40625 48.34375 
C 6.703125 50.234375 7.40625 55.3125 8.59375 57.203125 
C 9.203125 58 16.59375 58 18.296875 58 
L 40.296875 58 
L 29.203125 41.578125 
C 21.796875 30.53125 16.703125 15.609375 16.703125 2.578125 
C 16.703125 1.390625 16.703125 -2 20.296875 -2 
C 23.90625 -2 23.90625 1.390625 23.90625 2.671875 
L 23.90625 7.265625 
C 23.90625 23.5625 26.703125 34.3125 31.296875 41.1875 
z
" id="CMR17-55"/>
       </defs>
       <use transform="scale(0.996264)" xlink:href="#CMR17-55"/>
      </g>
     </g>
    </g>
    <g id="xtick_9">
     <g id="line2d_9">
      <g>
       <use style="stroke:#000000;stroke-width:0.8;" x="777.6" xlink:href="#mdc0e442648" y="512.64"/>
      </g>
     </g>
     <g id="text_9">
      <!-- $\mathdefault{8}$ -->
      <g transform="translate(772.574048 534.733242)scale(0.22 -0.22)">
       <defs>
        <path d="M 27.203125 35.375 
C 33.5 38.546875 39.90625 43.328125 39.90625 50.984375 
C 39.90625 60.015625 31.09375 65.296875 23 65.296875 
C 13.90625 65.296875 5.90625 58.734375 5.90625 49.6875 
C 5.90625 47.203125 6.5 42.921875 10.40625 39.140625 
C 11.40625 38.15625 15.59375 35.171875 18.296875 33.28125 
C 13.796875 30.984375 3.296875 25.53125 3.296875 14.59375 
C 3.296875 4.359375 13.09375 -2 22.796875 -2 
C 33.5 -2 42.5 5.65625 42.5 15.78125 
C 42.5 24.84375 36.40625 29.015625 32.40625 31.703125 
z
M 14.09375 44.09375 
C 13.296875 44.59375 9.296875 47.671875 9.296875 52.359375 
C 9.296875 58.421875 15.59375 63 22.796875 63 
C 30.703125 63 36.5 57.4375 36.5 50.96875 
C 36.5 41.703125 26.09375 36.421875 25.59375 36.421875 
C 25.5 36.421875 25.40625 36.421875 24.59375 37.03125 
z
M 32.5 23.734375 
C 34 22.640625 38.796875 19.375 38.796875 13.296875 
C 38.796875 5.953125 31.40625 0.390625 23 0.390625 
C 13.90625 0.390625 7 6.84375 7 14.6875 
C 7 22.546875 13.09375 29.09375 20 32.1875 
z
" id="CMR17-56"/>
       </defs>
       <use transform="scale(0.996264)" xlink:href="#CMR17-56"/>
      </g>
     </g>
    </g>
   </g>
   <g id="matplotlib.axis_2">
    <g id="ytick_1">
     <g id="line2d_10">
      <defs>
       <path d="M 0 0 
L -3.5 0 
" id="me5c8730473" style="stroke:#000000;stroke-width:0.8;"/>
      </defs>
      <g>
       <use style="stroke:#000000;stroke-width:0.8;" x="108" xlink:href="#me5c8730473" y="512.64"/>
      </g>
     </g>
     <g id="text_10">
      <!-- $\mathdefault{0.0}$ -->
      <g transform="translate(74.934811 520.186621)scale(0.22 -0.22)">
       <defs>
        <path d="M 18.40625 4.796875 
C 18.40625 7.6875 16 9.671875 13.59375 9.671875 
C 10.703125 9.671875 8.703125 7.28125 8.703125 4.890625 
C 8.703125 2 11.09375 0 13.5 0 
C 16.40625 0 18.40625 2.390625 18.40625 4.796875 
z
" id="CMMI12-58"/>
       </defs>
       <use transform="scale(0.996264)" xlink:href="#CMR17-48"/>
       <use transform="translate(45.690477 0)scale(0.996264)" xlink:href="#CMMI12-58"/>
       <use transform="translate(72.787654 0)scale(0.996264)" xlink:href="#CMR17-48"/>
      </g>
     </g>
    </g>
    <g id="ytick_2">
     <g id="line2d_11">
      <g>
       <use style="stroke:#000000;stroke-width:0.8;" x="108" xlink:href="#me5c8730473" y="423.936"/>
      </g>
     </g>
     <g id="text_11">
      <!-- $\mathdefault{0.2}$ -->
      <g transform="translate(74.934811 431.482621)scale(0.22 -0.22)">
       <use transform="scale(0.996264)" xlink:href="#CMR17-48"/>
       <use transform="translate(45.690477 0)scale(0.996264)" xlink:href="#CMMI12-58"/>
       <use transform="translate(72.787654 0)scale(0.996264)" xlink:href="#CMR17-50"/>
      </g>
     </g>
    </g>
    <g id="ytick_3">
     <g id="line2d_12">
      <g>
       <use style="stroke:#000000;stroke-width:0.8;" x="108" xlink:href="#me5c8730473" y="335.232"/>
      </g>
     </g>
     <g id="text_12">
      <!-- $\mathdefault{0.4}$ -->
      <g transform="translate(74.934811 342.778621)scale(0.22 -0.22)">
       <use transform="scale(0.996264)" xlink:href="#CMR17-48"/>
       <use transform="translate(45.690477 0)scale(0.996264)" xlink:href="#CMMI12-58"/>
       <use transform="translate(72.787654 0)scale(0.996264)" xlink:href="#CMR17-52"/>
      </g>
     </g>
    </g>
    <g id="ytick_4">
     <g id="line2d_13">
      <g>
       <use style="stroke:#000000;stroke-width:0.8;" x="108" xlink:href="#me5c8730473" y="246.528"/>
      </g>
     </g>
     <g id="text_13">
      <!-- $\mathdefault{0.6}$ -->
      <g transform="translate(74.934811 254.074621)scale(0.22 -0.22)">
       <use transform="scale(0.996264)" xlink:href="#CMR17-48"/>
       <use transform="translate(45.690477 0)scale(0.996264)" xlink:href="#CMMI12-58"/>
       <use transform="translate(72.787654 0)scale(0.996264)" xlink:href="#CMR17-54"/>
      </g>
     </g>
    </g>
    <g id="ytick_5">
     <g id="line2d_14">
      <g>
       <use style="stroke:#000000;stroke-width:0.8;" x="108" xlink:href="#me5c8730473" y="157.824"/>
      </g>
     </g>
     <g id="text_14">
      <!-- $\mathdefault{0.8}$ -->
      <g transform="translate(74.934811 165.370621)scale(0.22 -0.22)">
       <use transform="scale(0.996264)" xlink:href="#CMR17-48"/>
       <use transform="translate(45.690477 0)scale(0.996264)" xlink:href="#CMMI12-58"/>
       <use transform="translate(72.787654 0)scale(0.996264)" xlink:href="#CMR17-56"/>
      </g>
     </g>
    </g>
    <g id="ytick_6">
     <g id="line2d_15">
      <g>
       <use style="stroke:#000000;stroke-width:0.8;" x="108" xlink:href="#me5c8730473" y="69.12"/>
      </g>
     </g>
     <g id="text_15">
      <!-- $\mathdefault{1.0}$ -->
      <g transform="translate(74.934811 76.666621)scale(0.22 -0.22)">
       <use transform="scale(0.996264)" xlink:href="#CMR17-49"/>
       <use transform="translate(45.690477 0)scale(0.996264)" xlink:href="#CMMI12-58"/>
       <use transform="translate(72.787654 0)scale(0.996264)" xlink:href="#CMR17-48"/>
      </g>
     </g>
    </g>
   </g>
   <g id="line2d_16">
    <path clip-path="url(#pabb7e9d2cb)" d="M 108.0837 99.25507 
L 111.434632 99.31222 
L 118.136497 99.914693 
L 119.47687 100.261896 
L 120.147057 100.261896 
L 120.817243 100.463421 
L 121.48743 100.463421 
L 122.827803 100.923069 
L 123.497989 100.923069 
L 124.168176 101.181508 
L 124.838362 101.181508 
L 126.178735 101.756328 
L 126.848922 101.756328 
L 128.189295 102.408615 
L 128.859481 102.408615 
L 129.529668 102.764137 
L 130.199854 102.764137 
L 131.540227 103.535015 
L 132.210414 103.535015 
L 133.550786 104.386693 
L 134.220973 104.386693 
L 135.561346 105.320849 
L 136.231532 105.320849 
L 137.571905 106.338361 
L 138.242092 106.338361 
L 139.582465 107.440727 
L 140.252651 107.440727 
L 142.263211 109.254988 
L 142.933397 109.254988 
L 144.27377 110.573199 
L 144.943957 110.573199 
L 147.624703 113.47509 
L 148.294889 113.47509 
L 150.975635 116.737196 
L 151.645822 116.737196 
L 154.326568 120.361865 
L 157.007314 124.350321 
L 157.6775 125.404821 
L 158.347686 125.404821 
L 161.028432 129.84375 
L 161.698619 132.196307 
L 165.049551 138.452378 
L 166.389924 141.102406 
L 167.060111 143.830585 
L 169.07067 148.069678 
L 169.740857 150.986916 
L 171.08123 153.975102 
L 171.751416 157.029059 
L 172.421603 158.580885 
L 173.091789 161.730802 
L 173.761976 163.331052 
L 174.432162 166.56265 
L 175.102349 168.202145 
L 175.772535 171.510808 
L 176.442722 173.187205 
L 177.783095 179.983654 
L 178.453281 181.705351 
L 181.134027 195.745589 
L 181.804214 197.527642 
L 183.814773 208.251929 
L 184.484959 213.626014 
L 187.835892 231.407921 
L 188.506078 236.661622 
L 189.176265 240.126262 
L 189.846451 245.296255 
L 191.186824 252.05501 
L 191.857011 257.040381 
L 192.527197 260.315384 
L 193.86757 269.901344 
L 194.537757 273.028261 
L 195.87813 282.094954 
L 196.548316 285.042203 
L 199.229062 301.702979 
L 199.899249 304.327794 
L 202.579995 319.083381 
L 205.260741 332.319925 
L 207.2713 341.327774 
L 209.281859 349.619037 
L 209.952046 351.361834 
L 212.632792 361.200955 
L 215.313538 370.063104 
L 217.994284 378.037097 
L 218.66447 379.28221 
L 221.345216 386.382823 
L 222.015403 388.058192 
L 222.685589 389.142273 
L 224.696149 393.846182 
L 225.366335 394.853683 
L 226.706708 397.772433 
L 227.376895 398.719025 
L 228.717268 401.473209 
L 229.387454 402.361339 
L 230.727827 404.967934 
L 231.398014 405.802323 
L 232.0682 407.05265 
L 232.738386 407.863376 
L 233.408573 409.06706 
L 234.078759 409.851882 
L 234.748946 411.011706 
L 235.419132 411.771218 
L 236.089319 412.900988 
L 236.759505 413.637776 
L 237.429692 414.726592 
L 238.770065 416.143857 
L 239.440251 417.184702 
L 240.780624 418.549369 
L 241.450811 419.550592 
L 242.791184 420.855148 
L 243.46137 421.815986 
L 245.47193 423.680758 
L 246.142116 424.594751 
L 249.493049 427.522938 
L 250.163235 428.370808 
L 254.854541 432.1702 
L 260.216032 436.208927 
L 262.226592 437.652 
L 262.896778 437.888293 
L 266.247711 440.203332 
L 266.917897 440.43076 
L 268.928457 441.769036 
L 269.598643 441.98882 
L 271.609203 443.294708 
L 272.279389 443.508928 
L 273.619762 444.358759 
L 274.289949 444.57089 
L 275.630322 445.403502 
L 276.300508 445.609993 
L 276.970695 446.020856 
L 277.640881 446.226599 
L 278.981254 447.035378 
L 279.651441 447.235575 
L 280.321627 447.633256 
L 280.991814 447.831966 
L 281.662 448.227938 
L 282.332186 448.423359 
L 283.672559 449.198517 
L 284.342746 449.389935 
L 285.012932 449.770909 
L 285.683119 449.960705 
L 286.353305 450.339464 
L 287.023492 450.526814 
L 287.693678 450.897775 
L 289.034051 451.266743 
L 289.704238 451.633464 
L 290.374424 451.815845 
L 291.044611 452.176701 
L 291.714797 452.356248 
L 292.384984 452.712231 
L 293.725357 453.065832 
L 294.395543 453.416042 
L 295.735916 453.763841 
L 296.406103 454.107188 
L 297.076289 454.278334 
L 297.746476 454.617661 
L 299.086849 454.955014 
L 299.757035 455.287836 
L 301.767595 455.78112 
L 302.437781 456.106676 
L 303.778154 456.429204 
L 304.448341 456.747687 
L 306.4589 457.220953 
L 307.129086 457.532514 
L 309.809832 458.146789 
L 310.480019 458.449252 
L 313.160765 459.045715 
L 313.830951 459.339267 
L 317.181884 460.062232 
L 317.85207 460.346905 
L 336.617292 464.17637 
L 344.65953 465.616181 
L 345.329716 465.616181 
L 351.361395 466.646642 
L 352.031581 466.646642 
L 356.722886 467.421279 
L 358.063259 467.530186 
L 362.084378 468.066585 
L 366.105497 468.592753 
L 370.796803 469.209809 
L 372.137176 469.311199 
L 376.828481 469.91093 
L 378.168854 470.009638 
L 381.519786 470.39986 
L 382.860159 470.49679 
L 386.211092 470.879296 
L 387.551465 470.974106 
L 390.902397 471.349594 
L 392.24277 471.442918 
L 394.923516 471.720012 
L 396.263889 471.811353 
L 398.944635 472.083506 
L 400.285008 472.174081 
L 402.965754 472.442903 
L 404.306127 472.531671 
L 406.316686 472.708488 
L 407.657059 472.796543 
L 410.337805 473.057867 
L 412.348365 473.144396 
L 415.029111 473.402542 
L 416.369484 473.488509 
L 418.380043 473.658315 
L 419.720416 473.742747 
L 421.730976 473.910512 
L 423.741535 473.993831 
L 426.422281 474.243102 
L 428.432841 474.325223 
L 431.113586 474.570514 
L 433.124146 474.651633 
L 435.134705 474.813481 
L 436.475078 474.893814 
L 438.485638 475.05352 
L 440.496197 475.132885 
L 442.506757 475.290833 
L 444.517316 475.369624 
L 446.527876 475.526977 
L 448.538435 475.604767 
L 450.548995 475.759788 
L 452.559554 475.836649 
L 454.570114 475.990027 
L 456.580673 476.066499 
L 458.591232 476.218257 
L 460.601792 476.293633 
L 462.612351 476.444291 
L 464.622911 476.519133 
L 466.63347 476.667887 
L 469.314216 476.741929 
L 471.324776 476.888986 
L 473.335335 476.962369 
L 475.345895 477.10847 
L 478.026641 477.181148 
L 480.0372 477.325347 
L 482.717946 477.397152 
L 484.728505 477.540507 
L 487.409251 477.611659 
L 489.419811 477.753359 
L 492.100557 477.824074 
L 494.111116 477.964168 
L 496.791862 478.034046 
L 498.802422 478.173097 
L 501.483168 478.242322 
L 502.823541 478.311277 
L 504.8341 478.379929 
L 506.174473 478.448353 
L 508.185032 478.516654 
L 509.525405 478.584595 
L 511.535965 478.652451 
L 512.876338 478.719888 
L 515.557084 478.787295 
L 517.567643 478.921527 
L 520.918576 478.988476 
L 522.929135 479.121612 
L 526.280068 479.187917 
L 528.290627 479.319421 
L 531.641559 479.384814 
L 532.981932 479.450372 
L 535.662678 479.51559 
L 537.003051 479.58034 
L 539.013611 479.644974 
L 540.353984 479.70936 
L 543.03473 479.7736 
L 544.375103 479.837919 
L 547.055849 479.902122 
L 548.396222 479.965907 
L 551.076968 480.029625 
L 552.417341 480.093075 
L 555.098086 480.15619 
L 556.438459 480.219199 
L 559.119205 480.281751 
L 560.459578 480.344165 
L 563.140324 480.406429 
L 564.480697 480.468543 
L 567.83163 480.530573 
L 569.172003 480.592738 
L 571.852749 480.654538 
L 573.193122 480.716209 
L 576.544054 480.777388 
L 577.884427 480.838464 
L 580.565173 480.899247 
L 581.905546 480.959895 
L 585.256478 481.020345 
L 586.596851 481.080634 
L 589.947784 481.140971 
L 591.288157 481.201101 
L 593.968903 481.26105 
L 595.309276 481.320703 
L 598.660208 481.380141 
L 600.000581 481.439316 
L 603.351514 481.498409 
L 604.691886 481.55726 
L 608.713005 481.616007 
L 610.053378 481.674553 
L 613.404311 481.733298 
L 614.744684 481.791612 
L 618.095616 481.849641 
L 619.435989 481.907485 
L 623.457108 481.965138 
L 624.797481 482.022794 
L 628.8186 482.080212 
L 630.158973 482.137357 
L 633.509905 482.194523 
L 634.850278 482.251436 
L 638.871397 482.308063 
L 640.21177 482.364528 
L 644.232889 482.420982 
L 645.573262 482.477272 
L 649.594381 482.533323 
L 650.934754 482.589229 
L 655.626059 482.644957 
L 657.636619 482.700511 
L 663.668297 482.811237 
L 665.678857 482.866279 
L 672.380722 482.975909 
L 674.391281 483.03064 
L 681.093146 483.139483 
L 683.103705 483.193576 
L 690.475757 483.301487 
L 692.486316 483.355111 
L 699.858368 483.461918 
L 701.868927 483.515283 
L 709.240978 483.621072 
L 711.251538 483.673824 
L 718.623589 483.778688 
L 720.634149 483.830961 
L 728.676386 483.935148 
L 730.686946 483.986926 
L 739.39937 484.090256 
L 741.40993 484.141886 
L 749.452168 484.244472 
L 751.462727 484.295303 
L 760.175151 484.396737 
L 762.185711 484.447057 
L 771.568322 484.547507 
L 773.578881 484.597498 
L 777.6 484.647384 
L 777.6 484.647384 
" style="fill:none;stroke:#000000;stroke-linecap:square;stroke-width:1.5;"/>
   </g>
   <g id="line2d_17">
    <path clip-path="url(#pabb7e9d2cb)" d="M 108 99.407778 
L 777.6 99.407778 
" style="fill:none;stroke:#000000;stroke-linecap:square;stroke-width:1.5;"/>
   </g>
   <g id="line2d_18">
    <path clip-path="url(#pabb7e9d2cb)" d="M 108 497.453859 
L 777.6 497.453859 
" style="fill:none;stroke:#000000;stroke-linecap:square;stroke-width:1.5;"/>
   </g>
   <g id="patch_6">
    <path d="M 108 512.64 
L 108 69.12 
" style="fill:none;stroke:#000000;stroke-linecap:square;stroke-linejoin:miter;stroke-width:0.8;"/>
   </g>
   <g id="patch_7">
    <path d="M 777.6 512.64 
L 777.6 69.12 
" style="fill:none;stroke:#000000;stroke-linecap:square;stroke-linejoin:miter;stroke-width:0.8;"/>
   </g>
   <g id="patch_8">
    <path d="M 108 512.64 
L 777.6 512.64 
" style="fill:none;stroke:#000000;stroke-linecap:square;stroke-linejoin:miter;stroke-width:0.8;"/>
   </g>
   <g id="patch_9">
    <path d="M 108 69.12 
L 777.6 69.12 
" style="fill:none;stroke:#000000;stroke-linecap:square;stroke-linejoin:miter;stroke-width:0.8;"/>
   </g>
   <g id="text_16">
    <!-- $\MPC(m) \equiv c^{\prime}(m)$ -->
    <g transform="translate(233.55 246.528)scale(0.26 -0.26)">
     <defs>
      <path d="M 21.296875 25 
C 24.59375 26.78125 28.296875 29.875 30.796875 31.96875 
C 36.796875 37.140625 39 38.734375 42.796875 40.21875 
C 42.40625 39.625 42.296875 38.828125 42.296875 38.140625 
C 42.296875 35.4375 44.59375 34.9375 45.59375 34.9375 
C 48.796875 34.9375 50.59375 37.921875 50.59375 39.8125 
C 50.59375 40.40625 50.40625 43 46.90625 43 
C 40.90625 43 35 37.984375 30.59375 34.34375 
C 24.796875 29.3125 21.90625 27.15625 17.796875 25.875 
L 21.59375 41.5 
C 21.59375 43.109375 20.296875 44 19 44 
C 18.09375 44 15.90625 43.703125 15.09375 40.5 
L 5.796875 3.5 
C 5.5 2.3125 5.5 2.09375 5.5 1.5 
C 5.5 0.09375 6.59375 -1 8.09375 -1 
C 11.09375 -1 11.703125 1.65625 12.203125 3.8125 
C 12.796875 5.9375 16.90625 23 17.09375 23 
C 29.796875 23 34.09375 19.75 34.09375 14.734375 
C 34.09375 14.015625 34.09375 13.71875 33.796875 12.59375 
C 33.40625 10.65625 33.40625 9.515625 33.40625 8.90625 
C 33.40625 2.78125 37.296875 -1 42.203125 -1 
C 46.296875 -1 48.59375 1.921875 50.09375 4.546875 
C 52.203125 8.484375 53.5 14.03125 53.5 14.421875 
C 53.5 14.9375 53.09375 15.328125 52.5 15.328125 
C 51.59375 15.328125 51.5 14.9375 51.09375 13.3125 
C 49.796875 8.46875 47.59375 1 42.5 1 
C 40.296875 1 39.203125 2.3125 39.203125 5.84375 
C 39.203125 7.78125 39.59375 10.015625 40 11.515625 
C 40.203125 12.53125 40.5 13.75 40.5 14.859375 
C 40.5 24.078125 27.90625 25 21.296875 25 
z
" id="CMMI12-20"/>
      <path d="M 30.59375 -24.390625 
C 30.59375 -24.296875 30.59375 -24.09375 30.296875 -23.796875 
C 25.703125 -19.125 13.40625 -6.359375 13.40625 24.703125 
C 13.40625 55.765625 25.5 68.421875 30.40625 73.390625 
C 30.40625 73.5 30.59375 73.703125 30.59375 74 
C 30.59375 74.296875 30.296875 74.5 29.90625 74.5 
C 28.796875 74.5 20.296875 67.125 15.40625 56.15625 
C 10.40625 45.109375 9 34.359375 9 24.8125 
C 9 17.625 9.703125 5.484375 15.703125 -7.359375 
C 20.5 -17.734375 28.703125 -25 29.90625 -25 
C 30.40625 -25 30.59375 -24.796875 30.59375 -24.390625 
z
" id="CMR17-40"/>
      <path d="M 20.59375 29.234375 
C 20.796875 29.84375 23.296875 34.828125 27 38.015625 
C 29.59375 40.40625 33 42.015625 36.90625 42.015625 
C 40.90625 42.015625 42.296875 39.015625 42.296875 35.03125 
C 42.296875 34.421875 42.296875 32.4375 41.09375 27.734375 
L 38.59375 17.46875 
C 37.796875 14.46875 35.90625 7.078125 35.703125 5.984375 
C 35.296875 4.484375 34.703125 1.890625 34.703125 1.5 
C 34.703125 0.09375 35.796875 -1 37.296875 -1 
C 40.296875 -1 40.796875 1.296875 41.703125 4.890625 
L 47.703125 28.734375 
C 47.90625 29.53125 53.09375 42.015625 64.09375 42.015625 
C 68.09375 42.015625 69.5 39.015625 69.5 35.03125 
C 69.5 29.4375 65.59375 18.5625 63.40625 12.578125 
C 62.5 10.171875 62 8.875 62 7.078125 
C 62 2.59375 65.09375 -1 69.90625 -1 
C 79.203125 -1 82.703125 13.671875 82.703125 14.265625 
C 82.703125 14.765625 82.296875 15.171875 81.703125 15.171875 
C 80.796875 15.171875 80.703125 14.875 80.203125 13.171875 
C 77.90625 5.1875 74.203125 1 70.203125 1 
C 69.203125 1 67.59375 1 67.59375 4.203125 
C 67.59375 6.8125 68.796875 10 69.203125 11.09375 
C 71 15.90625 75.5 27.703125 75.5 33.515625 
C 75.5 39.5 72 44 64.40625 44 
C 57.703125 44 52.296875 40.21875 48.296875 34.328125 
C 48 39.71875 44.703125 44 37.203125 44 
C 28.296875 44 23.59375 37.734375 21.796875 35.234375 
C 21.5 40.90625 17.40625 44 13 44 
C 10.09375 44 7.796875 42.609375 5.90625 38.8125 
C 4.09375 35.21875 2.703125 29.140625 2.703125 28.734375 
C 2.703125 28.34375 3.09375 27.84375 3.796875 27.84375 
C 4.59375 27.84375 4.703125 27.9375 5.296875 30.234375 
C 6.796875 36.125 8.703125 42.015625 12.703125 42.015625 
C 15 42.015625 15.796875 40.40625 15.796875 37.421875 
C 15.796875 35.21875 14.796875 31.328125 14.09375 28.234375 
L 11.296875 17.46875 
C 10.90625 15.5625 9.796875 11.078125 9.296875 9.28125 
C 8.59375 6.6875 7.5 2 7.5 1.5 
C 7.5 0.09375 8.59375 -1 10.09375 -1 
C 11.296875 -1 12.703125 -0.40625 13.5 1.09375 
C 13.703125 1.59375 14.59375 5.09375 15.09375 7.078125 
L 17.296875 16.0625 
z
" id="CMMI12-109"/>
      <path d="M 26.296875 24.703125 
C 26.296875 31.875 25.59375 44.015625 19.59375 56.859375 
C 14.796875 67.234375 6.59375 74.5 5.40625 74.5 
C 5.09375 74.5 4.703125 74.390625 4.703125 73.890625 
C 4.703125 73.703125 4.796875 73.59375 4.90625 73.390625 
C 9.703125 68.40625 21.90625 55.75 21.90625 24.75 
C 21.90625 -6.359375 9.796875 -19.015625 4.90625 -24.015625 
C 4.796875 -24.203125 4.703125 -24.3125 4.703125 -24.5 
C 4.703125 -25 5.09375 -25 5.40625 -25 
C 6.5 -25 15 -17.625 19.90625 -6.65625 
C 24.90625 4.390625 26.296875 15.140625 26.296875 24.703125 
z
" id="CMR17-41"/>
      <path d="M 68.59375 42.1875 
C 70.296875 42.1875 72.203125 42.1875 72.203125 44.1875 
C 72.203125 46.1875 70.40625 46.1875 68.703125 46.1875 
L 9 46.1875 
C 7.296875 46.1875 5.5 46.1875 5.5 44.1875 
C 5.5 42.1875 7.5 42.1875 9.09375 42.1875 
z
M 68.703125 3.8125 
C 70.40625 3.8125 72.203125 3.8125 72.203125 5.8125 
C 72.203125 7.8125 70.296875 7.8125 68.59375 7.8125 
L 9.09375 7.8125 
C 7.5 7.8125 5.5 7.8125 5.5 5.8125 
C 5.5 3.8125 7.296875 3.8125 9 3.8125 
z
M 68.703125 23 
C 70.40625 23 72.203125 23 72.203125 25 
C 72.203125 27 70.40625 27 68.703125 27 
L 9 27 
C 7.296875 27 5.5 27 5.5 25 
C 5.5 23 7.296875 23 9 23 
z
" id="CMSY10-17"/>
      <path d="M 39.09375 37.984375 
C 37.203125 37.984375 36.296875 37.984375 34.90625 36.796875 
C 34.296875 36.296875 33.203125 34.796875 33.203125 33.203125 
C 33.203125 31.203125 34.703125 30 36.59375 30 
C 39 30 41.703125 31.9375 41.703125 35.8125 
C 41.703125 40.4375 37.09375 44 30.203125 44 
C 17.09375 44 4 29.734375 4 15.5625 
C 4 6.890625 9.40625 -1 19.59375 -1 
C 33.203125 -1 41.796875 9.71875 41.796875 11.03125 
C 41.796875 11.625 41.203125 12.125 40.796875 12.125 
C 40.5 12.125 40.40625 12.03125 39.5 11.140625 
C 33.09375 2.53125 23.59375 1 19.796875 1 
C 12.90625 1 10.703125 6.96875 10.703125 11.9375 
C 10.703125 15.4375 12.40625 25.078125 16 31.859375 
C 18.59375 36.53125 24 41.90625 30.296875 41.90625 
C 31.59375 41.90625 37.09375 41.90625 39.09375 37.984375 
z
" id="CMMI12-99"/>
      <path d="M 25.296875 47.5 
C 25.796875 48.703125 26.203125 49.59375 26.203125 50.59375 
C 26.203125 53.5 23.59375 55.90625 20.5 55.90625 
C 17.703125 55.90625 15.90625 54 15.203125 51.40625 
L 3.296875 7.703125 
C 3.296875 7.5 2.90625 6.40625 2.90625 6.296875 
C 2.90625 5.203125 5.5 4.5 6.296875 4.5 
C 6.90625 4.5 7 4.796875 7.59375 6.09375 
z
" id="CMSY10-48"/>
     </defs>
     <use transform="scale(0.996264)" xlink:href="#CMMI12-20"/>
     <use transform="translate(56.154624 0)scale(0.996264)" xlink:href="#CMR17-40"/>
     <use transform="translate(91.435392 0)scale(0.996264)" xlink:href="#CMMI12-109"/>
     <use transform="translate(176.762616 0)scale(0.996264)" xlink:href="#CMR17-41"/>
     <use transform="translate(239.717393 0)scale(0.996264)" xlink:href="#CMSY10-17"/>
     <use transform="translate(344.878869 0)scale(0.996264)" xlink:href="#CMMI12-99"/>
     <use transform="translate(386.862103 36.153639)scale(0.697382)" xlink:href="#CMSY10-48"/>
     <use transform="translate(406.538195 0)scale(0.996264)" xlink:href="#CMR17-40"/>
     <use transform="translate(441.818963 0)scale(0.996264)" xlink:href="#CMMI12-109"/>
     <use transform="translate(527.146188 0)scale(0.996264)" xlink:href="#CMR17-41"/>
    </g>
   </g>
   <g id="text_17">
    <!-- $(1-\UnempPrb^{1/\CRRA}\pmb{\text{\TH}})\equiv \overline{\MPC}$ -->
    <g transform="translate(526.5 126.7776)scale(0.26 -0.26)">
     <defs>
      <path d="M 65.90625 23 
C 67.59375 23 69.40625 23 69.40625 25 
C 69.40625 27 67.59375 27 65.90625 27 
L 11.796875 27 
C 10.09375 27 8.296875 27 8.296875 25 
C 8.296875 23 10.09375 23 11.796875 23 
z
" id="CMSY10-0"/>
      <path d="M 16.40625 12 
C 22.59375 26.25 34.296875 38.90625 47.59375 38.90625 
C 52.59375 38.90625 54.796875 34.703125 54.796875 29.203125 
C 54.796875 24.90625 52.796875 15.59375 49.59375 9.796875 
C 47.09375 5.296875 42.703125 1 38 1 
C 36 1 31.40625 1.90625 31.40625 7.390625 
C 32.796875 7.6875 33.40625 8.6875 33.40625 9.59375 
C 33.40625 10.703125 32.59375 11.296875 31.703125 11.296875 
C 29.203125 11.296875 29.203125 8.203125 29.203125 7.203125 
C 29.203125 1.703125 33.5 -1 38 -1 
C 49 -1 60.5 12.5 60.5 26.09375 
C 60.5 33.59375 56.296875 40.90625 47.796875 40.90625 
C 41.703125 40.90625 34.90625 38.59375 27.90625 32.09375 
C 24.09375 28.703125 19.90625 23.796875 14.90625 14.09375 
C 12.5 16.796875 12.5 20 12.5 21.40625 
C 12.5 28.90625 17.296875 41.75 24.203125 43.078125 
C 24.796875 43.171875 25.40625 43.265625 25.40625 44.21875 
C 25.40625 44.3125 25.40625 44.984375 24.296875 44.984375 
C 17.203125 44.984375 8.203125 31.265625 8.203125 18.53125 
C 8.203125 13.375 9.296875 11.875 12.40625 7.796875 
C 8.90625 -2.28125 7.5 -10.84375 7.5 -13.953125 
C 7.5 -18.09375 9.09375 -21.71875 13.796875 -21.71875 
C 20.40625 -21.71875 26.796875 -13.09375 26.796875 -5.359375 
C 26.796875 -1.734375 25.90625 -0.546875 22.5 4.078125 
C 21.09375 5.78125 17.703125 10.1875 16.40625 12 
z
M 13.90625 5.484375 
L 21.203125 -4.015625 
C 22.296875 -5.625 22.40625 -6.8125 22.40625 -8.21875 
C 22.40625 -14.015625 18 -19.71875 13.796875 -19.71875 
C 11 -19.71875 9.703125 -17.71875 9.703125 -13.921875 
C 9.703125 -9.3125 12.5 1.484375 13.90625 5.484375 
z
" id="CMMI12-125"/>
      <path d="M 42.90625 71.28125 
C 42.90625 71.390625 43.5 72.90625 43.5 73.09375 
C 43.5 74.296875 42.5 75 41.703125 75 
C 41.203125 75 40.296875 75 39.5 72.796875 
L 6 -21.296875 
C 6 -21.40625 5.40625 -22.890625 5.40625 -23.09375 
C 5.40625 -24.296875 6.40625 -25 7.203125 -25 
C 7.796875 -25 8.703125 -24.890625 9.40625 -22.796875 
z
" id="CMMI12-61"/>
      <path d="M 3.09375 -17.296875 
C 3 -17.796875 2.796875 -18.390625 2.796875 -19 
C 2.796875 -20.5 4 -21.5 5.5 -21.5 
C 7 -21.5 8.40625 -20.5 9 -19.09375 
C 9.40625 -18.1875 12.203125 -6.203125 15.40625 6.09375 
C 17.40625 1.09375 21.09375 -1 25 -1 
C 36.296875 -1 49.09375 12.96875 49.09375 28.046875 
C 49.09375 38.71875 42.59375 44 35.703125 44 
C 26.90625 44 16.203125 34.921875 12.90625 21.640625 
z
M 24.90625 1 
C 18.09375 1 16.40625 8.890625 16.40625 10.078125 
C 16.40625 10.6875 18.90625 20.234375 19.203125 21.734375 
C 24.296875 41.71875 34.09375 41.71875 35.59375 41.71875 
C 40.09375 41.71875 42.59375 37.65625 42.59375 31.8125 
C 42.59375 26.75 39.90625 16.9375 38.203125 12.796875 
C 35.203125 5.953125 30 1 24.90625 1 
z
" id="CMMI12-26"/>
      <path d="M 7.40625 68.203125 
L 7.40625 66 
L 9.09375 66 
C 11.703125 66 13.796875 65.703125 13.796875 61.796875 
L 13.796875 6.40625 
C 13.796875 2.5 12.09375 2.203125 7.40625 2.203125 
L 7.40625 0 
L 24.90625 0 
L 24.90625 2.203125 
L 22.90625 2.203125 
C 20.59375 2.203125 18.5 2.5 18.5 5.703125 
L 18.5 17.8125 
L 34 17.8125 
C 43.703125 18.703125 50.796875 26.921875 50.796875 36.359375 
C 50.796875 44.875 44.703125 53.296875 35.40625 54.703125 
C 33.796875 55 32.203125 55 30.59375 55 
L 18.5 55 
L 18.5 62.078125 
C 18.5 64.8125 18.90625 66 24.90625 66 
L 24.90625 68.203125 
z
M 18.5 20 
L 18.5 52.796875 
L 27.90625 52.796875 
C 32.703125 52.796875 37.40625 52.40625 41 48.078125 
C 43.796875 44.890625 45.296875 40.5625 45.296875 36.359375 
C 45.296875 29.234375 40.40625 21.109375 31.296875 20 
z
" id="Computer_Modern_Roman-222"/>
     </defs>
     <use transform="scale(0.996264)" xlink:href="#CMR17-40"/>
     <use transform="translate(35.280768 0)scale(0.996264)" xlink:href="#CMR17-49"/>
     <use transform="translate(103.110452 0)scale(0.996264)" xlink:href="#CMSY10-0"/>
     <use transform="translate(202.737127 0)scale(0.996264)" xlink:href="#CMMI12-125"/>
     <use transform="translate(264.841622 36.153639)scale(0.697382)" xlink:href="#CMR17-49"/>
     <use transform="translate(296.824804 36.153639)scale(0.697382)" xlink:href="#CMMI12-61"/>
     <use transform="translate(330.967095 36.153639)scale(0.697382)" xlink:href="#CMMI12-26"/>
     <use transform="translate(362.257288 0)scale(0.996264)" xlink:href="#Computer_Modern_Roman-222"/>
     <use transform="translate(364.47117 2.767393)scale(0.996264)" xlink:href="#Computer_Modern_Roman-222"/>
     <use transform="translate(366.685051 0)scale(0.996264)" xlink:href="#Computer_Modern_Roman-222"/>
     <use transform="translate(422.394734 0)scale(0.996264)" xlink:href="#CMR17-41"/>
     <use transform="translate(485.34951 0)scale(0.996264)" xlink:href="#CMSY10-17"/>
     <use transform="translate(590.510987 0)scale(0.996264)" xlink:href="#CMMI12-20"/>
     <path d="M 590.510987 54.849612 
L 646.665611 54.849612 
L 646.665611 58.834561 
L 590.510987 58.834561 
L 590.510987 54.849612 
z
"/>
    </g>
   </g>
   <g id="text_18">
    <!-- $\underline{\kappa}\equiv(1-\pmb{\text{\TH}}_{R})$ -->
    <g transform="translate(149.85 481.5936)scale(0.26 -0.26)">
     <defs>
      <path d="M 36.796875 61.3125 
C 37.703125 65 38.09375 65 42 65 
L 49.203125 65 
C 57.796875 65 64.203125 62.421875 64.203125 54.671875 
C 64.203125 49.609375 61.59375 35 41.5 35 
L 30.203125 35 
z
M 50.703125 33.890625 
C 63.09375 36.578125 72.796875 44.546875 72.796875 53.09375 
C 72.796875 60.84375 64.90625 68 51 68 
L 23.90625 68 
C 21.90625 68 21 68 21 66.03125 
C 21 65 21.703125 65 23.59375 65 
C 29.59375 65 29.59375 64.25 29.59375 63.203125 
C 29.59375 63.015625 29.59375 62.40625 29.203125 60.921875 
L 15.703125 7.484375 
C 14.796875 4 14.59375 3 7.703125 3 
C 5.40625 3 4.703125 3 4.703125 1.109375 
C 4.703125 0.109375 5.796875 0.109375 6.09375 0.109375 
C 7.90625 0.109375 10 0.109375 11.90625 0.109375 
L 23.703125 0.109375 
C 25.5 0.109375 27.59375 0.109375 29.40625 0.109375 
C 30.203125 0.109375 31.296875 0.109375 31.296875 2 
C 31.296875 3 30.40625 3 28.90625 3 
C 22.796875 3 22.796875 3.796875 22.796875 4.78125 
C 22.796875 4.890625 22.796875 5.578125 23 6.359375 
L 29.703125 33 
L 41.703125 33 
C 51.203125 33 53 27.046875 53 23.78125 
C 53 22.296875 52 18.421875 51.296875 15.84375 
C 50.203125 11.296875 49.90625 10.1875 49.90625 8.3125 
C 49.90625 1.28125 55.703125 -2 62.40625 -2 
C 70.5 -2 74 7.828125 74 9.234375 
C 74 9.921875 73.5 10.21875 72.90625 10.21875 
C 72.09375 10.21875 71.90625 9.625 71.703125 8.828125 
C 69.296875 1.78125 65.203125 0 62.703125 0 
C 60.203125 0 58.59375 1.09375 58.59375 5.5625 
C 58.59375 7.953125 59.796875 17 59.90625 17.5 
C 60.40625 21.171875 60.40625 21.5625 60.40625 22.375 
C 60.40625 29.625 54.5 32.703125 50.703125 33.890625 
z
" id="CMMI12-82"/>
     </defs>
     <use transform="scale(0.996264)" xlink:href="#CMMI12-20"/>
     <use transform="translate(83.828633 0)scale(0.996264)" xlink:href="#CMSY10-17"/>
     <use transform="translate(188.990109 0)scale(0.996264)" xlink:href="#CMR17-40"/>
     <use transform="translate(224.270877 0)scale(0.996264)" xlink:href="#CMR17-49"/>
     <use transform="translate(292.100561 0)scale(0.996264)" xlink:href="#CMSY10-0"/>
     <use transform="translate(387.299382 0)scale(0.996264)" xlink:href="#Computer_Modern_Roman-222"/>
     <use transform="translate(389.513263 2.767393)scale(0.996264)" xlink:href="#Computer_Modern_Roman-222"/>
     <use transform="translate(391.727144 0)scale(0.996264)" xlink:href="#Computer_Modern_Roman-222"/>
     <use transform="translate(447.436827 -14.943915)scale(0.697382)" xlink:href="#CMMI12-82"/>
     <use transform="translate(500.48439 0)scale(0.996264)" xlink:href="#CMR17-41"/>
     <path d="M 0 -15.939799 
L 56.154624 -15.939799 
L 56.154624 -11.954849 
L 0 -11.954849 
L 0 -15.939799 
z
"/>
    </g>
   </g>
   <g id="text_19">
    <!-- $m$ -->
    <g transform="translate(781.785 512.64)scale(0.26 -0.26)">
     <use transform="scale(0.996264)" xlink:href="#CMMI12-109"/>
    </g>
   </g>
  </g>
 </g>
 <defs>
  <clipPath id="pabb7e9d2cb">
   <rect height="443.52" width="669.6" x="108" y="69.12"/>
  </clipPath>
 </defs>
</svg>
